M48
;Layer_Color=9474304
;FILE_FORMAT=2:5
INCH,LZ
;TYPE=PLATED
T1F00S00C0.00787
T3F00S00C0.02559
T4F00S00C0.04016
T5F00S00C0.12441
T6F00S00C0.12598
T7F00S00C0.14331
%
T01
X0472441Y023622
X0484252
X0496063
X0507874
X0519685
X0513779Y0248031
X052559
X0537401
X0531496Y0259842
X0537401Y0271654
X052559
X0535236Y0288189
X0496161Y0296457
X0497736Y0305118
X046437Y0296358
X0457874Y0296063
X0458563Y0290256
X0463484Y0290059
X0459941Y0285827
X0454528Y0285236
X0453346Y0291339
X0449606Y0288189
X0443701Y028937
X0447047Y0292913
X0445965Y0299213
X0451772Y0297441
X0450295Y0303445
X0456791Y0302658
X0454232Y0307677
X0440846Y0294882
X0422539Y0289173
X0418996Y0285827
X0415158Y028189
X0413236Y0271654
X0413386Y0259842
X0419291Y0248031
X0431102
X0433465Y0256693
X0437008Y0259547
X0440945Y025748
X0447539Y0249803
X0448819Y023622
X0437008
X0425197
X0413386
X0401575
X0389764
X0377953
X0366142
X0354331
X0348425Y0248031
X0360236
X0372047
Y0271654
X0360236
X0348425
X034252Y0283465
X0354331
X0366142
X0366043Y0279415
X0371496Y0296052
X037142Y0299052
X035876Y0295177
X034252Y0307086
Y0259842
X0354331
X0383858Y0271654
X038654Y0283406
X0389538Y0283632
X0392685Y0283675
X0397437Y0280629
X0400099Y0285082
X0418504Y03
Y0304724
X0420784Y0306552
X0427658Y0263484
X0456595Y0260925
X0460433Y0265256
X0463386Y0275295
X0463681Y0281693
X0458465Y0279921
X0451575Y0271654
X046063Y023622
X0457874Y0312795
X0464272Y0314764
X0448819Y0330709
X0442913Y034252
X0431102
X0437008Y0354331
X0448819
X046063
X0454724Y034252
X0425197Y0330709
X0423228Y0323721
X0431102Y0318898
X0415453Y0316535
X0413386Y0330709
X0397799Y0330116
X039324Y0330266
X0398228Y0343504
X0404134Y0343406
X040748Y034252
X0413386Y0354331
X0401575
X0396457Y0361417
X0395669Y0366142
X039252Y0359055
X0388583Y0356693
X0385433Y0354331
X0377953Y0354331
X0366142
X0372047Y034252
X0379134Y0339764
X0376279Y0332776
X0366142Y0330709
X0362205Y0327067
X0350787Y0331496
X034252Y0330709
X0355118Y0346457
X0360236Y034252
Y0366142
X0348425
X0343307Y0370079
X0354331Y0377953
X0372047Y0366142
X0383858
X040748
X0419291
X0426378Y0366535
X0429732Y0363386
X045374Y0383268
X0372047Y0318898
X0472441Y0354331
X0476378Y0368898
X0490157Y0366142
X0501968
X0513779
X052559
X0519685Y0377953
X0507874
X0496063
X0484252
T03
X0369921Y0375
X0379921
X0389921
X0399921
X0413071
X0423071
X0433071
X0443071
T04
X0388425Y024748
Y025748
X0398425
X0408425
Y024748
X0398425
T05
X0514764Y0265748
T06
X0535433Y023622
X0334646
Y0385827
X0535433
T07
X0491142Y0265748
M30
