G04*
G04 #@! TF.GenerationSoftware,Altium Limited,Altium Designer,22.0.2 (36)*
G04*
G04 Layer_Color=8388736*
%FSLAX25Y25*%
%MOIN*%
G70*
G04*
G04 #@! TF.SameCoordinates,77FB473F-6002-4E98-9841-083E989A2A2F*
G04*
G04*
G04 #@! TF.FilePolarity,Negative*
G04*
G01*
G75*
%ADD24R,0.06102X0.05118*%
%ADD26R,0.03150X0.03150*%
%ADD27R,0.02362X0.00984*%
%ADD28R,0.00984X0.02362*%
%ADD30R,0.02992X0.08661*%
%ADD33R,0.04166X0.04748*%
G04:AMPARAMS|DCode=34|XSize=85.03mil|YSize=126.46mil|CornerRadius=17.86mil|HoleSize=0mil|Usage=FLASHONLY|Rotation=180.000|XOffset=0mil|YOffset=0mil|HoleType=Round|Shape=RoundedRectangle|*
%AMROUNDEDRECTD34*
21,1,0.08503,0.09075,0,0,180.0*
21,1,0.04932,0.12646,0,0,180.0*
1,1,0.03571,-0.02466,0.04538*
1,1,0.03571,0.02466,0.04538*
1,1,0.03571,0.02466,-0.04538*
1,1,0.03571,-0.02466,-0.04538*
%
%ADD34ROUNDEDRECTD34*%
G04:AMPARAMS|DCode=35|XSize=85.03mil|YSize=35.91mil|CornerRadius=17.96mil|HoleSize=0mil|Usage=FLASHONLY|Rotation=180.000|XOffset=0mil|YOffset=0mil|HoleType=Round|Shape=RoundedRectangle|*
%AMROUNDEDRECTD35*
21,1,0.08503,0.00000,0,0,180.0*
21,1,0.04911,0.03591,0,0,180.0*
1,1,0.03591,-0.02456,0.00000*
1,1,0.03591,0.02456,0.00000*
1,1,0.03591,0.02456,0.00000*
1,1,0.03591,-0.02456,0.00000*
%
%ADD35ROUNDEDRECTD35*%
%ADD36R,0.08503X0.03591*%
%ADD37R,0.05512X0.01575*%
%ADD38R,0.05709X0.04528*%
%ADD39R,0.07480X0.06890*%
%ADD40R,0.04724X0.13780*%
%ADD41R,0.03591X0.03591*%
%ADD42R,0.02402X0.03898*%
%ADD43R,0.06398X0.01772*%
%ADD44R,0.01772X0.06398*%
%ADD45R,0.04991X0.02991*%
%ADD46R,0.03591X0.03591*%
%ADD47R,0.10630X0.10630*%
%ADD48R,0.04921X0.03150*%
%ADD49R,0.07087X0.04213*%
%ADD50C,0.06181*%
%ADD51R,0.06181X0.06181*%
%ADD52C,0.13189*%
%ADD53R,0.04724X0.04724*%
%ADD54C,0.04724*%
%ADD55C,0.22087*%
%ADD56C,0.19252*%
%ADD57O,0.07480X0.04134*%
D24*
X334744Y272638D02*
D03*
X366043D02*
D03*
X334744Y254921D02*
D03*
X366043D02*
D03*
D26*
X339567Y370079D02*
D03*
X333661D02*
D03*
X339567Y338583D02*
D03*
X333661D02*
D03*
X339567Y354331D02*
D03*
X333661D02*
D03*
D27*
X430512Y274213D02*
D03*
Y272244D02*
D03*
Y270276D02*
D03*
Y268307D02*
D03*
Y266339D02*
D03*
Y264370D02*
D03*
X445472D02*
D03*
Y266339D02*
D03*
Y268307D02*
D03*
Y270276D02*
D03*
Y272244D02*
D03*
Y274213D02*
D03*
D28*
X433071Y261811D02*
D03*
X435039D02*
D03*
X437008D02*
D03*
X438976D02*
D03*
X440945D02*
D03*
X442913D02*
D03*
Y276772D02*
D03*
X440945D02*
D03*
X438976D02*
D03*
X437008D02*
D03*
X435039D02*
D03*
X433071D02*
D03*
D30*
X456535Y376378D02*
D03*
X461535D02*
D03*
X466535D02*
D03*
X471535D02*
D03*
X476535D02*
D03*
X456535Y361811D02*
D03*
X461535D02*
D03*
X466535D02*
D03*
X471535D02*
D03*
X476535D02*
D03*
D33*
X507736Y306295D02*
D03*
Y312800D02*
D03*
D34*
X464326Y305610D02*
D03*
D35*
X488155Y314665D02*
D03*
Y305610D02*
D03*
D36*
Y296555D02*
D03*
D37*
X530059Y339370D02*
D03*
Y341929D02*
D03*
Y344488D02*
D03*
Y347047D02*
D03*
Y349606D02*
D03*
D38*
X531713Y335354D02*
D03*
Y353622D02*
D03*
D39*
X540492Y340059D02*
D03*
Y348917D02*
D03*
D40*
X344488Y317913D02*
D03*
Y296260D02*
D03*
D41*
X443695Y250000D02*
D03*
X438195D02*
D03*
X469148Y285925D02*
D03*
X463648D02*
D03*
X333864Y362205D02*
D03*
X339364D02*
D03*
X364955Y291339D02*
D03*
X359455D02*
D03*
X405512Y281890D02*
D03*
X411012D02*
D03*
X386608Y332677D02*
D03*
X381108D02*
D03*
X364955Y309055D02*
D03*
X359455D02*
D03*
X333864Y346457D02*
D03*
X339364D02*
D03*
X389567Y338583D02*
D03*
X384067D02*
D03*
X333864Y330709D02*
D03*
X339364D02*
D03*
D42*
X528543Y313386D02*
D03*
Y322441D02*
D03*
D43*
X410386Y310039D02*
D03*
Y312008D02*
D03*
Y317913D02*
D03*
Y315945D02*
D03*
Y313976D02*
D03*
Y308071D02*
D03*
Y306102D02*
D03*
Y304134D02*
D03*
Y302165D02*
D03*
Y300197D02*
D03*
Y298228D02*
D03*
Y296260D02*
D03*
X377016D02*
D03*
Y298228D02*
D03*
Y300197D02*
D03*
Y302165D02*
D03*
Y304134D02*
D03*
Y306102D02*
D03*
Y308071D02*
D03*
Y310039D02*
D03*
Y312008D02*
D03*
Y313976D02*
D03*
Y315945D02*
D03*
Y317913D02*
D03*
D44*
X382874Y323772D02*
D03*
X384843D02*
D03*
X386811D02*
D03*
X388780D02*
D03*
X390748D02*
D03*
X392717D02*
D03*
X394685D02*
D03*
X396654D02*
D03*
X398622D02*
D03*
X400591D02*
D03*
X402559D02*
D03*
X404528D02*
D03*
Y290402D02*
D03*
X402559D02*
D03*
X400591D02*
D03*
X398622D02*
D03*
X396654D02*
D03*
X394685D02*
D03*
X392717D02*
D03*
X390748D02*
D03*
X388780D02*
D03*
X386811D02*
D03*
X384843D02*
D03*
X382874D02*
D03*
D45*
X515945Y339272D02*
D03*
Y346752D02*
D03*
X506102Y343012D02*
D03*
Y339272D02*
D03*
Y346752D02*
D03*
X515945Y343012D02*
D03*
D46*
X394094Y273228D02*
D03*
Y278728D02*
D03*
X497894Y310734D02*
D03*
Y316234D02*
D03*
X419291Y318116D02*
D03*
Y323616D02*
D03*
X368110Y318116D02*
D03*
Y323616D02*
D03*
X362205Y318116D02*
D03*
Y323616D02*
D03*
X368110Y296463D02*
D03*
Y301963D02*
D03*
X362205Y296463D02*
D03*
Y301963D02*
D03*
X374016Y261030D02*
D03*
Y266530D02*
D03*
X332677Y301963D02*
D03*
Y296463D02*
D03*
Y311429D02*
D03*
Y316929D02*
D03*
X456693Y270467D02*
D03*
Y264967D02*
D03*
X395669Y333864D02*
D03*
Y339364D02*
D03*
X401575Y333864D02*
D03*
Y339364D02*
D03*
D47*
X437992Y269291D02*
D03*
D48*
X526772Y298031D02*
D03*
X535040Y301811D02*
D03*
Y294252D02*
D03*
D49*
X517579Y315472D02*
D03*
Y303622D02*
D03*
D50*
X408425Y257480D02*
D03*
X398425D02*
D03*
X388425D02*
D03*
X408425Y247480D02*
D03*
X398425D02*
D03*
D51*
X388425D02*
D03*
D52*
X535433Y236220D02*
D03*
Y385827D02*
D03*
X334646Y236220D02*
D03*
Y385827D02*
D03*
D53*
X413071Y375000D02*
D03*
X369921D02*
D03*
D54*
X423071D02*
D03*
X433071D02*
D03*
X443071D02*
D03*
X379921D02*
D03*
X389921D02*
D03*
X399921D02*
D03*
D55*
X491142Y265748D02*
D03*
D56*
X514764D02*
D03*
D57*
X540492Y330413D02*
D03*
Y358563D02*
D03*
M02*
