G04*
G04 #@! TF.GenerationSoftware,Altium Limited,Altium Designer,22.0.2 (36)*
G04*
G04 Layer_Physical_Order=3*
G04 Layer_Color=16440176*
%FSLAX25Y25*%
%MOIN*%
G70*
G04*
G04 #@! TF.SameCoordinates,77FB473F-6002-4E98-9841-083E989A2A2F*
G04*
G04*
G04 #@! TF.FilePolarity,Positive*
G04*
G01*
G75*
%ADD50C,0.06181*%
%ADD51R,0.06181X0.06181*%
%ADD63R,0.04134X0.04134*%
%ADD67C,0.01772*%
G36*
X537405Y394104D02*
X539225Y393350D01*
X540863Y392256D01*
X542256Y390863D01*
X543350Y389225D01*
X544104Y387405D01*
X544488Y385473D01*
Y384488D01*
Y361277D01*
X543988Y361030D01*
X543712Y361242D01*
X542966Y361551D01*
X542165Y361656D01*
X538819D01*
X538018Y361551D01*
X537272Y361242D01*
X536632Y360750D01*
X536140Y360110D01*
X535831Y359364D01*
X535726Y358563D01*
X535831Y357762D01*
X536140Y357016D01*
X536632Y356376D01*
X537272Y355884D01*
X538018Y355575D01*
X538819Y355470D01*
X542165D01*
X542966Y355575D01*
X543712Y355884D01*
X543988Y356096D01*
X544488Y355849D01*
Y333127D01*
X543988Y332880D01*
X543712Y333092D01*
X542966Y333401D01*
X542165Y333507D01*
X538819D01*
X538018Y333401D01*
X537272Y333092D01*
X536632Y332601D01*
X536140Y331960D01*
X535831Y331214D01*
X535726Y330413D01*
X535831Y329613D01*
X536140Y328867D01*
X536632Y328226D01*
X537272Y327734D01*
X538018Y327425D01*
X538819Y327320D01*
X542165D01*
X542966Y327425D01*
X543712Y327734D01*
X543988Y327946D01*
X544488Y327700D01*
Y236870D01*
Y235885D01*
X544104Y233953D01*
X543350Y232133D01*
X542256Y230495D01*
X540863Y229103D01*
X539225Y228008D01*
X537405Y227254D01*
X535473Y226870D01*
X334901D01*
X332969Y227254D01*
X331149Y228008D01*
X329511Y229103D01*
X328118Y230495D01*
X327024Y232133D01*
X326270Y233953D01*
X325886Y235885D01*
Y236870D01*
Y243701D01*
X326279Y313484D01*
Y384488D01*
Y385473D01*
X326664Y387405D01*
X327418Y389225D01*
X328512Y390863D01*
X329905Y392256D01*
X331543Y393350D01*
X333363Y394104D01*
X335295Y394488D01*
X535473D01*
X537405Y394104D01*
D02*
G37*
%LPC*%
G36*
X536152Y393126D02*
X534714D01*
X533304Y392846D01*
X531976Y392295D01*
X530780Y391496D01*
X529763Y390480D01*
X528965Y389284D01*
X528414Y387956D01*
X528134Y386546D01*
Y385108D01*
X528414Y383698D01*
X528965Y382369D01*
X529763Y381174D01*
X530780Y380157D01*
X531976Y379358D01*
X533304Y378808D01*
X534714Y378528D01*
X536152D01*
X537562Y378808D01*
X538891Y379358D01*
X540086Y380157D01*
X541103Y381174D01*
X541901Y382369D01*
X542452Y383698D01*
X542732Y385108D01*
Y386546D01*
X542452Y387956D01*
X541901Y389284D01*
X541103Y390480D01*
X540086Y391496D01*
X538891Y392295D01*
X537562Y392846D01*
X536152Y393126D01*
D02*
G37*
G36*
X335365D02*
X333927D01*
X332517Y392846D01*
X331188Y392295D01*
X329993Y391496D01*
X328976Y390480D01*
X328177Y389284D01*
X327627Y387956D01*
X327346Y386546D01*
Y385108D01*
X327627Y383698D01*
X328177Y382369D01*
X328976Y381174D01*
X329993Y380157D01*
X331188Y379358D01*
X332517Y378808D01*
X333927Y378528D01*
X335365D01*
X336775Y378808D01*
X338103Y379358D01*
X339299Y380157D01*
X340315Y381174D01*
X341114Y382369D01*
X341664Y383698D01*
X341945Y385108D01*
Y386546D01*
X341664Y387956D01*
X341114Y389284D01*
X340315Y390480D01*
X339299Y391496D01*
X338103Y392295D01*
X336775Y392846D01*
X335365Y393126D01*
D02*
G37*
G36*
X520060Y379838D02*
X519310D01*
X518617Y379551D01*
X518086Y379021D01*
X517799Y378328D01*
Y377577D01*
X518086Y376884D01*
X518617Y376354D01*
X519310Y376067D01*
X520060D01*
X520753Y376354D01*
X521284Y376884D01*
X521571Y377577D01*
Y378328D01*
X521284Y379021D01*
X520753Y379551D01*
X520060Y379838D01*
D02*
G37*
G36*
X508249D02*
X507499D01*
X506806Y379551D01*
X506275Y379021D01*
X505988Y378328D01*
Y377577D01*
X506275Y376884D01*
X506806Y376354D01*
X507499Y376067D01*
X508249D01*
X508942Y376354D01*
X509473Y376884D01*
X509760Y377577D01*
Y378328D01*
X509473Y379021D01*
X508942Y379551D01*
X508249Y379838D01*
D02*
G37*
G36*
X496438D02*
X495688D01*
X494995Y379551D01*
X494464Y379021D01*
X494177Y378328D01*
Y377577D01*
X494464Y376884D01*
X494995Y376354D01*
X495688Y376067D01*
X496438D01*
X497131Y376354D01*
X497662Y376884D01*
X497949Y377577D01*
Y378328D01*
X497662Y379021D01*
X497131Y379551D01*
X496438Y379838D01*
D02*
G37*
G36*
X484627D02*
X483877D01*
X483184Y379551D01*
X482653Y379021D01*
X482366Y378328D01*
Y377577D01*
X482653Y376884D01*
X483184Y376354D01*
X483877Y376067D01*
X484627D01*
X485320Y376354D01*
X485850Y376884D01*
X486138Y377577D01*
Y378328D01*
X485850Y379021D01*
X485320Y379551D01*
X484627Y379838D01*
D02*
G37*
G36*
X354706D02*
X353956D01*
X353262Y379551D01*
X352732Y379021D01*
X352445Y378328D01*
Y377577D01*
X352732Y376884D01*
X353262Y376354D01*
X353956Y376067D01*
X354706D01*
X355399Y376354D01*
X355929Y376884D01*
X356216Y377577D01*
Y378328D01*
X355929Y379021D01*
X355399Y379551D01*
X354706Y379838D01*
D02*
G37*
G36*
X415925Y377854D02*
X413464D01*
Y375394D01*
X415925D01*
Y377854D01*
D02*
G37*
G36*
X412677D02*
X410217D01*
Y375394D01*
X412677D01*
Y377854D01*
D02*
G37*
G36*
X415925Y374606D02*
X413464D01*
Y372146D01*
X415925D01*
Y374606D01*
D02*
G37*
G36*
X412677D02*
X410217D01*
Y372146D01*
X412677D01*
Y374606D01*
D02*
G37*
G36*
X443475Y378067D02*
X442667D01*
X441887Y377858D01*
X441188Y377454D01*
X440617Y376883D01*
X440213Y376184D01*
X440004Y375404D01*
Y374596D01*
X440213Y373816D01*
X440617Y373117D01*
X441188Y372546D01*
X441887Y372142D01*
X442667Y371933D01*
X443475D01*
X444255Y372142D01*
X444954Y372546D01*
X445525Y373117D01*
X445929Y373816D01*
X446138Y374596D01*
Y375404D01*
X445929Y376184D01*
X445525Y376883D01*
X444954Y377454D01*
X444255Y377858D01*
X443475Y378067D01*
D02*
G37*
G36*
X433475D02*
X432667D01*
X431887Y377858D01*
X431188Y377454D01*
X430617Y376883D01*
X430213Y376184D01*
X430004Y375404D01*
Y374596D01*
X430213Y373816D01*
X430617Y373117D01*
X431188Y372546D01*
X431887Y372142D01*
X432667Y371933D01*
X433475D01*
X434255Y372142D01*
X434954Y372546D01*
X435525Y373117D01*
X435929Y373816D01*
X436138Y374596D01*
Y375404D01*
X435929Y376184D01*
X435525Y376883D01*
X434954Y377454D01*
X434255Y377858D01*
X433475Y378067D01*
D02*
G37*
G36*
X423475D02*
X422667D01*
X421887Y377858D01*
X421188Y377454D01*
X420617Y376883D01*
X420213Y376184D01*
X420004Y375404D01*
Y374596D01*
X420213Y373816D01*
X420617Y373117D01*
X421188Y372546D01*
X421887Y372142D01*
X422667Y371933D01*
X423475D01*
X424255Y372142D01*
X424954Y372546D01*
X425525Y373117D01*
X425929Y373816D01*
X426138Y374596D01*
Y375404D01*
X425929Y376184D01*
X425525Y376883D01*
X424954Y377454D01*
X424255Y377858D01*
X423475Y378067D01*
D02*
G37*
G36*
X400325D02*
X399517D01*
X398737Y377858D01*
X398038Y377454D01*
X397467Y376883D01*
X397063Y376184D01*
X396854Y375404D01*
Y374596D01*
X397063Y373816D01*
X397467Y373117D01*
X398038Y372546D01*
X398737Y372142D01*
X399517Y371933D01*
X400325D01*
X401105Y372142D01*
X401804Y372546D01*
X402375Y373117D01*
X402779Y373816D01*
X402988Y374596D01*
Y375404D01*
X402779Y376184D01*
X402375Y376883D01*
X401804Y377454D01*
X401105Y377858D01*
X400325Y378067D01*
D02*
G37*
G36*
X390325D02*
X389517D01*
X388737Y377858D01*
X388038Y377454D01*
X387467Y376883D01*
X387063Y376184D01*
X386854Y375404D01*
Y374596D01*
X387063Y373816D01*
X387467Y373117D01*
X388038Y372546D01*
X388737Y372142D01*
X389517Y371933D01*
X390325D01*
X391105Y372142D01*
X391804Y372546D01*
X392375Y373117D01*
X392779Y373816D01*
X392988Y374596D01*
Y375404D01*
X392779Y376184D01*
X392375Y376883D01*
X391804Y377454D01*
X391105Y377858D01*
X390325Y378067D01*
D02*
G37*
G36*
X380325D02*
X379517D01*
X378737Y377858D01*
X378038Y377454D01*
X377467Y376883D01*
X377063Y376184D01*
X376854Y375404D01*
Y374596D01*
X377063Y373816D01*
X377467Y373117D01*
X378038Y372546D01*
X378737Y372142D01*
X379517Y371933D01*
X380325D01*
X381105Y372142D01*
X381804Y372546D01*
X382375Y373117D01*
X382779Y373816D01*
X382988Y374596D01*
Y375404D01*
X382779Y376184D01*
X382375Y376883D01*
X381804Y377454D01*
X381105Y377858D01*
X380325Y378067D01*
D02*
G37*
G36*
X372988D02*
X366854D01*
Y371933D01*
X372988D01*
Y378067D01*
D02*
G37*
G36*
X476753Y370783D02*
X476003D01*
X475310Y370496D01*
X474779Y369966D01*
X474492Y369273D01*
Y368523D01*
X474779Y367829D01*
X475310Y367299D01*
X476003Y367012D01*
X476753D01*
X477446Y367299D01*
X477977Y367829D01*
X478264Y368523D01*
Y369273D01*
X477977Y369966D01*
X477446Y370496D01*
X476753Y370783D01*
D02*
G37*
G36*
X426753Y368421D02*
X426003D01*
X425310Y368134D01*
X424779Y367604D01*
X424492Y366911D01*
Y366160D01*
X424779Y365467D01*
X425310Y364937D01*
X426003Y364650D01*
X426753D01*
X427446Y364937D01*
X427977Y365467D01*
X428264Y366160D01*
Y366911D01*
X427977Y367604D01*
X427446Y368134D01*
X426753Y368421D01*
D02*
G37*
G36*
X525965Y368027D02*
X525215D01*
X524522Y367740D01*
X523992Y367210D01*
X523705Y366517D01*
Y365767D01*
X523992Y365073D01*
X524522Y364543D01*
X525215Y364256D01*
X525965D01*
X526659Y364543D01*
X527189Y365073D01*
X527476Y365767D01*
Y366517D01*
X527189Y367210D01*
X526659Y367740D01*
X525965Y368027D01*
D02*
G37*
G36*
X514154D02*
X513404D01*
X512711Y367740D01*
X512181Y367210D01*
X511894Y366517D01*
Y365767D01*
X512181Y365073D01*
X512711Y364543D01*
X513404Y364256D01*
X514154D01*
X514848Y364543D01*
X515378Y365073D01*
X515665Y365767D01*
Y366517D01*
X515378Y367210D01*
X514848Y367740D01*
X514154Y368027D01*
D02*
G37*
G36*
X502344D02*
X501593D01*
X500900Y367740D01*
X500370Y367210D01*
X500082Y366517D01*
Y365767D01*
X500370Y365073D01*
X500900Y364543D01*
X501593Y364256D01*
X502344D01*
X503037Y364543D01*
X503567Y365073D01*
X503854Y365767D01*
Y366517D01*
X503567Y367210D01*
X503037Y367740D01*
X502344Y368027D01*
D02*
G37*
G36*
X490532D02*
X489782D01*
X489089Y367740D01*
X488559Y367210D01*
X488272Y366517D01*
Y365767D01*
X488559Y365073D01*
X489089Y364543D01*
X489782Y364256D01*
X490532D01*
X491226Y364543D01*
X491756Y365073D01*
X492043Y365767D01*
Y366517D01*
X491756Y367210D01*
X491226Y367740D01*
X490532Y368027D01*
D02*
G37*
G36*
X419666D02*
X418916D01*
X418223Y367740D01*
X417693Y367210D01*
X417405Y366517D01*
Y365767D01*
X417693Y365073D01*
X418223Y364543D01*
X418916Y364256D01*
X419666D01*
X420359Y364543D01*
X420890Y365073D01*
X421177Y365767D01*
Y366517D01*
X420890Y367210D01*
X420359Y367740D01*
X419666Y368027D01*
D02*
G37*
G36*
X407855D02*
X407105D01*
X406412Y367740D01*
X405882Y367210D01*
X405594Y366517D01*
Y365767D01*
X405882Y365073D01*
X406412Y364543D01*
X407105Y364256D01*
X407855D01*
X408548Y364543D01*
X409079Y365073D01*
X409366Y365767D01*
Y366517D01*
X409079Y367210D01*
X408548Y367740D01*
X407855Y368027D01*
D02*
G37*
G36*
X396044D02*
X395294D01*
X394601Y367740D01*
X394070Y367210D01*
X393783Y366517D01*
Y365767D01*
X394070Y365073D01*
X394601Y364543D01*
X395294Y364256D01*
X396044D01*
X396737Y364543D01*
X397268Y365073D01*
X397555Y365767D01*
Y366517D01*
X397268Y367210D01*
X396737Y367740D01*
X396044Y368027D01*
D02*
G37*
G36*
X384233D02*
X383483D01*
X382790Y367740D01*
X382259Y367210D01*
X381972Y366517D01*
Y365767D01*
X382259Y365073D01*
X382790Y364543D01*
X383483Y364256D01*
X384233D01*
X384926Y364543D01*
X385457Y365073D01*
X385744Y365767D01*
Y366517D01*
X385457Y367210D01*
X384926Y367740D01*
X384233Y368027D01*
D02*
G37*
G36*
X372422D02*
X371672D01*
X370979Y367740D01*
X370448Y367210D01*
X370161Y366517D01*
Y365767D01*
X370448Y365073D01*
X370979Y364543D01*
X371672Y364256D01*
X372422D01*
X373115Y364543D01*
X373646Y365073D01*
X373933Y365767D01*
Y366517D01*
X373646Y367210D01*
X373115Y367740D01*
X372422Y368027D01*
D02*
G37*
G36*
X360611D02*
X359861D01*
X359168Y367740D01*
X358637Y367210D01*
X358350Y366517D01*
Y365767D01*
X358637Y365073D01*
X359168Y364543D01*
X359861Y364256D01*
X360611D01*
X361304Y364543D01*
X361835Y365073D01*
X362122Y365767D01*
Y366517D01*
X361835Y367210D01*
X361304Y367740D01*
X360611Y368027D01*
D02*
G37*
G36*
X348800D02*
X348050D01*
X347357Y367740D01*
X346826Y367210D01*
X346539Y366517D01*
Y365767D01*
X346826Y365073D01*
X347357Y364543D01*
X348050Y364256D01*
X348800D01*
X349493Y364543D01*
X350024Y365073D01*
X350311Y365767D01*
Y366517D01*
X350024Y367210D01*
X349493Y367740D01*
X348800Y368027D01*
D02*
G37*
G36*
X430107Y365272D02*
X429357D01*
X428664Y364984D01*
X428134Y364454D01*
X427846Y363761D01*
Y363011D01*
X428134Y362318D01*
X428664Y361787D01*
X429357Y361500D01*
X430107D01*
X430800Y361787D01*
X431331Y362318D01*
X431618Y363011D01*
Y363761D01*
X431331Y364454D01*
X430800Y364984D01*
X430107Y365272D01*
D02*
G37*
G36*
X396832Y363303D02*
X396082D01*
X395389Y363016D01*
X394858Y362486D01*
X394571Y361792D01*
Y361042D01*
X394858Y360349D01*
X395389Y359819D01*
X396082Y359531D01*
X396832D01*
X397525Y359819D01*
X398055Y360349D01*
X398342Y361042D01*
Y361792D01*
X398055Y362486D01*
X397525Y363016D01*
X396832Y363303D01*
D02*
G37*
G36*
X392895Y360941D02*
X392145D01*
X391452Y360654D01*
X390921Y360123D01*
X390634Y359430D01*
Y358680D01*
X390921Y357987D01*
X391452Y357456D01*
X392145Y357169D01*
X392895D01*
X393588Y357456D01*
X394118Y357987D01*
X394406Y358680D01*
Y359430D01*
X394118Y360123D01*
X393588Y360654D01*
X392895Y360941D01*
D02*
G37*
G36*
X388958Y358579D02*
X388208D01*
X387514Y358292D01*
X386984Y357761D01*
X386697Y357068D01*
Y356387D01*
X386492Y356173D01*
X386278Y356022D01*
X385808Y356217D01*
X385058D01*
X384365Y355929D01*
X383834Y355399D01*
X383547Y354706D01*
Y353956D01*
X383834Y353262D01*
X384365Y352732D01*
X385058Y352445D01*
X385808D01*
X386501Y352732D01*
X387032Y353262D01*
X387319Y353956D01*
Y354637D01*
X387523Y354850D01*
X387737Y355002D01*
X388208Y354807D01*
X388958D01*
X389651Y355094D01*
X390181Y355625D01*
X390469Y356318D01*
Y357068D01*
X390181Y357761D01*
X389651Y358292D01*
X388958Y358579D01*
D02*
G37*
G36*
X472816Y356216D02*
X472066D01*
X471373Y355929D01*
X470842Y355399D01*
X470555Y354706D01*
Y353956D01*
X470842Y353262D01*
X471373Y352732D01*
X472066Y352445D01*
X472816D01*
X473509Y352732D01*
X474040Y353262D01*
X474327Y353956D01*
Y354706D01*
X474040Y355399D01*
X473509Y355929D01*
X472816Y356216D01*
D02*
G37*
G36*
X461005D02*
X460255D01*
X459561Y355929D01*
X459031Y355399D01*
X458744Y354706D01*
Y353956D01*
X459031Y353262D01*
X459561Y352732D01*
X460255Y352445D01*
X461005D01*
X461698Y352732D01*
X462228Y353262D01*
X462516Y353956D01*
Y354706D01*
X462228Y355399D01*
X461698Y355929D01*
X461005Y356216D01*
D02*
G37*
G36*
X449194D02*
X448444D01*
X447751Y355929D01*
X447220Y355399D01*
X446933Y354706D01*
Y353956D01*
X447220Y353262D01*
X447751Y352732D01*
X448444Y352445D01*
X449194D01*
X449887Y352732D01*
X450418Y353262D01*
X450705Y353956D01*
Y354706D01*
X450418Y355399D01*
X449887Y355929D01*
X449194Y356216D01*
D02*
G37*
G36*
X437383D02*
X436633D01*
X435940Y355929D01*
X435409Y355399D01*
X435122Y354706D01*
Y353956D01*
X435409Y353262D01*
X435940Y352732D01*
X436633Y352445D01*
X437383D01*
X438076Y352732D01*
X438607Y353262D01*
X438894Y353956D01*
Y354706D01*
X438607Y355399D01*
X438076Y355929D01*
X437383Y356216D01*
D02*
G37*
G36*
X413761D02*
X413011D01*
X412318Y355929D01*
X411787Y355399D01*
X411500Y354706D01*
Y353956D01*
X411787Y353262D01*
X412318Y352732D01*
X413011Y352445D01*
X413761D01*
X414454Y352732D01*
X414984Y353262D01*
X415272Y353956D01*
Y354706D01*
X414984Y355399D01*
X414454Y355929D01*
X413761Y356216D01*
D02*
G37*
G36*
X401950D02*
X401200D01*
X400506Y355929D01*
X399976Y355399D01*
X399689Y354706D01*
Y353956D01*
X399976Y353262D01*
X400506Y352732D01*
X401200Y352445D01*
X401950D01*
X402643Y352732D01*
X403173Y353262D01*
X403461Y353956D01*
Y354706D01*
X403173Y355399D01*
X402643Y355929D01*
X401950Y356216D01*
D02*
G37*
G36*
X378328D02*
X377577D01*
X376884Y355929D01*
X376354Y355399D01*
X376067Y354706D01*
Y353956D01*
X376354Y353262D01*
X376884Y352732D01*
X377577Y352445D01*
X378328D01*
X379021Y352732D01*
X379551Y353262D01*
X379838Y353956D01*
Y354706D01*
X379551Y355399D01*
X379021Y355929D01*
X378328Y356216D01*
D02*
G37*
G36*
X366517D02*
X365767D01*
X365073Y355929D01*
X364543Y355399D01*
X364256Y354706D01*
Y353956D01*
X364543Y353262D01*
X365073Y352732D01*
X365767Y352445D01*
X366517D01*
X367210Y352732D01*
X367740Y353262D01*
X368027Y353956D01*
Y354706D01*
X367740Y355399D01*
X367210Y355929D01*
X366517Y356216D01*
D02*
G37*
G36*
X355493Y348342D02*
X354743D01*
X354050Y348055D01*
X353519Y347525D01*
X353232Y346832D01*
Y346082D01*
X353519Y345389D01*
X354050Y344858D01*
X354743Y344571D01*
X355493D01*
X356186Y344858D01*
X356717Y345389D01*
X357004Y346082D01*
Y346832D01*
X356717Y347525D01*
X356186Y348055D01*
X355493Y348342D01*
D02*
G37*
G36*
X455099Y344405D02*
X454349D01*
X453656Y344118D01*
X453126Y343588D01*
X452839Y342895D01*
Y342144D01*
X453126Y341451D01*
X453656Y340921D01*
X454349Y340634D01*
X455099D01*
X455793Y340921D01*
X456323Y341451D01*
X456610Y342144D01*
Y342895D01*
X456323Y343588D01*
X455793Y344118D01*
X455099Y344405D01*
D02*
G37*
G36*
X443288D02*
X442538D01*
X441845Y344118D01*
X441315Y343588D01*
X441027Y342895D01*
Y342144D01*
X441315Y341451D01*
X441845Y340921D01*
X442538Y340634D01*
X443288D01*
X443982Y340921D01*
X444512Y341451D01*
X444799Y342144D01*
Y342895D01*
X444512Y343588D01*
X443982Y344118D01*
X443288Y344405D01*
D02*
G37*
G36*
X431477D02*
X430727D01*
X430034Y344118D01*
X429503Y343588D01*
X429216Y342895D01*
Y342144D01*
X429503Y341451D01*
X430034Y340921D01*
X430727Y340634D01*
X431477D01*
X432170Y340921D01*
X432701Y341451D01*
X432988Y342144D01*
Y342895D01*
X432701Y343588D01*
X432170Y344118D01*
X431477Y344405D01*
D02*
G37*
G36*
X407855D02*
X407105D01*
X406412Y344118D01*
X405882Y343588D01*
X405594Y342895D01*
Y342144D01*
X405882Y341451D01*
X406412Y340921D01*
X407105Y340634D01*
X407855D01*
X408548Y340921D01*
X409079Y341451D01*
X409366Y342144D01*
Y342895D01*
X409079Y343588D01*
X408548Y344118D01*
X407855Y344405D01*
D02*
G37*
G36*
X372422D02*
X371672D01*
X370979Y344118D01*
X370448Y343588D01*
X370161Y342895D01*
Y342144D01*
X370448Y341451D01*
X370979Y340921D01*
X371672Y340634D01*
X372422D01*
X373115Y340921D01*
X373646Y341451D01*
X373933Y342144D01*
Y342895D01*
X373646Y343588D01*
X373115Y344118D01*
X372422Y344405D01*
D02*
G37*
G36*
X360611D02*
X359861D01*
X359168Y344118D01*
X358637Y343588D01*
X358350Y342895D01*
Y342144D01*
X358637Y341451D01*
X359168Y340921D01*
X359861Y340634D01*
X360611D01*
X361304Y340921D01*
X361835Y341451D01*
X362122Y342144D01*
Y342895D01*
X361835Y343588D01*
X361304Y344118D01*
X360611Y344405D01*
D02*
G37*
G36*
X379509Y341650D02*
X378759D01*
X378066Y341363D01*
X377535Y340832D01*
X377248Y340139D01*
Y339389D01*
X377535Y338696D01*
X378066Y338165D01*
X378759Y337878D01*
X379509D01*
X380202Y338165D01*
X380733Y338696D01*
X381020Y339389D01*
Y340139D01*
X380733Y340832D01*
X380202Y341363D01*
X379509Y341650D01*
D02*
G37*
G36*
X351163Y333382D02*
X350412D01*
X349719Y333095D01*
X349189Y332564D01*
X348902Y331871D01*
Y331121D01*
X349189Y330428D01*
X349719Y329897D01*
X350412Y329610D01*
X351163D01*
X351856Y329897D01*
X352386Y330428D01*
X352673Y331121D01*
Y331871D01*
X352386Y332564D01*
X351856Y333095D01*
X351163Y333382D01*
D02*
G37*
G36*
X449194Y332594D02*
X448444D01*
X447751Y332307D01*
X447220Y331777D01*
X446933Y331084D01*
Y330333D01*
X447220Y329640D01*
X447751Y329110D01*
X448444Y328823D01*
X449194D01*
X449887Y329110D01*
X450418Y329640D01*
X450705Y330333D01*
Y331084D01*
X450418Y331777D01*
X449887Y332307D01*
X449194Y332594D01*
D02*
G37*
G36*
X425572D02*
X424822D01*
X424128Y332307D01*
X423598Y331777D01*
X423311Y331084D01*
Y330333D01*
X423598Y329640D01*
X424128Y329110D01*
X424822Y328823D01*
X425572D01*
X426265Y329110D01*
X426795Y329640D01*
X427082Y330333D01*
Y331084D01*
X426795Y331777D01*
X426265Y332307D01*
X425572Y332594D01*
D02*
G37*
G36*
X413761D02*
X413011D01*
X412318Y332307D01*
X411787Y331777D01*
X411500Y331084D01*
Y330333D01*
X411787Y329640D01*
X412318Y329110D01*
X413011Y328823D01*
X413761D01*
X414454Y329110D01*
X414984Y329640D01*
X415272Y330333D01*
Y331084D01*
X414984Y331777D01*
X414454Y332307D01*
X413761Y332594D01*
D02*
G37*
G36*
X366517D02*
X365767D01*
X365073Y332307D01*
X364543Y331777D01*
X364256Y331084D01*
Y330333D01*
X364543Y329640D01*
X365073Y329110D01*
X365767Y328823D01*
X366517D01*
X367210Y329110D01*
X367740Y329640D01*
X368027Y330333D01*
Y331084D01*
X367740Y331777D01*
X367210Y332307D01*
X366517Y332594D01*
D02*
G37*
G36*
X342895D02*
X342144D01*
X341451Y332307D01*
X340921Y331777D01*
X340634Y331084D01*
Y330333D01*
X340921Y329640D01*
X341451Y329110D01*
X342144Y328823D01*
X342895D01*
X343588Y329110D01*
X344118Y329640D01*
X344405Y330333D01*
Y331084D01*
X344118Y331777D01*
X343588Y332307D01*
X342895Y332594D01*
D02*
G37*
G36*
X393615Y332152D02*
X392865D01*
X392172Y331865D01*
X391641Y331334D01*
X391354Y330641D01*
Y329891D01*
X391641Y329198D01*
X392172Y328667D01*
X392865Y328380D01*
X393615D01*
X394308Y328667D01*
X394839Y329198D01*
X395126Y329891D01*
Y330641D01*
X394839Y331334D01*
X394308Y331865D01*
X393615Y332152D01*
D02*
G37*
G36*
X398174Y332001D02*
X397424D01*
X396731Y331714D01*
X396200Y331184D01*
X395913Y330491D01*
Y329740D01*
X396200Y329047D01*
X396731Y328517D01*
X397424Y328230D01*
X398174D01*
X398867Y328517D01*
X399398Y329047D01*
X399685Y329740D01*
Y330491D01*
X399398Y331184D01*
X398867Y331714D01*
X398174Y332001D01*
D02*
G37*
G36*
X431477Y320783D02*
X430727D01*
X430034Y320496D01*
X429503Y319966D01*
X429216Y319273D01*
Y318522D01*
X429503Y317829D01*
X430034Y317299D01*
X430727Y317012D01*
X431477D01*
X432170Y317299D01*
X432701Y317829D01*
X432988Y318522D01*
Y319273D01*
X432701Y319966D01*
X432170Y320496D01*
X431477Y320783D01*
D02*
G37*
G36*
X372422D02*
X371672D01*
X370979Y320496D01*
X370448Y319966D01*
X370161Y319273D01*
Y318522D01*
X370448Y317829D01*
X370979Y317299D01*
X371672Y317012D01*
X372422D01*
X373115Y317299D01*
X373646Y317829D01*
X373933Y318522D01*
Y319273D01*
X373646Y319966D01*
X373115Y320496D01*
X372422Y320783D01*
D02*
G37*
G36*
X415828Y318421D02*
X415078D01*
X414385Y318134D01*
X413854Y317604D01*
X413567Y316911D01*
Y316160D01*
X413854Y315467D01*
X414385Y314937D01*
X415078Y314650D01*
X415828D01*
X416521Y314937D01*
X417052Y315467D01*
X417339Y316160D01*
Y316911D01*
X417052Y317604D01*
X416521Y318134D01*
X415828Y318421D01*
D02*
G37*
G36*
X342895Y308972D02*
X342144D01*
X341451Y308685D01*
X340921Y308155D01*
X340634Y307462D01*
Y306711D01*
X340921Y306018D01*
X341451Y305488D01*
X342144Y305201D01*
X342895D01*
X343588Y305488D01*
X344118Y306018D01*
X344405Y306711D01*
Y307462D01*
X344118Y308155D01*
X343588Y308685D01*
X342895Y308972D01*
D02*
G37*
G36*
X498111Y307004D02*
X497361D01*
X496668Y306717D01*
X496138Y306186D01*
X495850Y305493D01*
Y304743D01*
X496138Y304050D01*
X496668Y303519D01*
X497361Y303232D01*
X498111D01*
X498804Y303519D01*
X499335Y304050D01*
X499622Y304743D01*
Y305493D01*
X499335Y306186D01*
X498804Y306717D01*
X498111Y307004D01*
D02*
G37*
G36*
X421159Y308438D02*
X420408D01*
X419715Y308151D01*
X419185Y307620D01*
X419009Y307195D01*
X418958Y307072D01*
X418958Y307072D01*
X418898Y306927D01*
X418461Y306623D01*
X418403Y306610D01*
X418129D01*
X417436Y306323D01*
X416905Y305793D01*
X416618Y305100D01*
Y304349D01*
X416905Y303656D01*
X417436Y303126D01*
X418129Y302839D01*
X418879D01*
X419572Y303126D01*
X420103Y303656D01*
X420330Y304204D01*
X420390Y304349D01*
X420845Y304666D01*
X421159D01*
X421852Y304953D01*
X422382Y305484D01*
X422669Y306177D01*
Y306927D01*
X422382Y307620D01*
X421852Y308151D01*
X421159Y308438D01*
D02*
G37*
G36*
X418879Y301886D02*
X418129D01*
X417436Y301599D01*
X416905Y301068D01*
X416618Y300375D01*
Y299625D01*
X416905Y298932D01*
X417436Y298401D01*
X418129Y298114D01*
X418879D01*
X419572Y298401D01*
X420103Y298932D01*
X420390Y299625D01*
Y300375D01*
X420103Y301068D01*
X419572Y301599D01*
X418879Y301886D01*
D02*
G37*
G36*
X496536Y298342D02*
X495786D01*
X495093Y298055D01*
X494563Y297525D01*
X494276Y296832D01*
Y296082D01*
X494563Y295389D01*
X495093Y294858D01*
X495786Y294571D01*
X496536D01*
X497230Y294858D01*
X497760Y295389D01*
X498047Y296082D01*
Y296832D01*
X497760Y297525D01*
X497230Y298055D01*
X496536Y298342D01*
D02*
G37*
G36*
X371795Y300938D02*
X371045D01*
X370352Y300651D01*
X369821Y300120D01*
X369534Y299427D01*
Y298677D01*
X369821Y297984D01*
X370291Y297514D01*
X369897Y297120D01*
X369610Y296427D01*
Y295677D01*
X369897Y294984D01*
X370428Y294453D01*
X371121Y294166D01*
X371871D01*
X372564Y294453D01*
X373095Y294984D01*
X373382Y295677D01*
Y296427D01*
X373095Y297120D01*
X372625Y297590D01*
X373019Y297984D01*
X373306Y298677D01*
Y299427D01*
X373019Y300120D01*
X372488Y300651D01*
X371795Y300938D01*
D02*
G37*
G36*
X535611Y290075D02*
X534861D01*
X534168Y289788D01*
X533638Y289257D01*
X533350Y288564D01*
Y287814D01*
X533638Y287121D01*
X534168Y286590D01*
X534861Y286303D01*
X535611D01*
X536304Y286590D01*
X536835Y287121D01*
X537122Y287814D01*
Y288564D01*
X536835Y289257D01*
X536304Y289788D01*
X535611Y290075D01*
D02*
G37*
G36*
X393060Y285561D02*
X392310D01*
X391617Y285274D01*
X391090Y284747D01*
X390606Y285231D01*
X389913Y285518D01*
X389163D01*
X388470Y285231D01*
X387939Y284700D01*
X387672Y284942D01*
X387608Y285005D01*
X386915Y285292D01*
X386165D01*
X385472Y285005D01*
X384941Y284474D01*
X384654Y283781D01*
Y283031D01*
X384941Y282338D01*
X385472Y281807D01*
X386165Y281520D01*
X386915D01*
X387608Y281807D01*
X388139Y282338D01*
X388406Y282097D01*
X388470Y282033D01*
X389163Y281746D01*
X389913D01*
X390606Y282033D01*
X391133Y282560D01*
X391617Y282076D01*
X392310Y281789D01*
X393060D01*
X393753Y282076D01*
X394284Y282607D01*
X394571Y283300D01*
Y284050D01*
X394284Y284743D01*
X393753Y285274D01*
X393060Y285561D01*
D02*
G37*
G36*
X400474Y286968D02*
X399724D01*
X399031Y286681D01*
X398500Y286151D01*
X398213Y285457D01*
Y284707D01*
X398500Y284014D01*
X399031Y283484D01*
X399724Y283196D01*
X400474D01*
X401167Y283484D01*
X401698Y284014D01*
X401985Y284707D01*
Y285457D01*
X401698Y286151D01*
X401167Y286681D01*
X400474Y286968D01*
D02*
G37*
G36*
X354706Y285350D02*
X353956D01*
X353262Y285063D01*
X352732Y284533D01*
X352445Y283840D01*
Y283089D01*
X352732Y282396D01*
X353262Y281866D01*
X353956Y281579D01*
X354706D01*
X355399Y281866D01*
X355929Y282396D01*
X356216Y283089D01*
Y283840D01*
X355929Y284533D01*
X355399Y285063D01*
X354706Y285350D01*
D02*
G37*
G36*
X342895D02*
X342144D01*
X341451Y285063D01*
X340921Y284533D01*
X340634Y283840D01*
Y283089D01*
X340921Y282396D01*
X341451Y281866D01*
X342144Y281579D01*
X342895D01*
X343588Y281866D01*
X344118Y282396D01*
X344405Y283089D01*
Y283840D01*
X344118Y284533D01*
X343588Y285063D01*
X342895Y285350D01*
D02*
G37*
G36*
X397812Y282515D02*
X397062D01*
X396369Y282228D01*
X395838Y281698D01*
X395551Y281004D01*
Y280254D01*
X395838Y279561D01*
X396369Y279031D01*
X397062Y278744D01*
X397812D01*
X398505Y279031D01*
X399036Y279561D01*
X399323Y280254D01*
Y281004D01*
X399036Y281698D01*
X398505Y282228D01*
X397812Y282515D01*
D02*
G37*
G36*
X366517Y285350D02*
X365767D01*
X365073Y285063D01*
X364543Y284533D01*
X364256Y283840D01*
Y283089D01*
X364543Y282396D01*
X365073Y281866D01*
X365399Y281731D01*
Y281189D01*
X364975Y281014D01*
X364445Y280483D01*
X364158Y279790D01*
Y279040D01*
X364445Y278347D01*
X364975Y277816D01*
X365668Y277529D01*
X366419D01*
X367112Y277816D01*
X367642Y278347D01*
X367929Y279040D01*
Y279790D01*
X367642Y280483D01*
X367112Y281014D01*
X366786Y281149D01*
Y281690D01*
X367210Y281866D01*
X367740Y282396D01*
X368027Y283089D01*
Y283840D01*
X367740Y284533D01*
X367210Y285063D01*
X366517Y285350D01*
D02*
G37*
G36*
X451950Y273539D02*
X451200D01*
X450507Y273252D01*
X449976Y272722D01*
X449689Y272029D01*
Y271278D01*
X449976Y270585D01*
X450507Y270055D01*
X451200Y269768D01*
X451950D01*
X452643Y270055D01*
X453173Y270585D01*
X453461Y271278D01*
Y272029D01*
X453173Y272722D01*
X452643Y273252D01*
X451950Y273539D01*
D02*
G37*
G36*
X413611D02*
X412861D01*
X412168Y273252D01*
X411637Y272722D01*
X411350Y272029D01*
Y271278D01*
X411637Y270585D01*
X412168Y270055D01*
X412861Y269768D01*
X413611D01*
X414304Y270055D01*
X414835Y270585D01*
X415122Y271278D01*
Y272029D01*
X414835Y272722D01*
X414304Y273252D01*
X413611Y273539D01*
D02*
G37*
G36*
X537777Y273539D02*
X537026D01*
X536333Y273252D01*
X535803Y272722D01*
X535516Y272029D01*
Y271278D01*
X535803Y270585D01*
X536333Y270055D01*
X537026Y269768D01*
X537777D01*
X538470Y270055D01*
X539000Y270585D01*
X539287Y271278D01*
Y272029D01*
X539000Y272722D01*
X538470Y273252D01*
X537777Y273539D01*
D02*
G37*
G36*
X515781Y276079D02*
X513746D01*
X511750Y275682D01*
X509870Y274903D01*
X508178Y273772D01*
X506739Y272334D01*
X505609Y270641D01*
X504830Y268761D01*
X504433Y266765D01*
Y264731D01*
X504830Y262735D01*
X505609Y260855D01*
X506739Y259163D01*
X508178Y257724D01*
X509870Y256593D01*
X511750Y255814D01*
X513746Y255417D01*
X515781D01*
X517777Y255814D01*
X519657Y256593D01*
X521349Y257724D01*
X522788Y259163D01*
X523919Y260855D01*
X524697Y262735D01*
X525095Y264731D01*
Y266765D01*
X524697Y268761D01*
X524358Y269582D01*
X524740Y269964D01*
X525215Y269768D01*
X525965D01*
X526659Y270055D01*
X527189Y270585D01*
X527476Y271278D01*
Y272029D01*
X527189Y272722D01*
X526659Y273252D01*
X525965Y273539D01*
X525215D01*
X524522Y273252D01*
X523992Y272722D01*
X523705Y272029D01*
Y271862D01*
X523205Y271710D01*
X522788Y272334D01*
X521349Y273772D01*
X519657Y274903D01*
X517777Y275682D01*
X515781Y276079D01*
D02*
G37*
G36*
X384233Y273539D02*
X383483D01*
X382790Y273252D01*
X382259Y272722D01*
X381972Y272029D01*
Y271278D01*
X382259Y270585D01*
X382790Y270055D01*
X383483Y269768D01*
X384233D01*
X384926Y270055D01*
X385457Y270585D01*
X385744Y271278D01*
Y272029D01*
X385457Y272722D01*
X384926Y273252D01*
X384233Y273539D01*
D02*
G37*
G36*
X372422D02*
X371672D01*
X370979Y273252D01*
X370448Y272722D01*
X370161Y272029D01*
Y271278D01*
X370448Y270585D01*
X370979Y270055D01*
X371672Y269768D01*
X372422D01*
X373115Y270055D01*
X373646Y270585D01*
X373933Y271278D01*
Y272029D01*
X373646Y272722D01*
X373115Y273252D01*
X372422Y273539D01*
D02*
G37*
G36*
X360611D02*
X359861D01*
X359168Y273252D01*
X358637Y272722D01*
X358350Y272029D01*
Y271278D01*
X358637Y270585D01*
X359168Y270055D01*
X359861Y269768D01*
X360611D01*
X361304Y270055D01*
X361835Y270585D01*
X362122Y271278D01*
Y272029D01*
X361835Y272722D01*
X361304Y273252D01*
X360611Y273539D01*
D02*
G37*
G36*
X348800D02*
X348050D01*
X347357Y273252D01*
X346826Y272722D01*
X346539Y272029D01*
Y271278D01*
X346826Y270585D01*
X347357Y270055D01*
X348050Y269768D01*
X348800D01*
X349493Y270055D01*
X350024Y270585D01*
X350311Y271278D01*
Y272029D01*
X350024Y272722D01*
X349493Y273252D01*
X348800Y273539D01*
D02*
G37*
G36*
X428033Y265370D02*
X427282D01*
X426589Y265083D01*
X426059Y264552D01*
X425772Y263859D01*
Y263109D01*
X426059Y262416D01*
X426589Y261885D01*
X427282Y261598D01*
X428033D01*
X428726Y261885D01*
X429256Y262416D01*
X429543Y263109D01*
Y263859D01*
X429256Y264552D01*
X428726Y265083D01*
X428033Y265370D01*
D02*
G37*
G36*
X413761Y261728D02*
X413011D01*
X412318Y261441D01*
X411787Y260911D01*
X411699Y260699D01*
X411109Y260581D01*
X410937Y260754D01*
X410004Y261292D01*
X408964Y261571D01*
X407887D01*
X406846Y261292D01*
X405913Y260754D01*
X405152Y259992D01*
X404613Y259059D01*
X404335Y258019D01*
Y256942D01*
X404613Y255901D01*
X405152Y254969D01*
X405913Y254207D01*
X406846Y253668D01*
X407887Y253390D01*
X408964D01*
X410004Y253668D01*
X410937Y254207D01*
X411698Y254969D01*
X412237Y255901D01*
X412516Y256942D01*
Y257620D01*
X413011Y257957D01*
X413761D01*
X414454Y258244D01*
X414984Y258774D01*
X415272Y259467D01*
Y260217D01*
X414984Y260911D01*
X414454Y261441D01*
X413761Y261728D01*
D02*
G37*
G36*
X531871D02*
X531121D01*
X530428Y261441D01*
X529897Y260911D01*
X529610Y260217D01*
Y259467D01*
X529897Y258774D01*
X530428Y258244D01*
X531121Y257957D01*
X531871D01*
X532564Y258244D01*
X533095Y258774D01*
X533382Y259467D01*
Y260217D01*
X533095Y260911D01*
X532564Y261441D01*
X531871Y261728D01*
D02*
G37*
G36*
X354706D02*
X353956D01*
X353262Y261441D01*
X352732Y260911D01*
X352445Y260217D01*
Y259467D01*
X352732Y258774D01*
X353262Y258244D01*
X353956Y257957D01*
X354706D01*
X355399Y258244D01*
X355929Y258774D01*
X356216Y259467D01*
Y260217D01*
X355929Y260911D01*
X355399Y261441D01*
X354706Y261728D01*
D02*
G37*
G36*
X342895D02*
X342144D01*
X341451Y261441D01*
X340921Y260911D01*
X340634Y260217D01*
Y259467D01*
X340921Y258774D01*
X341451Y258244D01*
X342144Y257957D01*
X342895D01*
X343588Y258244D01*
X344118Y258774D01*
X344405Y259467D01*
Y260217D01*
X344118Y260911D01*
X343588Y261441D01*
X342895Y261728D01*
D02*
G37*
G36*
X388936Y261358D02*
X388819D01*
Y257874D01*
X392303D01*
Y257991D01*
X392039Y258977D01*
X391528Y259861D01*
X390806Y260583D01*
X389922Y261094D01*
X388936Y261358D01*
D02*
G37*
G36*
X388032D02*
X387915D01*
X386928Y261094D01*
X386044Y260583D01*
X385322Y259861D01*
X384811Y258977D01*
X384547Y257991D01*
Y257874D01*
X388032D01*
Y261358D01*
D02*
G37*
G36*
X437383Y261433D02*
X436633D01*
X435940Y261146D01*
X435409Y260615D01*
X435122Y259922D01*
Y259172D01*
X435409Y258479D01*
X435940Y257948D01*
X436633Y257661D01*
X437383D01*
X438076Y257948D01*
X438607Y258479D01*
X438894Y259172D01*
Y259922D01*
X438607Y260615D01*
X438076Y261146D01*
X437383Y261433D01*
D02*
G37*
G36*
X441320Y259366D02*
X440570D01*
X439877Y259079D01*
X439346Y258548D01*
X439059Y257855D01*
Y257105D01*
X439346Y256412D01*
X439877Y255882D01*
X440570Y255594D01*
X441320D01*
X442013Y255882D01*
X442544Y256412D01*
X442831Y257105D01*
Y257855D01*
X442544Y258548D01*
X442013Y259079D01*
X441320Y259366D01*
D02*
G37*
G36*
X433840Y258579D02*
X433089D01*
X432396Y258292D01*
X431866Y257761D01*
X431579Y257068D01*
Y256318D01*
X431866Y255625D01*
X432396Y255094D01*
X433089Y254807D01*
X433840D01*
X434533Y255094D01*
X435063Y255625D01*
X435350Y256318D01*
Y257068D01*
X435063Y257761D01*
X434533Y258292D01*
X433840Y258579D01*
D02*
G37*
G36*
X492066Y277496D02*
X490217D01*
X488391Y277207D01*
X486632Y276635D01*
X484984Y275796D01*
X483489Y274709D01*
X482181Y273401D01*
X481094Y271905D01*
X480254Y270258D01*
X479683Y268499D01*
X479394Y266673D01*
Y264823D01*
X479683Y262997D01*
X480254Y261238D01*
X481094Y259591D01*
X482181Y258095D01*
X483489Y256787D01*
X484984Y255700D01*
X486632Y254861D01*
X488391Y254289D01*
X490217Y254000D01*
X492066D01*
X493893Y254289D01*
X495651Y254861D01*
X497299Y255700D01*
X498795Y256787D01*
X500103Y258095D01*
X501190Y259591D01*
X502029Y261238D01*
X502600Y262997D01*
X502890Y264823D01*
Y266673D01*
X502600Y268499D01*
X502029Y270258D01*
X501190Y271905D01*
X500103Y273401D01*
X498795Y274709D01*
X497299Y275796D01*
X495651Y276635D01*
X493893Y277207D01*
X492066Y277496D01*
D02*
G37*
G36*
X392303Y257087D02*
X388819D01*
Y253602D01*
X388936D01*
X389922Y253867D01*
X390806Y254377D01*
X391528Y255099D01*
X392039Y255983D01*
X392303Y256970D01*
Y257087D01*
D02*
G37*
G36*
X388032D02*
X384547D01*
Y256970D01*
X384811Y255983D01*
X385322Y255099D01*
X386044Y254377D01*
X386928Y253867D01*
X387915Y253602D01*
X388032D01*
Y257087D01*
D02*
G37*
G36*
X398964Y261571D02*
X397887D01*
X396846Y261292D01*
X395914Y260754D01*
X395152Y259992D01*
X394613Y259059D01*
X394335Y258019D01*
Y256942D01*
X394613Y255901D01*
X395152Y254969D01*
X395914Y254207D01*
X396846Y253668D01*
X397887Y253390D01*
X398964D01*
X400004Y253668D01*
X400937Y254207D01*
X401698Y254969D01*
X402237Y255901D01*
X402516Y256942D01*
Y258019D01*
X402237Y259059D01*
X401698Y259992D01*
X400937Y260754D01*
X400004Y261292D01*
X398964Y261571D01*
D02*
G37*
G36*
X392303Y251358D02*
X388819D01*
Y247874D01*
X392303D01*
Y251358D01*
D02*
G37*
G36*
X388032D02*
X384547D01*
Y247874D01*
X388032D01*
Y251358D01*
D02*
G37*
G36*
X537777Y249917D02*
X537026D01*
X536333Y249630D01*
X535803Y249100D01*
X535516Y248407D01*
Y247656D01*
X535803Y246963D01*
X536333Y246433D01*
X537026Y246146D01*
X537777D01*
X538470Y246433D01*
X539000Y246963D01*
X539287Y247656D01*
Y248407D01*
X539000Y249100D01*
X538470Y249630D01*
X537777Y249917D01*
D02*
G37*
G36*
X525965D02*
X525215D01*
X524522Y249630D01*
X523992Y249100D01*
X523705Y248407D01*
Y247656D01*
X523992Y246963D01*
X524522Y246433D01*
X525215Y246146D01*
X525965D01*
X526659Y246433D01*
X527189Y246963D01*
X527476Y247656D01*
Y248407D01*
X527189Y249100D01*
X526659Y249630D01*
X525965Y249917D01*
D02*
G37*
G36*
X514154D02*
X513404D01*
X512711Y249630D01*
X512181Y249100D01*
X511894Y248407D01*
Y247656D01*
X512181Y246963D01*
X512711Y246433D01*
X513404Y246146D01*
X514154D01*
X514848Y246433D01*
X515378Y246963D01*
X515665Y247656D01*
Y248407D01*
X515378Y249100D01*
X514848Y249630D01*
X514154Y249917D01*
D02*
G37*
G36*
X431477D02*
X430727D01*
X430034Y249630D01*
X429503Y249100D01*
X429216Y248407D01*
Y247656D01*
X429503Y246963D01*
X430034Y246433D01*
X430727Y246146D01*
X431477D01*
X432170Y246433D01*
X432701Y246963D01*
X432988Y247656D01*
Y248407D01*
X432701Y249100D01*
X432170Y249630D01*
X431477Y249917D01*
D02*
G37*
G36*
X419666D02*
X418916D01*
X418223Y249630D01*
X417693Y249100D01*
X417405Y248407D01*
Y247656D01*
X417693Y246963D01*
X418223Y246433D01*
X418916Y246146D01*
X419666D01*
X420359Y246433D01*
X420890Y246963D01*
X421177Y247656D01*
Y248407D01*
X420890Y249100D01*
X420359Y249630D01*
X419666Y249917D01*
D02*
G37*
G36*
X372422D02*
X371672D01*
X370979Y249630D01*
X370448Y249100D01*
X370161Y248407D01*
Y247656D01*
X370448Y246963D01*
X370979Y246433D01*
X371672Y246146D01*
X372422D01*
X373115Y246433D01*
X373646Y246963D01*
X373933Y247656D01*
Y248407D01*
X373646Y249100D01*
X373115Y249630D01*
X372422Y249917D01*
D02*
G37*
G36*
X360611D02*
X359861D01*
X359168Y249630D01*
X358637Y249100D01*
X358350Y248407D01*
Y247656D01*
X358637Y246963D01*
X359168Y246433D01*
X359861Y246146D01*
X360611D01*
X361304Y246433D01*
X361835Y246963D01*
X362122Y247656D01*
Y248407D01*
X361835Y249100D01*
X361304Y249630D01*
X360611Y249917D01*
D02*
G37*
G36*
X348800D02*
X348050D01*
X347357Y249630D01*
X346826Y249100D01*
X346539Y248407D01*
Y247656D01*
X346826Y246963D01*
X347357Y246433D01*
X348050Y246146D01*
X348800D01*
X349493Y246433D01*
X350024Y246963D01*
X350311Y247656D01*
Y248407D01*
X350024Y249100D01*
X349493Y249630D01*
X348800Y249917D01*
D02*
G37*
G36*
X392303Y247087D02*
X388819D01*
Y243602D01*
X392303D01*
Y247087D01*
D02*
G37*
G36*
X388032D02*
X384547D01*
Y243602D01*
X388032D01*
Y247087D01*
D02*
G37*
G36*
X408964Y251571D02*
X407887D01*
X406846Y251292D01*
X405913Y250754D01*
X405152Y249992D01*
X404613Y249059D01*
X404335Y248019D01*
Y246942D01*
X404613Y245901D01*
X405152Y244969D01*
X405913Y244207D01*
X406846Y243669D01*
X407887Y243390D01*
X408964D01*
X410004Y243669D01*
X410937Y244207D01*
X411698Y244969D01*
X412237Y245901D01*
X412516Y246942D01*
Y248019D01*
X412237Y249059D01*
X411698Y249992D01*
X410937Y250754D01*
X410004Y251292D01*
X408964Y251571D01*
D02*
G37*
G36*
X398964D02*
X397887D01*
X396846Y251292D01*
X395914Y250754D01*
X395152Y249992D01*
X394613Y249059D01*
X394335Y248019D01*
Y246942D01*
X394613Y245901D01*
X395152Y244969D01*
X395914Y244207D01*
X396846Y243669D01*
X397887Y243390D01*
X398964D01*
X400004Y243669D01*
X400937Y244207D01*
X401698Y244969D01*
X402237Y245901D01*
X402516Y246942D01*
Y248019D01*
X402237Y249059D01*
X401698Y249992D01*
X400937Y250754D01*
X400004Y251292D01*
X398964Y251571D01*
D02*
G37*
G36*
X520060Y238106D02*
X519310D01*
X518617Y237819D01*
X518086Y237289D01*
X517799Y236596D01*
Y235845D01*
X518086Y235152D01*
X518617Y234622D01*
X519310Y234335D01*
X520060D01*
X520753Y234622D01*
X521284Y235152D01*
X521571Y235845D01*
Y236596D01*
X521284Y237289D01*
X520753Y237819D01*
X520060Y238106D01*
D02*
G37*
G36*
X508249D02*
X507499D01*
X506806Y237819D01*
X506275Y237289D01*
X505988Y236596D01*
Y235845D01*
X506275Y235152D01*
X506806Y234622D01*
X507499Y234335D01*
X508249D01*
X508942Y234622D01*
X509473Y235152D01*
X509760Y235845D01*
Y236596D01*
X509473Y237289D01*
X508942Y237819D01*
X508249Y238106D01*
D02*
G37*
G36*
X496438D02*
X495688D01*
X494995Y237819D01*
X494464Y237289D01*
X494177Y236596D01*
Y235845D01*
X494464Y235152D01*
X494995Y234622D01*
X495688Y234335D01*
X496438D01*
X497131Y234622D01*
X497662Y235152D01*
X497949Y235845D01*
Y236596D01*
X497662Y237289D01*
X497131Y237819D01*
X496438Y238106D01*
D02*
G37*
G36*
X484627D02*
X483877D01*
X483184Y237819D01*
X482653Y237289D01*
X482366Y236596D01*
Y235845D01*
X482653Y235152D01*
X483184Y234622D01*
X483877Y234335D01*
X484627D01*
X485320Y234622D01*
X485850Y235152D01*
X486138Y235845D01*
Y236596D01*
X485850Y237289D01*
X485320Y237819D01*
X484627Y238106D01*
D02*
G37*
G36*
X472816D02*
X472066D01*
X471373Y237819D01*
X470842Y237289D01*
X470555Y236596D01*
Y235845D01*
X470842Y235152D01*
X471373Y234622D01*
X472066Y234335D01*
X472816D01*
X473509Y234622D01*
X474040Y235152D01*
X474327Y235845D01*
Y236596D01*
X474040Y237289D01*
X473509Y237819D01*
X472816Y238106D01*
D02*
G37*
G36*
X461005D02*
X460255D01*
X459561Y237819D01*
X459031Y237289D01*
X458744Y236596D01*
Y235845D01*
X459031Y235152D01*
X459561Y234622D01*
X460255Y234335D01*
X461005D01*
X461698Y234622D01*
X462228Y235152D01*
X462516Y235845D01*
Y236596D01*
X462228Y237289D01*
X461698Y237819D01*
X461005Y238106D01*
D02*
G37*
G36*
X449194D02*
X448444D01*
X447751Y237819D01*
X447220Y237289D01*
X446933Y236596D01*
Y235845D01*
X447220Y235152D01*
X447751Y234622D01*
X448444Y234335D01*
X449194D01*
X449887Y234622D01*
X450418Y235152D01*
X450705Y235845D01*
Y236596D01*
X450418Y237289D01*
X449887Y237819D01*
X449194Y238106D01*
D02*
G37*
G36*
X437383D02*
X436633D01*
X435940Y237819D01*
X435409Y237289D01*
X435122Y236596D01*
Y235845D01*
X435409Y235152D01*
X435940Y234622D01*
X436633Y234335D01*
X437383D01*
X438076Y234622D01*
X438607Y235152D01*
X438894Y235845D01*
Y236596D01*
X438607Y237289D01*
X438076Y237819D01*
X437383Y238106D01*
D02*
G37*
G36*
X425572D02*
X424822D01*
X424128Y237819D01*
X423598Y237289D01*
X423311Y236596D01*
Y235845D01*
X423598Y235152D01*
X424128Y234622D01*
X424822Y234335D01*
X425572D01*
X426265Y234622D01*
X426795Y235152D01*
X427082Y235845D01*
Y236596D01*
X426795Y237289D01*
X426265Y237819D01*
X425572Y238106D01*
D02*
G37*
G36*
X413761D02*
X413011D01*
X412318Y237819D01*
X411787Y237289D01*
X411500Y236596D01*
Y235845D01*
X411787Y235152D01*
X412318Y234622D01*
X413011Y234335D01*
X413761D01*
X414454Y234622D01*
X414984Y235152D01*
X415272Y235845D01*
Y236596D01*
X414984Y237289D01*
X414454Y237819D01*
X413761Y238106D01*
D02*
G37*
G36*
X401950D02*
X401200D01*
X400506Y237819D01*
X399976Y237289D01*
X399689Y236596D01*
Y235845D01*
X399976Y235152D01*
X400506Y234622D01*
X401200Y234335D01*
X401950D01*
X402643Y234622D01*
X403173Y235152D01*
X403461Y235845D01*
Y236596D01*
X403173Y237289D01*
X402643Y237819D01*
X401950Y238106D01*
D02*
G37*
G36*
X390139D02*
X389388D01*
X388695Y237819D01*
X388165Y237289D01*
X387878Y236596D01*
Y235845D01*
X388165Y235152D01*
X388695Y234622D01*
X389388Y234335D01*
X390139D01*
X390832Y234622D01*
X391362Y235152D01*
X391650Y235845D01*
Y236596D01*
X391362Y237289D01*
X390832Y237819D01*
X390139Y238106D01*
D02*
G37*
G36*
X378328D02*
X377577D01*
X376884Y237819D01*
X376354Y237289D01*
X376067Y236596D01*
Y235845D01*
X376354Y235152D01*
X376884Y234622D01*
X377577Y234335D01*
X378328D01*
X379021Y234622D01*
X379551Y235152D01*
X379838Y235845D01*
Y236596D01*
X379551Y237289D01*
X379021Y237819D01*
X378328Y238106D01*
D02*
G37*
G36*
X366517D02*
X365767D01*
X365073Y237819D01*
X364543Y237289D01*
X364256Y236596D01*
Y235845D01*
X364543Y235152D01*
X365073Y234622D01*
X365767Y234335D01*
X366517D01*
X367210Y234622D01*
X367740Y235152D01*
X368027Y235845D01*
Y236596D01*
X367740Y237289D01*
X367210Y237819D01*
X366517Y238106D01*
D02*
G37*
G36*
X354706D02*
X353956D01*
X353262Y237819D01*
X352732Y237289D01*
X352445Y236596D01*
Y235845D01*
X352732Y235152D01*
X353262Y234622D01*
X353956Y234335D01*
X354706D01*
X355399Y234622D01*
X355929Y235152D01*
X356216Y235845D01*
Y236596D01*
X355929Y237289D01*
X355399Y237819D01*
X354706Y238106D01*
D02*
G37*
G36*
X536152Y243520D02*
X534714D01*
X533304Y243239D01*
X531976Y242689D01*
X530780Y241890D01*
X529763Y240873D01*
X528965Y239678D01*
X528414Y238350D01*
X528134Y236939D01*
Y235502D01*
X528414Y234091D01*
X528965Y232763D01*
X529763Y231567D01*
X530780Y230551D01*
X531976Y229752D01*
X533304Y229202D01*
X534714Y228921D01*
X536152D01*
X537562Y229202D01*
X538891Y229752D01*
X540086Y230551D01*
X541103Y231567D01*
X541901Y232763D01*
X542452Y234091D01*
X542732Y235502D01*
Y236939D01*
X542452Y238350D01*
X541901Y239678D01*
X541103Y240873D01*
X540086Y241890D01*
X538891Y242689D01*
X537562Y243239D01*
X536152Y243520D01*
D02*
G37*
G36*
X335365D02*
X333927D01*
X332517Y243239D01*
X331188Y242689D01*
X329993Y241890D01*
X328976Y240873D01*
X328177Y239678D01*
X327627Y238350D01*
X327346Y236939D01*
Y235502D01*
X327627Y234091D01*
X328177Y232763D01*
X328976Y231567D01*
X329993Y230551D01*
X331188Y229752D01*
X332517Y229202D01*
X333927Y228921D01*
X335365D01*
X336775Y229202D01*
X338103Y229752D01*
X339299Y230551D01*
X340315Y231567D01*
X341114Y232763D01*
X341664Y234091D01*
X341945Y235502D01*
Y236939D01*
X341664Y238350D01*
X341114Y239678D01*
X340315Y240873D01*
X339299Y241890D01*
X338103Y242689D01*
X336775Y243239D01*
X335365Y243520D01*
D02*
G37*
%LPD*%
D50*
X388425Y257480D02*
D03*
D51*
Y247480D02*
D03*
D63*
X413071Y375000D02*
D03*
D67*
X443701Y289370D02*
D03*
X449606Y288189D02*
D03*
X453346Y291339D02*
D03*
X457874Y296063D02*
D03*
X463386Y275295D02*
D03*
X458465Y279921D02*
D03*
X458563Y290256D02*
D03*
X418996Y285827D02*
D03*
X447047Y292913D02*
D03*
X422539Y289173D02*
D03*
X440846Y294882D02*
D03*
X445965Y299213D02*
D03*
X454528Y285236D02*
D03*
X451772Y297441D02*
D03*
X450295Y303445D02*
D03*
X457874Y312795D02*
D03*
X456791Y302658D02*
D03*
X415158Y281890D02*
D03*
X447539Y249803D02*
D03*
X460433Y265256D02*
D03*
X456595Y260925D02*
D03*
X463681Y281693D02*
D03*
X463484Y290059D02*
D03*
X459941Y285827D02*
D03*
X454232Y307677D02*
D03*
X464370Y296358D02*
D03*
X464272Y314764D02*
D03*
X404134Y343406D02*
D03*
X398228Y343504D02*
D03*
X423228Y323721D02*
D03*
X376279Y332776D02*
D03*
X362205Y327067D02*
D03*
X453740Y383268D02*
D03*
X358760Y295177D02*
D03*
X343307Y370079D02*
D03*
M02*
