G04*
G04 #@! TF.GenerationSoftware,Altium Limited,Altium Designer,22.0.2 (36)*
G04*
G04 Layer_Physical_Order=2*
G04 Layer_Color=36540*
%FSLAX25Y25*%
%MOIN*%
G70*
G04*
G04 #@! TF.SameCoordinates,77FB473F-6002-4E98-9841-083E989A2A2F*
G04*
G04*
G04 #@! TF.FilePolarity,Positive*
G04*
G01*
G75*
%ADD50C,0.06181*%
%ADD64C,0.04134*%
%ADD66C,0.18661*%
%ADD67C,0.01772*%
G36*
X537405Y394104D02*
X539225Y393350D01*
X540863Y392256D01*
X542256Y390863D01*
X543350Y389225D01*
X544104Y387405D01*
X544488Y385473D01*
Y384488D01*
Y361277D01*
X543988Y361030D01*
X543712Y361242D01*
X542966Y361551D01*
X542165Y361656D01*
X538819D01*
X538018Y361551D01*
X537272Y361242D01*
X536632Y360750D01*
X536140Y360110D01*
X535831Y359364D01*
X535726Y358563D01*
X535831Y357762D01*
X536140Y357016D01*
X536632Y356376D01*
X537272Y355884D01*
X538018Y355575D01*
X538819Y355470D01*
X542165D01*
X542966Y355575D01*
X543712Y355884D01*
X543988Y356096D01*
X544488Y355849D01*
Y333127D01*
X543988Y332880D01*
X543712Y333092D01*
X542966Y333401D01*
X542165Y333507D01*
X538819D01*
X538018Y333401D01*
X537272Y333092D01*
X536632Y332601D01*
X536140Y331960D01*
X535831Y331214D01*
X535726Y330413D01*
X535831Y329613D01*
X536140Y328867D01*
X536632Y328226D01*
X537272Y327734D01*
X538018Y327425D01*
X538819Y327320D01*
X542165D01*
X542966Y327425D01*
X543712Y327734D01*
X543988Y327946D01*
X544488Y327700D01*
Y236870D01*
Y235885D01*
X544104Y233953D01*
X543350Y232133D01*
X542256Y230495D01*
X540863Y229103D01*
X539225Y228008D01*
X537405Y227254D01*
X535473Y226870D01*
X334901D01*
X332969Y227254D01*
X331149Y228008D01*
X329511Y229103D01*
X328118Y230495D01*
X327024Y232133D01*
X326270Y233953D01*
X325886Y235885D01*
Y236870D01*
Y243701D01*
X326279Y313484D01*
Y384488D01*
Y385473D01*
X326664Y387405D01*
X327418Y389225D01*
X328512Y390863D01*
X329905Y392256D01*
X331543Y393350D01*
X333363Y394104D01*
X335295Y394488D01*
X535473D01*
X537405Y394104D01*
D02*
G37*
%LPC*%
G36*
X454115Y385154D02*
X453365D01*
X452672Y384866D01*
X452141Y384336D01*
X451854Y383643D01*
Y382893D01*
X452141Y382200D01*
X452672Y381669D01*
X453365Y381382D01*
X454115D01*
X454808Y381669D01*
X455339Y382200D01*
X455626Y382893D01*
Y383643D01*
X455339Y384336D01*
X454808Y384866D01*
X454115Y385154D01*
D02*
G37*
G36*
X536152Y393126D02*
X534714D01*
X533304Y392846D01*
X531976Y392295D01*
X530780Y391496D01*
X529763Y390480D01*
X528965Y389284D01*
X528414Y387956D01*
X528134Y386546D01*
Y385108D01*
X528414Y383698D01*
X528965Y382369D01*
X529763Y381174D01*
X530780Y380157D01*
X531976Y379358D01*
X533304Y378808D01*
X534714Y378528D01*
X536152D01*
X537562Y378808D01*
X538891Y379358D01*
X540086Y380157D01*
X541103Y381174D01*
X541901Y382369D01*
X542452Y383698D01*
X542732Y385108D01*
Y386546D01*
X542452Y387956D01*
X541901Y389284D01*
X541103Y390480D01*
X540086Y391496D01*
X538891Y392295D01*
X537562Y392846D01*
X536152Y393126D01*
D02*
G37*
G36*
X335365D02*
X333927D01*
X332517Y392846D01*
X331188Y392295D01*
X329993Y391496D01*
X328976Y390480D01*
X328177Y389284D01*
X327627Y387956D01*
X327346Y386546D01*
Y385108D01*
X327627Y383698D01*
X328177Y382369D01*
X328976Y381174D01*
X329993Y380157D01*
X331188Y379358D01*
X332517Y378808D01*
X333927Y378528D01*
X335365D01*
X336775Y378808D01*
X338103Y379358D01*
X339299Y380157D01*
X340315Y381174D01*
X341114Y382369D01*
X341664Y383698D01*
X341945Y385108D01*
Y386546D01*
X341664Y387956D01*
X341114Y389284D01*
X340315Y390480D01*
X339299Y391496D01*
X338103Y392295D01*
X336775Y392846D01*
X335365Y393126D01*
D02*
G37*
G36*
X443465Y377850D02*
Y375394D01*
X445920D01*
X445731Y376102D01*
X445355Y376753D01*
X444823Y377284D01*
X444172Y377660D01*
X443465Y377850D01*
D02*
G37*
G36*
X442677D02*
X441969Y377660D01*
X441318Y377284D01*
X440787Y376753D01*
X440411Y376102D01*
X440221Y375394D01*
X442677D01*
Y377850D01*
D02*
G37*
G36*
X445920Y374606D02*
X443465D01*
Y372150D01*
X444172Y372340D01*
X444823Y372716D01*
X445355Y373247D01*
X445731Y373898D01*
X445920Y374606D01*
D02*
G37*
G36*
X442677D02*
X440221D01*
X440411Y373898D01*
X440787Y373247D01*
X441318Y372716D01*
X441969Y372340D01*
X442677Y372150D01*
Y374606D01*
D02*
G37*
G36*
X433475Y378067D02*
X432667D01*
X431887Y377858D01*
X431188Y377454D01*
X430617Y376883D01*
X430213Y376184D01*
X430004Y375404D01*
Y374596D01*
X430213Y373816D01*
X430617Y373117D01*
X431188Y372546D01*
X431887Y372142D01*
X432667Y371933D01*
X433475D01*
X434255Y372142D01*
X434954Y372546D01*
X435525Y373117D01*
X435929Y373816D01*
X436138Y374596D01*
Y375404D01*
X435929Y376184D01*
X435525Y376883D01*
X434954Y377454D01*
X434255Y377858D01*
X433475Y378067D01*
D02*
G37*
G36*
X423475D02*
X422667D01*
X421887Y377858D01*
X421188Y377454D01*
X420617Y376883D01*
X420213Y376184D01*
X420004Y375404D01*
Y374596D01*
X420213Y373816D01*
X420617Y373117D01*
X421188Y372546D01*
X421887Y372142D01*
X422667Y371933D01*
X423475D01*
X424255Y372142D01*
X424954Y372546D01*
X425525Y373117D01*
X425929Y373816D01*
X426138Y374596D01*
Y375404D01*
X425929Y376184D01*
X425525Y376883D01*
X424954Y377454D01*
X424255Y377858D01*
X423475Y378067D01*
D02*
G37*
G36*
X416138D02*
X410004D01*
Y371933D01*
X416138D01*
Y378067D01*
D02*
G37*
G36*
X400325D02*
X399517D01*
X398737Y377858D01*
X398038Y377454D01*
X397467Y376883D01*
X397063Y376184D01*
X396854Y375404D01*
Y374596D01*
X397063Y373816D01*
X397467Y373117D01*
X398038Y372546D01*
X398737Y372142D01*
X399517Y371933D01*
X400325D01*
X401105Y372142D01*
X401804Y372546D01*
X402375Y373117D01*
X402779Y373816D01*
X402988Y374596D01*
Y375404D01*
X402779Y376184D01*
X402375Y376883D01*
X401804Y377454D01*
X401105Y377858D01*
X400325Y378067D01*
D02*
G37*
G36*
X390325D02*
X389517D01*
X388737Y377858D01*
X388038Y377454D01*
X387467Y376883D01*
X387063Y376184D01*
X386854Y375404D01*
Y374596D01*
X387063Y373816D01*
X387467Y373117D01*
X388038Y372546D01*
X388737Y372142D01*
X389517Y371933D01*
X390325D01*
X391105Y372142D01*
X391804Y372546D01*
X392375Y373117D01*
X392779Y373816D01*
X392988Y374596D01*
Y375404D01*
X392779Y376184D01*
X392375Y376883D01*
X391804Y377454D01*
X391105Y377858D01*
X390325Y378067D01*
D02*
G37*
G36*
X380325D02*
X379517D01*
X378737Y377858D01*
X378038Y377454D01*
X377467Y376883D01*
X377063Y376184D01*
X376854Y375404D01*
Y374596D01*
X377063Y373816D01*
X377467Y373117D01*
X378038Y372546D01*
X378737Y372142D01*
X379517Y371933D01*
X380325D01*
X381105Y372142D01*
X381804Y372546D01*
X382375Y373117D01*
X382779Y373816D01*
X382988Y374596D01*
Y375404D01*
X382779Y376184D01*
X382375Y376883D01*
X381804Y377454D01*
X381105Y377858D01*
X380325Y378067D01*
D02*
G37*
G36*
X372988D02*
X366854D01*
Y371933D01*
X372988D01*
Y378067D01*
D02*
G37*
G36*
X343682Y371965D02*
X342932D01*
X342239Y371677D01*
X341708Y371147D01*
X341421Y370454D01*
Y369704D01*
X341708Y369010D01*
X342239Y368480D01*
X342932Y368193D01*
X343682D01*
X344375Y368480D01*
X344906Y369010D01*
X345193Y369704D01*
Y370454D01*
X344906Y371147D01*
X344375Y371677D01*
X343682Y371965D01*
D02*
G37*
G36*
X476753Y370783D02*
X476003D01*
X475310Y370496D01*
X474779Y369966D01*
X474492Y369273D01*
Y368523D01*
X474779Y367829D01*
X475310Y367299D01*
X476003Y367012D01*
X476753D01*
X477446Y367299D01*
X477977Y367829D01*
X478264Y368523D01*
Y369273D01*
X477977Y369966D01*
X477446Y370496D01*
X476753Y370783D01*
D02*
G37*
G36*
X426753Y368421D02*
X426003D01*
X425310Y368134D01*
X424779Y367604D01*
X424492Y366911D01*
Y366160D01*
X424779Y365467D01*
X425310Y364937D01*
X426003Y364650D01*
X426753D01*
X427446Y364937D01*
X427977Y365467D01*
X428264Y366160D01*
Y366911D01*
X427977Y367604D01*
X427446Y368134D01*
X426753Y368421D01*
D02*
G37*
G36*
X430107Y365272D02*
X429357D01*
X428664Y364984D01*
X428134Y364454D01*
X427846Y363761D01*
Y363011D01*
X428134Y362318D01*
X428664Y361787D01*
X429357Y361500D01*
X430107D01*
X430800Y361787D01*
X431331Y362318D01*
X431618Y363011D01*
Y363761D01*
X431331Y364454D01*
X430800Y364984D01*
X430107Y365272D01*
D02*
G37*
G36*
X396832Y363303D02*
X396082D01*
X395389Y363016D01*
X394858Y362486D01*
X394571Y361792D01*
Y361042D01*
X394858Y360349D01*
X395389Y359819D01*
X396082Y359531D01*
X396832D01*
X397525Y359819D01*
X398055Y360349D01*
X398342Y361042D01*
Y361792D01*
X398055Y362486D01*
X397525Y363016D01*
X396832Y363303D01*
D02*
G37*
G36*
X392895Y360941D02*
X392145D01*
X391452Y360654D01*
X390921Y360123D01*
X390634Y359430D01*
Y358680D01*
X390921Y357987D01*
X391452Y357456D01*
X392145Y357169D01*
X392895D01*
X393588Y357456D01*
X394118Y357987D01*
X394406Y358680D01*
Y359430D01*
X394118Y360123D01*
X393588Y360654D01*
X392895Y360941D01*
D02*
G37*
G36*
X388958Y358579D02*
X388208D01*
X387514Y358292D01*
X386984Y357761D01*
X386697Y357068D01*
Y356387D01*
X386492Y356173D01*
X386278Y356022D01*
X385808Y356217D01*
X385058D01*
X384365Y355929D01*
X383834Y355399D01*
X383547Y354706D01*
Y353956D01*
X383834Y353262D01*
X384365Y352732D01*
X385058Y352445D01*
X385808D01*
X386501Y352732D01*
X387032Y353262D01*
X387319Y353956D01*
Y354637D01*
X387523Y354850D01*
X387737Y355002D01*
X388208Y354807D01*
X388958D01*
X389651Y355094D01*
X390181Y355625D01*
X390469Y356318D01*
Y357068D01*
X390181Y357761D01*
X389651Y358292D01*
X388958Y358579D01*
D02*
G37*
G36*
X355493Y348342D02*
X354743D01*
X354050Y348055D01*
X353519Y347525D01*
X353232Y346832D01*
Y346082D01*
X353519Y345389D01*
X354050Y344858D01*
X354743Y344571D01*
X355493D01*
X356186Y344858D01*
X356717Y345389D01*
X357004Y346082D01*
Y346832D01*
X356717Y347525D01*
X356186Y348055D01*
X355493Y348342D01*
D02*
G37*
G36*
X398604Y345390D02*
X397853D01*
X397160Y345103D01*
X396630Y344572D01*
X396342Y343879D01*
Y343129D01*
X396630Y342436D01*
X397160Y341905D01*
X397853Y341618D01*
X398604D01*
X399297Y341905D01*
X399827Y342436D01*
X400114Y343129D01*
Y343879D01*
X399827Y344572D01*
X399297Y345103D01*
X398604Y345390D01*
D02*
G37*
G36*
X404509Y345291D02*
X403759D01*
X403066Y345004D01*
X402535Y344474D01*
X402248Y343781D01*
Y343030D01*
X402535Y342337D01*
X403066Y341807D01*
X403759Y341520D01*
X404509D01*
X405202Y341807D01*
X405733Y342337D01*
X406020Y343030D01*
Y343781D01*
X405733Y344474D01*
X405202Y345004D01*
X404509Y345291D01*
D02*
G37*
G36*
X379509Y341650D02*
X378759D01*
X378066Y341363D01*
X377535Y340832D01*
X377248Y340139D01*
Y339389D01*
X377535Y338696D01*
X378066Y338165D01*
X378759Y337878D01*
X379509D01*
X380202Y338165D01*
X380733Y338696D01*
X381020Y339389D01*
Y340139D01*
X380733Y340832D01*
X380202Y341363D01*
X379509Y341650D01*
D02*
G37*
G36*
X376655Y334661D02*
X375904D01*
X375211Y334374D01*
X374681Y333844D01*
X374394Y333151D01*
Y332400D01*
X374681Y331707D01*
X375211Y331177D01*
X375904Y330890D01*
X376655D01*
X377348Y331177D01*
X377878Y331707D01*
X378165Y332400D01*
Y333151D01*
X377878Y333844D01*
X377348Y334374D01*
X376655Y334661D01*
D02*
G37*
G36*
X351163Y333382D02*
X350412D01*
X349719Y333095D01*
X349189Y332564D01*
X348902Y331871D01*
Y331121D01*
X349189Y330428D01*
X349719Y329897D01*
X350412Y329610D01*
X351163D01*
X351856Y329897D01*
X352386Y330428D01*
X352673Y331121D01*
Y331871D01*
X352386Y332564D01*
X351856Y333095D01*
X351163Y333382D01*
D02*
G37*
G36*
X393615Y332152D02*
X392865D01*
X392172Y331865D01*
X391641Y331334D01*
X391354Y330641D01*
Y329891D01*
X391641Y329198D01*
X392172Y328667D01*
X392865Y328380D01*
X393615D01*
X394308Y328667D01*
X394839Y329198D01*
X395126Y329891D01*
Y330641D01*
X394839Y331334D01*
X394308Y331865D01*
X393615Y332152D01*
D02*
G37*
G36*
X398174Y332001D02*
X397424D01*
X396731Y331714D01*
X396200Y331184D01*
X395913Y330491D01*
Y329740D01*
X396200Y329047D01*
X396731Y328517D01*
X397424Y328230D01*
X398174D01*
X398867Y328517D01*
X399398Y329047D01*
X399685Y329740D01*
Y330491D01*
X399398Y331184D01*
X398867Y331714D01*
X398174Y332001D01*
D02*
G37*
G36*
X362580Y328953D02*
X361830D01*
X361137Y328666D01*
X360606Y328135D01*
X360319Y327442D01*
Y326692D01*
X360606Y325999D01*
X361137Y325468D01*
X361830Y325181D01*
X362580D01*
X363273Y325468D01*
X363803Y325999D01*
X364090Y326692D01*
Y327442D01*
X363803Y328135D01*
X363273Y328666D01*
X362580Y328953D01*
D02*
G37*
G36*
X423603Y325606D02*
X422853D01*
X422160Y325319D01*
X421630Y324789D01*
X421343Y324096D01*
Y323345D01*
X421630Y322652D01*
X422160Y322122D01*
X422853Y321835D01*
X423603D01*
X424297Y322122D01*
X424827Y322652D01*
X425114Y323345D01*
Y324096D01*
X424827Y324789D01*
X424297Y325319D01*
X423603Y325606D01*
D02*
G37*
G36*
X464647Y316650D02*
X463897D01*
X463203Y316363D01*
X462673Y315832D01*
X462386Y315139D01*
Y314389D01*
X462673Y313696D01*
X463203Y313165D01*
X463897Y312878D01*
X464647D01*
X465340Y313165D01*
X465870Y313696D01*
X466157Y314389D01*
Y315139D01*
X465870Y315832D01*
X465340Y316363D01*
X464647Y316650D01*
D02*
G37*
G36*
X458249Y314681D02*
X457499D01*
X456806Y314394D01*
X456275Y313863D01*
X455988Y313170D01*
Y312420D01*
X456275Y311727D01*
X456806Y311197D01*
X457499Y310910D01*
X458249D01*
X458942Y311197D01*
X459473Y311727D01*
X459760Y312420D01*
Y313170D01*
X459473Y313863D01*
X458942Y314394D01*
X458249Y314681D01*
D02*
G37*
G36*
X454607Y309563D02*
X453857D01*
X453164Y309276D01*
X452634Y308745D01*
X452347Y308052D01*
Y307302D01*
X452634Y306609D01*
X453164Y306079D01*
X453857Y305791D01*
X454607D01*
X455301Y306079D01*
X455831Y306609D01*
X456118Y307302D01*
Y308052D01*
X455831Y308745D01*
X455301Y309276D01*
X454607Y309563D01*
D02*
G37*
G36*
X421159Y308438D02*
X420408D01*
X419715Y308151D01*
X419185Y307620D01*
X419009Y307195D01*
X418958Y307072D01*
X418958Y307072D01*
X418898Y306927D01*
X418461Y306623D01*
X418403Y306610D01*
X418129D01*
X417436Y306323D01*
X416905Y305793D01*
X416618Y305100D01*
Y304349D01*
X416905Y303656D01*
X417436Y303126D01*
X418129Y302839D01*
X418879D01*
X419572Y303126D01*
X420103Y303656D01*
X420330Y304204D01*
X420390Y304349D01*
X420845Y304666D01*
X421159D01*
X421852Y304953D01*
X422382Y305484D01*
X422669Y306177D01*
Y306927D01*
X422382Y307620D01*
X421852Y308151D01*
X421159Y308438D01*
D02*
G37*
G36*
X450670Y305331D02*
X449920D01*
X449227Y305044D01*
X448697Y304513D01*
X448410Y303820D01*
Y303070D01*
X448697Y302377D01*
X449227Y301846D01*
X449920Y301559D01*
X450670D01*
X451364Y301846D01*
X451894Y302377D01*
X452181Y303070D01*
Y303820D01*
X451894Y304513D01*
X451364Y305044D01*
X450670Y305331D01*
D02*
G37*
G36*
X457166Y304543D02*
X456416D01*
X455723Y304256D01*
X455193Y303726D01*
X454906Y303033D01*
Y302282D01*
X455193Y301589D01*
X455723Y301059D01*
X456416Y300772D01*
X457166D01*
X457860Y301059D01*
X458390Y301589D01*
X458677Y302282D01*
Y303033D01*
X458390Y303726D01*
X457860Y304256D01*
X457166Y304543D01*
D02*
G37*
G36*
X418879Y301886D02*
X418129D01*
X417436Y301599D01*
X416905Y301068D01*
X416618Y300375D01*
Y299625D01*
X416905Y298932D01*
X417436Y298401D01*
X418129Y298114D01*
X418879D01*
X419572Y298401D01*
X420103Y298932D01*
X420390Y299625D01*
Y300375D01*
X420103Y301068D01*
X419572Y301599D01*
X418879Y301886D01*
D02*
G37*
G36*
X446340Y301098D02*
X445589D01*
X444896Y300811D01*
X444366Y300281D01*
X444079Y299588D01*
Y298837D01*
X444366Y298144D01*
X444896Y297614D01*
X445589Y297327D01*
X446340D01*
X447033Y297614D01*
X447563Y298144D01*
X447850Y298837D01*
Y299588D01*
X447563Y300281D01*
X447033Y300811D01*
X446340Y301098D01*
D02*
G37*
G36*
X452147Y299327D02*
X451397D01*
X450703Y299040D01*
X450173Y298509D01*
X449886Y297816D01*
Y297066D01*
X450173Y296373D01*
X450703Y295842D01*
X451397Y295555D01*
X452147D01*
X452840Y295842D01*
X453370Y296373D01*
X453657Y297066D01*
Y297816D01*
X453370Y298509D01*
X452840Y299040D01*
X452147Y299327D01*
D02*
G37*
G36*
X464745Y298244D02*
X463995D01*
X463302Y297957D01*
X462771Y297427D01*
X462484Y296733D01*
Y295983D01*
X462771Y295290D01*
X463302Y294759D01*
X463995Y294472D01*
X464745D01*
X465438Y294759D01*
X465969Y295290D01*
X466256Y295983D01*
Y296733D01*
X465969Y297427D01*
X465438Y297957D01*
X464745Y298244D01*
D02*
G37*
G36*
X458249Y297949D02*
X457499D01*
X456806Y297662D01*
X456275Y297131D01*
X455988Y296438D01*
Y295688D01*
X456275Y294995D01*
X456806Y294464D01*
X457499Y294177D01*
X458249D01*
X458942Y294464D01*
X459473Y294995D01*
X459760Y295688D01*
Y296438D01*
X459473Y297131D01*
X458942Y297662D01*
X458249Y297949D01*
D02*
G37*
G36*
X371795Y300938D02*
X371045D01*
X370352Y300651D01*
X369821Y300120D01*
X369534Y299427D01*
Y298677D01*
X369821Y297984D01*
X370291Y297514D01*
X369897Y297120D01*
X369610Y296427D01*
Y295677D01*
X369897Y294984D01*
X370428Y294453D01*
X371121Y294166D01*
X371871D01*
X372564Y294453D01*
X373095Y294984D01*
X373382Y295677D01*
Y296427D01*
X373095Y297120D01*
X372625Y297590D01*
X373019Y297984D01*
X373306Y298677D01*
Y299427D01*
X373019Y300120D01*
X372488Y300651D01*
X371795Y300938D01*
D02*
G37*
G36*
X359135Y297063D02*
X358385D01*
X357692Y296776D01*
X357161Y296245D01*
X356874Y295552D01*
Y294802D01*
X357161Y294109D01*
X357692Y293579D01*
X358385Y293291D01*
X359135D01*
X359828Y293579D01*
X360359Y294109D01*
X360646Y294802D01*
Y295552D01*
X360359Y296245D01*
X359828Y296776D01*
X359135Y297063D01*
D02*
G37*
G36*
X441222Y296768D02*
X440471D01*
X439778Y296481D01*
X439248Y295950D01*
X438961Y295257D01*
Y294507D01*
X439248Y293814D01*
X439778Y293283D01*
X440471Y292996D01*
X441222D01*
X441915Y293283D01*
X442445Y293814D01*
X442732Y294507D01*
Y295257D01*
X442445Y295950D01*
X441915Y296481D01*
X441222Y296768D01*
D02*
G37*
G36*
X447422Y294799D02*
X446672D01*
X445979Y294512D01*
X445448Y293982D01*
X445161Y293288D01*
Y292538D01*
X445448Y291845D01*
X445979Y291315D01*
X446672Y291028D01*
X447422D01*
X448115Y291315D01*
X448646Y291845D01*
X448933Y292538D01*
Y293288D01*
X448646Y293982D01*
X448115Y294512D01*
X447422Y294799D01*
D02*
G37*
G36*
X453722Y293224D02*
X452971D01*
X452278Y292937D01*
X451748Y292407D01*
X451461Y291714D01*
Y290964D01*
X451748Y290270D01*
X452278Y289740D01*
X452971Y289453D01*
X453722D01*
X454415Y289740D01*
X454945Y290270D01*
X455232Y290964D01*
Y291714D01*
X454945Y292407D01*
X454415Y292937D01*
X453722Y293224D01*
D02*
G37*
G36*
X458938Y292142D02*
X458188D01*
X457495Y291855D01*
X456964Y291324D01*
X456677Y290631D01*
Y289881D01*
X456964Y289188D01*
X457495Y288657D01*
X458188Y288370D01*
X458938D01*
X459631Y288657D01*
X460162Y289188D01*
X460449Y289881D01*
Y290631D01*
X460162Y291324D01*
X459631Y291855D01*
X458938Y292142D01*
D02*
G37*
G36*
X463859Y291945D02*
X463109D01*
X462416Y291658D01*
X461885Y291127D01*
X461598Y290434D01*
Y289684D01*
X461885Y288991D01*
X462416Y288460D01*
X463109Y288173D01*
X463859D01*
X464552Y288460D01*
X465083Y288991D01*
X465370Y289684D01*
Y290434D01*
X465083Y291127D01*
X464552Y291658D01*
X463859Y291945D01*
D02*
G37*
G36*
X444076Y291256D02*
X443326D01*
X442633Y290969D01*
X442102Y290438D01*
X441815Y289745D01*
Y288995D01*
X442102Y288302D01*
X442633Y287771D01*
X443326Y287484D01*
X444076D01*
X444769Y287771D01*
X445299Y288302D01*
X445587Y288995D01*
Y289745D01*
X445299Y290438D01*
X444769Y290969D01*
X444076Y291256D01*
D02*
G37*
G36*
X422915Y291059D02*
X422164D01*
X421471Y290772D01*
X420941Y290242D01*
X420653Y289548D01*
Y288798D01*
X420941Y288105D01*
X421471Y287575D01*
X422164Y287287D01*
X422915D01*
X423608Y287575D01*
X424138Y288105D01*
X424425Y288798D01*
Y289548D01*
X424138Y290242D01*
X423608Y290772D01*
X422915Y291059D01*
D02*
G37*
G36*
X449981Y290075D02*
X449231D01*
X448538Y289788D01*
X448008Y289257D01*
X447720Y288564D01*
Y287814D01*
X448008Y287121D01*
X448538Y286590D01*
X449231Y286303D01*
X449981D01*
X450674Y286590D01*
X451205Y287121D01*
X451492Y287814D01*
Y288564D01*
X451205Y289257D01*
X450674Y289788D01*
X449981Y290075D01*
D02*
G37*
G36*
X393060Y285561D02*
X392310D01*
X391617Y285274D01*
X391090Y284747D01*
X390606Y285231D01*
X389913Y285518D01*
X389163D01*
X388470Y285231D01*
X387939Y284700D01*
X387672Y284942D01*
X387608Y285005D01*
X386915Y285292D01*
X386165D01*
X385472Y285005D01*
X384941Y284474D01*
X384654Y283781D01*
Y283031D01*
X384941Y282338D01*
X385472Y281807D01*
X386165Y281520D01*
X386915D01*
X387608Y281807D01*
X388139Y282338D01*
X388406Y282097D01*
X388470Y282033D01*
X389163Y281746D01*
X389913D01*
X390606Y282033D01*
X391133Y282560D01*
X391617Y282076D01*
X392310Y281789D01*
X393060D01*
X393753Y282076D01*
X394284Y282607D01*
X394571Y283300D01*
Y284050D01*
X394284Y284743D01*
X393753Y285274D01*
X393060Y285561D01*
D02*
G37*
G36*
X460316Y287713D02*
X459566D01*
X458873Y287425D01*
X458342Y286895D01*
X458055Y286202D01*
Y285452D01*
X458342Y284758D01*
X458873Y284228D01*
X459566Y283941D01*
X460316D01*
X461009Y284228D01*
X461540Y284758D01*
X461827Y285452D01*
Y286202D01*
X461540Y286895D01*
X461009Y287425D01*
X460316Y287713D01*
D02*
G37*
G36*
X419371D02*
X418621D01*
X417928Y287425D01*
X417397Y286895D01*
X417110Y286202D01*
Y285452D01*
X417397Y284758D01*
X417928Y284228D01*
X418621Y283941D01*
X419371D01*
X420064Y284228D01*
X420595Y284758D01*
X420882Y285452D01*
Y286202D01*
X420595Y286895D01*
X420064Y287425D01*
X419371Y287713D01*
D02*
G37*
G36*
X454903Y287122D02*
X454152D01*
X453459Y286835D01*
X452929Y286304D01*
X452642Y285611D01*
Y284861D01*
X452929Y284168D01*
X453459Y283637D01*
X454152Y283350D01*
X454903D01*
X455596Y283637D01*
X456126Y284168D01*
X456413Y284861D01*
Y285611D01*
X456126Y286304D01*
X455596Y286835D01*
X454903Y287122D01*
D02*
G37*
G36*
X400474Y286968D02*
X399724D01*
X399031Y286681D01*
X398500Y286151D01*
X398213Y285457D01*
Y284707D01*
X398500Y284014D01*
X399031Y283484D01*
X399724Y283196D01*
X400474D01*
X401167Y283484D01*
X401698Y284014D01*
X401985Y284707D01*
Y285457D01*
X401698Y286151D01*
X401167Y286681D01*
X400474Y286968D01*
D02*
G37*
G36*
X415533Y283776D02*
X414782D01*
X414089Y283488D01*
X413559Y282958D01*
X413272Y282265D01*
Y281515D01*
X413559Y280821D01*
X414089Y280291D01*
X414782Y280004D01*
X415533D01*
X416226Y280291D01*
X416756Y280821D01*
X417043Y281515D01*
Y282265D01*
X416756Y282958D01*
X416226Y283488D01*
X415533Y283776D01*
D02*
G37*
G36*
X464056Y283579D02*
X463306D01*
X462613Y283292D01*
X462082Y282761D01*
X461795Y282068D01*
Y281318D01*
X462082Y280625D01*
X462613Y280094D01*
X463306Y279807D01*
X464056D01*
X464749Y280094D01*
X465280Y280625D01*
X465567Y281318D01*
Y282068D01*
X465280Y282761D01*
X464749Y283292D01*
X464056Y283579D01*
D02*
G37*
G36*
X397812Y282515D02*
X397062D01*
X396369Y282228D01*
X395838Y281698D01*
X395551Y281004D01*
Y280254D01*
X395838Y279561D01*
X396369Y279031D01*
X397062Y278744D01*
X397812D01*
X398505Y279031D01*
X399036Y279561D01*
X399323Y280254D01*
Y281004D01*
X399036Y281698D01*
X398505Y282228D01*
X397812Y282515D01*
D02*
G37*
G36*
X458840Y281807D02*
X458089D01*
X457396Y281520D01*
X456866Y280990D01*
X456579Y280296D01*
Y279546D01*
X456866Y278853D01*
X457396Y278323D01*
X458089Y278035D01*
X458840D01*
X459533Y278323D01*
X460063Y278853D01*
X460350Y279546D01*
Y280296D01*
X460063Y280990D01*
X459533Y281520D01*
X458840Y281807D01*
D02*
G37*
G36*
X366419Y281301D02*
X365668D01*
X364975Y281014D01*
X364445Y280483D01*
X364158Y279790D01*
Y279040D01*
X364445Y278347D01*
X364975Y277816D01*
X365668Y277529D01*
X366419D01*
X367112Y277816D01*
X367642Y278347D01*
X367929Y279040D01*
Y279790D01*
X367642Y280483D01*
X367112Y281014D01*
X366419Y281301D01*
D02*
G37*
G36*
X463761Y277181D02*
X463011D01*
X462318Y276894D01*
X461787Y276363D01*
X461500Y275670D01*
Y274920D01*
X461787Y274227D01*
X462318Y273697D01*
X463011Y273410D01*
X463761D01*
X464454Y273697D01*
X464985Y274227D01*
X465272Y274920D01*
Y275670D01*
X464985Y276363D01*
X464454Y276894D01*
X463761Y277181D01*
D02*
G37*
G36*
X451950Y273539D02*
X451200D01*
X450507Y273252D01*
X449976Y272722D01*
X449689Y272029D01*
Y271278D01*
X449976Y270585D01*
X450507Y270055D01*
X451200Y269768D01*
X451950D01*
X452643Y270055D01*
X453173Y270585D01*
X453461Y271278D01*
Y272029D01*
X453173Y272722D01*
X452643Y273252D01*
X451950Y273539D01*
D02*
G37*
G36*
X413611D02*
X412861D01*
X412168Y273252D01*
X411637Y272722D01*
X411350Y272029D01*
Y271278D01*
X411637Y270585D01*
X412168Y270055D01*
X412861Y269768D01*
X413611D01*
X414304Y270055D01*
X414835Y270585D01*
X415122Y271278D01*
Y272029D01*
X414835Y272722D01*
X414304Y273252D01*
X413611Y273539D01*
D02*
G37*
G36*
X515781Y276079D02*
X515748D01*
Y266732D01*
X525095D01*
Y266765D01*
X524697Y268761D01*
X523919Y270641D01*
X522788Y272334D01*
X521349Y273772D01*
X519657Y274903D01*
X517777Y275682D01*
X515781Y276079D01*
D02*
G37*
G36*
X513779D02*
X513746D01*
X511750Y275682D01*
X509870Y274903D01*
X508178Y273772D01*
X506739Y272334D01*
X505609Y270641D01*
X504830Y268761D01*
X504433Y266765D01*
Y266732D01*
X513779D01*
Y276079D01*
D02*
G37*
G36*
X460808Y267142D02*
X460058D01*
X459365Y266855D01*
X458834Y266324D01*
X458547Y265631D01*
Y264881D01*
X458834Y264188D01*
X459365Y263657D01*
X460058Y263370D01*
X460808D01*
X461501Y263657D01*
X462032Y264188D01*
X462319Y264881D01*
Y265631D01*
X462032Y266324D01*
X461501Y266855D01*
X460808Y267142D01*
D02*
G37*
G36*
X456970Y262811D02*
X456219D01*
X455526Y262524D01*
X454996Y261993D01*
X454709Y261300D01*
Y260550D01*
X454996Y259857D01*
X455526Y259327D01*
X456219Y259039D01*
X456970D01*
X457663Y259327D01*
X458193Y259857D01*
X458480Y260550D01*
Y261300D01*
X458193Y261993D01*
X457663Y262524D01*
X456970Y262811D01*
D02*
G37*
G36*
X408936Y261358D02*
X408819D01*
Y257874D01*
X412303D01*
Y257991D01*
X412039Y258977D01*
X411528Y259861D01*
X410806Y260583D01*
X409922Y261094D01*
X408936Y261358D01*
D02*
G37*
G36*
X408032D02*
X407915D01*
X406928Y261094D01*
X406044Y260583D01*
X405322Y259861D01*
X404811Y258977D01*
X404547Y257991D01*
Y257874D01*
X408032D01*
Y261358D01*
D02*
G37*
G36*
X441320Y259366D02*
X440570D01*
X439877Y259079D01*
X439346Y258548D01*
X439059Y257855D01*
Y257105D01*
X439346Y256412D01*
X439877Y255882D01*
X440570Y255594D01*
X441320D01*
X442013Y255882D01*
X442544Y256412D01*
X442831Y257105D01*
Y257855D01*
X442544Y258548D01*
X442013Y259079D01*
X441320Y259366D01*
D02*
G37*
G36*
X525095Y264764D02*
X515748D01*
Y255417D01*
X515781D01*
X517777Y255814D01*
X519657Y256593D01*
X521349Y257724D01*
X522788Y259163D01*
X523919Y260855D01*
X524697Y262735D01*
X525095Y264731D01*
Y264764D01*
D02*
G37*
G36*
X513779D02*
X504433D01*
Y264731D01*
X504830Y262735D01*
X505609Y260855D01*
X506739Y259163D01*
X508178Y257724D01*
X509870Y256593D01*
X511750Y255814D01*
X513746Y255417D01*
X513779D01*
Y264764D01*
D02*
G37*
G36*
X433840Y258579D02*
X433089D01*
X432396Y258292D01*
X431866Y257761D01*
X431579Y257068D01*
Y256318D01*
X431866Y255625D01*
X432396Y255094D01*
X433089Y254807D01*
X433840D01*
X434533Y255094D01*
X435063Y255625D01*
X435350Y256318D01*
Y257068D01*
X435063Y257761D01*
X434533Y258292D01*
X433840Y258579D01*
D02*
G37*
G36*
X492066Y277496D02*
X490217D01*
X488391Y277207D01*
X486632Y276635D01*
X484984Y275796D01*
X483489Y274709D01*
X482181Y273401D01*
X481094Y271905D01*
X480254Y270258D01*
X479683Y268499D01*
X479394Y266673D01*
Y264823D01*
X479683Y262997D01*
X480254Y261238D01*
X481094Y259591D01*
X482181Y258095D01*
X483489Y256787D01*
X484984Y255700D01*
X486632Y254861D01*
X488391Y254289D01*
X490217Y254000D01*
X492066D01*
X493893Y254289D01*
X495651Y254861D01*
X497299Y255700D01*
X498795Y256787D01*
X500103Y258095D01*
X501190Y259591D01*
X502029Y261238D01*
X502600Y262997D01*
X502890Y264823D01*
Y266673D01*
X502600Y268499D01*
X502029Y270258D01*
X501190Y271905D01*
X500103Y273401D01*
X498795Y274709D01*
X497299Y275796D01*
X495651Y276635D01*
X493893Y277207D01*
X492066Y277496D01*
D02*
G37*
G36*
X412303Y257087D02*
X408819D01*
Y253602D01*
X408936D01*
X409922Y253867D01*
X410806Y254377D01*
X411528Y255099D01*
X412039Y255983D01*
X412303Y256970D01*
Y257087D01*
D02*
G37*
G36*
X408032D02*
X404547D01*
Y256970D01*
X404811Y255983D01*
X405322Y255099D01*
X406044Y254377D01*
X406928Y253867D01*
X407915Y253602D01*
X408032D01*
Y257087D01*
D02*
G37*
G36*
X398964Y261571D02*
X397887D01*
X396846Y261292D01*
X395914Y260754D01*
X395152Y259992D01*
X394613Y259059D01*
X394335Y258019D01*
Y256942D01*
X394613Y255901D01*
X395152Y254969D01*
X395914Y254207D01*
X396846Y253668D01*
X397887Y253390D01*
X398964D01*
X400004Y253668D01*
X400937Y254207D01*
X401698Y254969D01*
X402237Y255901D01*
X402516Y256942D01*
Y258019D01*
X402237Y259059D01*
X401698Y259992D01*
X400937Y260754D01*
X400004Y261292D01*
X398964Y261571D01*
D02*
G37*
G36*
X388964D02*
X387887D01*
X386846Y261292D01*
X385913Y260754D01*
X385152Y259992D01*
X384613Y259059D01*
X384335Y258019D01*
Y256942D01*
X384613Y255901D01*
X385152Y254969D01*
X385913Y254207D01*
X386846Y253668D01*
X387887Y253390D01*
X388964D01*
X390004Y253668D01*
X390937Y254207D01*
X391699Y254969D01*
X392237Y255901D01*
X392516Y256942D01*
Y258019D01*
X392237Y259059D01*
X391699Y259992D01*
X390937Y260754D01*
X390004Y261292D01*
X388964Y261571D01*
D02*
G37*
G36*
X447915Y251689D02*
X447164D01*
X446471Y251402D01*
X445941Y250871D01*
X445653Y250178D01*
Y249428D01*
X445941Y248735D01*
X446471Y248204D01*
X447164Y247917D01*
X447915D01*
X448608Y248204D01*
X449138Y248735D01*
X449425Y249428D01*
Y250178D01*
X449138Y250871D01*
X448608Y251402D01*
X447915Y251689D01*
D02*
G37*
G36*
X408936Y251358D02*
X408819D01*
Y247874D01*
X412303D01*
Y247991D01*
X412039Y248977D01*
X411528Y249861D01*
X410806Y250583D01*
X409922Y251094D01*
X408936Y251358D01*
D02*
G37*
G36*
X408032D02*
X407915D01*
X406928Y251094D01*
X406044Y250583D01*
X405322Y249861D01*
X404811Y248977D01*
X404547Y247991D01*
Y247874D01*
X408032D01*
Y251358D01*
D02*
G37*
G36*
X412303Y247087D02*
X408819D01*
Y243602D01*
X408936D01*
X409922Y243867D01*
X410806Y244377D01*
X411528Y245099D01*
X412039Y245984D01*
X412303Y246970D01*
Y247087D01*
D02*
G37*
G36*
X408032D02*
X404547D01*
Y246970D01*
X404811Y245984D01*
X405322Y245099D01*
X406044Y244377D01*
X406928Y243867D01*
X407915Y243602D01*
X408032D01*
Y247087D01*
D02*
G37*
G36*
X398964Y251571D02*
X397887D01*
X396846Y251292D01*
X395914Y250754D01*
X395152Y249992D01*
X394613Y249059D01*
X394335Y248019D01*
Y246942D01*
X394613Y245901D01*
X395152Y244969D01*
X395914Y244207D01*
X396846Y243669D01*
X397887Y243390D01*
X398964D01*
X400004Y243669D01*
X400937Y244207D01*
X401698Y244969D01*
X402237Y245901D01*
X402516Y246942D01*
Y248019D01*
X402237Y249059D01*
X401698Y249992D01*
X400937Y250754D01*
X400004Y251292D01*
X398964Y251571D01*
D02*
G37*
G36*
X392516D02*
X384335D01*
Y243390D01*
X392516D01*
Y251571D01*
D02*
G37*
G36*
X536152Y243520D02*
X534714D01*
X533304Y243239D01*
X531976Y242689D01*
X530780Y241890D01*
X529763Y240873D01*
X528965Y239678D01*
X528414Y238350D01*
X528134Y236939D01*
Y235502D01*
X528414Y234091D01*
X528965Y232763D01*
X529763Y231567D01*
X530780Y230551D01*
X531976Y229752D01*
X533304Y229202D01*
X534714Y228921D01*
X536152D01*
X537562Y229202D01*
X538891Y229752D01*
X540086Y230551D01*
X541103Y231567D01*
X541901Y232763D01*
X542452Y234091D01*
X542732Y235502D01*
Y236939D01*
X542452Y238350D01*
X541901Y239678D01*
X541103Y240873D01*
X540086Y241890D01*
X538891Y242689D01*
X537562Y243239D01*
X536152Y243520D01*
D02*
G37*
G36*
X335365D02*
X333927D01*
X332517Y243239D01*
X331188Y242689D01*
X329993Y241890D01*
X328976Y240873D01*
X328177Y239678D01*
X327627Y238350D01*
X327346Y236939D01*
Y235502D01*
X327627Y234091D01*
X328177Y232763D01*
X328976Y231567D01*
X329993Y230551D01*
X331188Y229752D01*
X332517Y229202D01*
X333927Y228921D01*
X335365D01*
X336775Y229202D01*
X338103Y229752D01*
X339299Y230551D01*
X340315Y231567D01*
X341114Y232763D01*
X341664Y234091D01*
X341945Y235502D01*
Y236939D01*
X341664Y238350D01*
X341114Y239678D01*
X340315Y240873D01*
X339299Y241890D01*
X338103Y242689D01*
X336775Y243239D01*
X335365Y243520D01*
D02*
G37*
%LPD*%
D50*
X408425Y257480D02*
D03*
Y247480D02*
D03*
D64*
X443071Y375000D02*
D03*
D66*
X514764Y265748D02*
D03*
D67*
X535236Y288189D02*
D03*
X496161Y296457D02*
D03*
X497736Y305118D02*
D03*
X348425Y248031D02*
D03*
X354331Y236220D02*
D03*
X413386D02*
D03*
Y354331D02*
D03*
X472441D02*
D03*
X507874Y236220D02*
D03*
X372047Y342520D02*
D03*
X366142Y236220D02*
D03*
X419291Y248031D02*
D03*
X513779D02*
D03*
X354331Y377953D02*
D03*
X537401Y248031D02*
D03*
X519685Y377953D02*
D03*
X431102Y318898D02*
D03*
X537401Y271654D02*
D03*
X531496Y259842D02*
D03*
X377953Y236220D02*
D03*
X437008Y354331D02*
D03*
X383858Y366142D02*
D03*
X366142Y354331D02*
D03*
X413386Y330709D02*
D03*
X519685Y236220D02*
D03*
X401575Y354331D02*
D03*
X472441Y236220D02*
D03*
X372047Y248031D02*
D03*
X448819Y330709D02*
D03*
X372047Y271654D02*
D03*
X484252Y236220D02*
D03*
X377953Y354331D02*
D03*
X425197Y330709D02*
D03*
X490157Y366142D02*
D03*
X525590Y271654D02*
D03*
X360236D02*
D03*
X513779Y366142D02*
D03*
X407480D02*
D03*
X366142Y283465D02*
D03*
X413386Y259842D02*
D03*
X342520Y283465D02*
D03*
X372047Y318898D02*
D03*
X431102Y342520D02*
D03*
X448819Y236220D02*
D03*
X496063Y377953D02*
D03*
X407480Y342520D02*
D03*
X360236D02*
D03*
X401575Y236220D02*
D03*
X484252Y377953D02*
D03*
X419291Y366142D02*
D03*
X366142Y330709D02*
D03*
X425197Y236220D02*
D03*
X383858Y271654D02*
D03*
X360236Y248031D02*
D03*
X354331Y283465D02*
D03*
X395669Y366142D02*
D03*
X354331Y259842D02*
D03*
X442913Y342520D02*
D03*
X525590Y248031D02*
D03*
X460630Y354331D02*
D03*
X454724Y342520D02*
D03*
X348425Y271654D02*
D03*
Y366142D02*
D03*
X342520Y330709D02*
D03*
X437008Y236220D02*
D03*
X389764D02*
D03*
X460630D02*
D03*
X525590Y366142D02*
D03*
X501968D02*
D03*
X360236D02*
D03*
X372047D02*
D03*
X342520Y259842D02*
D03*
X448819Y354331D02*
D03*
X431102Y248031D02*
D03*
X496063Y236220D02*
D03*
X507874Y377953D02*
D03*
X342520Y307086D02*
D03*
X437008Y259547D02*
D03*
X427658Y263484D02*
D03*
X415453Y316535D02*
D03*
M02*
