G04*
G04 #@! TF.GenerationSoftware,Altium Limited,Altium Designer,22.0.2 (36)*
G04*
G04 Layer_Color=65535*
%FSLAX25Y25*%
%MOIN*%
G70*
G04*
G04 #@! TF.SameCoordinates,77FB473F-6002-4E98-9841-083E989A2A2F*
G04*
G04*
G04 #@! TF.FilePolarity,Positive*
G04*
G01*
G75*
%ADD10C,0.00984*%
%ADD11C,0.00394*%
%ADD12C,0.00787*%
%ADD13C,0.01200*%
%ADD14C,0.00600*%
%ADD15C,0.01000*%
%ADD16C,0.00866*%
%ADD17C,0.00300*%
%ADD18C,0.00709*%
G36*
X500236Y389029D02*
X500315D01*
Y389003D01*
X500367D01*
Y388976D01*
X500394D01*
Y388950D01*
X500420D01*
Y388924D01*
X500446D01*
Y388898D01*
X500472D01*
Y388871D01*
X500499D01*
Y388845D01*
X500525D01*
Y388793D01*
X500551D01*
Y388740D01*
X500577D01*
Y388425D01*
X500551D01*
Y388373D01*
X500525D01*
Y388320D01*
X500499D01*
Y388294D01*
X500472D01*
Y388268D01*
X500446D01*
Y388242D01*
X500420D01*
Y388215D01*
X500394D01*
Y388189D01*
X500367D01*
Y388163D01*
X500289D01*
Y388137D01*
X500210D01*
Y388110D01*
X500026D01*
Y388137D01*
X499921D01*
Y388163D01*
X499869D01*
Y388189D01*
X499843D01*
Y388215D01*
X499816D01*
Y388242D01*
X499790D01*
Y388268D01*
X499764D01*
Y388294D01*
X499738D01*
Y388320D01*
X499711D01*
Y388373D01*
X499685D01*
Y388425D01*
X499659D01*
Y388740D01*
X499685D01*
Y388793D01*
X499711D01*
Y388845D01*
X499738D01*
Y388871D01*
X499764D01*
Y388898D01*
X499790D01*
Y388924D01*
X499816D01*
Y388950D01*
X499843D01*
Y388976D01*
X499869D01*
Y389003D01*
X499921D01*
Y389029D01*
X500000D01*
Y389055D01*
X500236D01*
Y389029D01*
D02*
G37*
G36*
X500184Y387848D02*
X500236D01*
Y387822D01*
X500289D01*
Y387795D01*
X500315D01*
Y387743D01*
X500341D01*
Y387559D01*
X500367D01*
Y387533D01*
X500341D01*
Y387060D01*
X500315D01*
Y387008D01*
X500289D01*
Y386982D01*
X500236D01*
Y386955D01*
X500184D01*
Y386929D01*
X500052D01*
Y386955D01*
X500000D01*
Y386982D01*
X499948D01*
Y387008D01*
X499921D01*
Y387060D01*
X499895D01*
Y387612D01*
Y387638D01*
Y387743D01*
X499921D01*
Y387795D01*
X499948D01*
Y387822D01*
X500000D01*
Y387848D01*
X500052D01*
Y387874D01*
X500184D01*
Y387848D01*
D02*
G37*
G36*
X509869Y378399D02*
X509921D01*
Y378373D01*
X509974D01*
Y378346D01*
X510000D01*
Y378294D01*
X510026D01*
Y378084D01*
X510000D01*
Y378031D01*
X509974D01*
Y378005D01*
X509921D01*
Y377979D01*
X509869D01*
Y377953D01*
X509265D01*
Y377979D01*
X509213D01*
Y378005D01*
X509160D01*
Y378031D01*
X509134D01*
Y378084D01*
X509108D01*
Y378215D01*
Y378241D01*
Y378294D01*
X509134D01*
Y378346D01*
X509160D01*
Y378373D01*
X509213D01*
Y378399D01*
X509265D01*
Y378425D01*
X509869D01*
Y378399D01*
D02*
G37*
G36*
X490735D02*
X490787D01*
Y378373D01*
X490840D01*
Y378346D01*
X490866D01*
Y378294D01*
X490892D01*
Y378084D01*
X490866D01*
Y378031D01*
X490840D01*
Y378005D01*
X490787D01*
Y377979D01*
X490735D01*
Y377953D01*
X490131D01*
Y377979D01*
X490079D01*
Y378005D01*
X490026D01*
Y378031D01*
X490000D01*
Y378084D01*
X489974D01*
Y378294D01*
X490000D01*
Y378346D01*
X490026D01*
Y378373D01*
X490079D01*
Y378399D01*
X490131D01*
Y378425D01*
X490735D01*
Y378399D01*
D02*
G37*
G36*
X510866Y378635D02*
X510945D01*
Y378609D01*
X510997D01*
Y378583D01*
X511024D01*
Y378556D01*
X511050D01*
Y378530D01*
X511076D01*
Y378504D01*
X511102D01*
Y378478D01*
X511129D01*
Y378451D01*
X511155D01*
Y378399D01*
X511181D01*
Y378346D01*
X511207D01*
Y378031D01*
X511181D01*
Y377979D01*
X511155D01*
Y377926D01*
X511129D01*
Y377900D01*
X511102D01*
Y377874D01*
X511076D01*
Y377848D01*
X511050D01*
Y377821D01*
X511024D01*
Y377795D01*
X510997D01*
Y377769D01*
X510945D01*
Y377743D01*
X510866D01*
Y377716D01*
X510630D01*
Y377743D01*
X510551D01*
Y377769D01*
X510499D01*
Y377795D01*
X510472D01*
Y377821D01*
X510446D01*
Y377848D01*
X510420D01*
Y377874D01*
X510394D01*
Y377900D01*
X510367D01*
Y377926D01*
X510341D01*
Y377979D01*
X510315D01*
Y378031D01*
X510289D01*
Y378346D01*
X510315D01*
Y378399D01*
X510341D01*
Y378451D01*
X510367D01*
Y378478D01*
X510394D01*
Y378504D01*
X510420D01*
Y378530D01*
X510446D01*
Y378556D01*
X510472D01*
Y378583D01*
X510499D01*
Y378609D01*
X510551D01*
Y378635D01*
X510630D01*
Y378661D01*
X510866D01*
Y378635D01*
D02*
G37*
G36*
X489344D02*
X489449D01*
Y378609D01*
X489501D01*
Y378583D01*
X489528D01*
Y378556D01*
X489554D01*
Y378530D01*
X489580D01*
Y378504D01*
X489606D01*
Y378478D01*
X489633D01*
Y378451D01*
X489659D01*
Y378399D01*
X489685D01*
Y378346D01*
X489711D01*
Y378031D01*
X489685D01*
Y377979D01*
X489659D01*
Y377926D01*
X489633D01*
Y377900D01*
X489606D01*
Y377874D01*
X489580D01*
Y377848D01*
X489554D01*
Y377821D01*
X489528D01*
Y377795D01*
X489501D01*
Y377769D01*
X489449D01*
Y377743D01*
X489344D01*
Y377716D01*
X489160D01*
Y377743D01*
X489055D01*
Y377769D01*
X489003D01*
Y377795D01*
X488976D01*
Y377821D01*
X488950D01*
Y377848D01*
X488924D01*
Y377874D01*
X488898D01*
Y377900D01*
X488871D01*
Y377926D01*
X488845D01*
Y377979D01*
X488819D01*
Y378031D01*
X488793D01*
Y378346D01*
X488819D01*
Y378399D01*
X488845D01*
Y378451D01*
X488871D01*
Y378478D01*
X488898D01*
Y378504D01*
X488924D01*
Y378530D01*
X488950D01*
Y378556D01*
X488976D01*
Y378583D01*
X489003D01*
Y378609D01*
X489055D01*
Y378635D01*
X489160D01*
Y378661D01*
X489344D01*
Y378635D01*
D02*
G37*
G36*
X500367Y386667D02*
X500682D01*
Y386640D01*
X500919D01*
Y386614D01*
X501102D01*
Y386588D01*
X501260D01*
Y386562D01*
X501417D01*
Y386535D01*
X501522D01*
Y386509D01*
X501653D01*
Y386483D01*
X501758D01*
Y386457D01*
X501863D01*
Y386431D01*
X501968D01*
Y386404D01*
X502073D01*
Y386378D01*
X502152D01*
Y386352D01*
X502257D01*
Y386326D01*
X502336D01*
Y386299D01*
X502415D01*
Y386273D01*
X502493D01*
Y386247D01*
X502572D01*
Y386221D01*
X502651D01*
Y386194D01*
X502730D01*
Y386168D01*
X502782D01*
Y386142D01*
X502861D01*
Y386116D01*
X502913D01*
Y386089D01*
X502992D01*
Y386063D01*
X503045D01*
Y386037D01*
X503123D01*
Y386011D01*
X503176D01*
Y385984D01*
X503228D01*
Y385958D01*
X503307D01*
Y385932D01*
X503360D01*
Y385906D01*
X503412D01*
Y385879D01*
X503465D01*
Y385853D01*
X503517D01*
Y385827D01*
X503570D01*
Y385801D01*
X503622D01*
Y385774D01*
X503675D01*
Y385748D01*
X503727D01*
Y385722D01*
X503780D01*
Y385696D01*
X503832D01*
Y385669D01*
X503885D01*
Y385643D01*
X503937D01*
Y385617D01*
X503990D01*
Y385591D01*
X504016D01*
Y385564D01*
X504068D01*
Y385538D01*
X504121D01*
Y385512D01*
X504173D01*
Y385486D01*
X504200D01*
Y385459D01*
X504252D01*
Y385433D01*
X504305D01*
Y385407D01*
X504331D01*
Y385381D01*
X504383D01*
Y385354D01*
X504410D01*
Y385328D01*
X504462D01*
Y385302D01*
X504514D01*
Y385276D01*
X504541D01*
Y385249D01*
X504593D01*
Y385223D01*
X504619D01*
Y385197D01*
X504672D01*
Y385171D01*
X504698D01*
Y385144D01*
X504751D01*
Y385118D01*
X504777D01*
Y385092D01*
X504803D01*
Y385066D01*
X504856D01*
Y385039D01*
X504882D01*
Y385013D01*
X504934D01*
Y384987D01*
X504961D01*
Y384961D01*
X504987D01*
Y384934D01*
X505039D01*
Y384908D01*
X505066D01*
Y384882D01*
X505092D01*
Y384856D01*
X505144D01*
Y384829D01*
X505171D01*
Y384803D01*
X505197D01*
Y384777D01*
X505223D01*
Y384751D01*
X505276D01*
Y384724D01*
X505302D01*
Y384698D01*
X505328D01*
Y384672D01*
X505354D01*
Y384646D01*
X505407D01*
Y384619D01*
X505433D01*
Y384593D01*
X505459D01*
Y384567D01*
X505486D01*
Y384541D01*
X505512D01*
Y384514D01*
X505564D01*
Y384488D01*
X505591D01*
Y384462D01*
X505617D01*
Y384436D01*
X505643D01*
Y384409D01*
X505669D01*
Y384383D01*
X505695D01*
Y384357D01*
X505722D01*
Y384331D01*
X505748D01*
Y384304D01*
X505774D01*
Y384278D01*
X505827D01*
Y384252D01*
X505853D01*
Y384226D01*
X505879D01*
Y384200D01*
X505905D01*
Y384173D01*
X505932D01*
Y384147D01*
X505958D01*
Y384121D01*
X505984D01*
Y384095D01*
X506010D01*
Y384068D01*
X506037D01*
Y384042D01*
X506063D01*
Y384016D01*
X506089D01*
Y383990D01*
X506115D01*
Y383963D01*
X506142D01*
Y383937D01*
X506168D01*
Y383911D01*
X506194D01*
Y383885D01*
X506220D01*
Y383858D01*
X506247D01*
Y383832D01*
X506273D01*
Y383780D01*
X506299D01*
Y383753D01*
X506325D01*
Y383727D01*
X506352D01*
Y383701D01*
X506378D01*
Y383675D01*
X506404D01*
Y383648D01*
X506430D01*
Y383622D01*
X506457D01*
Y383596D01*
X506483D01*
Y383570D01*
X506509D01*
Y383517D01*
X506535D01*
Y383491D01*
X506562D01*
Y383465D01*
X506588D01*
Y383438D01*
X506614D01*
Y383412D01*
X506640D01*
Y383360D01*
X506667D01*
Y383333D01*
X506693D01*
Y383307D01*
X506719D01*
Y383281D01*
X506745D01*
Y383228D01*
X506772D01*
Y383202D01*
X506798D01*
Y383176D01*
X506824D01*
Y383150D01*
X506850D01*
Y383097D01*
X506877D01*
Y383071D01*
X506903D01*
Y383045D01*
X506929D01*
Y382992D01*
X506955D01*
Y382966D01*
X506982D01*
Y382940D01*
X507008D01*
Y382887D01*
X507034D01*
Y382861D01*
X507060D01*
Y382808D01*
X507087D01*
Y382782D01*
X507113D01*
Y382756D01*
X507139D01*
Y382703D01*
X507165D01*
Y382677D01*
X507192D01*
Y382625D01*
X507218D01*
Y382598D01*
X507244D01*
Y382546D01*
X507270D01*
Y382493D01*
X507297D01*
Y382467D01*
X507323D01*
Y382415D01*
X507349D01*
Y382388D01*
X507375D01*
Y382336D01*
X507402D01*
Y382283D01*
X507428D01*
Y382257D01*
X507454D01*
Y382205D01*
X507480D01*
Y382152D01*
X507507D01*
Y382126D01*
X507533D01*
Y382073D01*
X507559D01*
Y382021D01*
X507585D01*
Y381968D01*
X507612D01*
Y381916D01*
X507638D01*
Y381890D01*
X507664D01*
Y381837D01*
X507690D01*
Y381785D01*
X507717D01*
Y381732D01*
X507743D01*
Y381680D01*
X507769D01*
Y381627D01*
X507795D01*
Y381575D01*
X507822D01*
Y381522D01*
X507848D01*
Y381444D01*
X507874D01*
Y381391D01*
X507900D01*
Y381339D01*
X507927D01*
Y381286D01*
X507953D01*
Y381234D01*
X507979D01*
Y381155D01*
X508005D01*
Y381102D01*
X508032D01*
Y381024D01*
X508058D01*
Y380971D01*
X508084D01*
Y380892D01*
X508110D01*
Y380814D01*
X508137D01*
Y380761D01*
X508163D01*
Y380682D01*
X508189D01*
Y380604D01*
X508215D01*
Y380525D01*
X508242D01*
Y380446D01*
X508268D01*
Y380367D01*
X508294D01*
Y380262D01*
X508320D01*
Y380184D01*
X508347D01*
Y380079D01*
X508373D01*
Y379974D01*
X508399D01*
Y379869D01*
X508425D01*
Y379764D01*
X508452D01*
Y379632D01*
X508478D01*
Y379501D01*
X508504D01*
Y379344D01*
X508530D01*
Y379186D01*
X508556D01*
Y378976D01*
X508583D01*
Y378714D01*
X508609D01*
Y377428D01*
X508583D01*
Y377192D01*
X508556D01*
Y376982D01*
X508530D01*
Y376798D01*
X508504D01*
Y376667D01*
X508478D01*
Y376535D01*
X508452D01*
Y376404D01*
X508425D01*
Y376273D01*
X508399D01*
Y376168D01*
X508373D01*
Y376063D01*
X508347D01*
Y375984D01*
X508320D01*
Y375879D01*
X508294D01*
Y375800D01*
X508268D01*
Y375722D01*
X508242D01*
Y375617D01*
X508215D01*
Y375538D01*
X508189D01*
Y375486D01*
X508163D01*
Y375407D01*
X508137D01*
Y375328D01*
X508110D01*
Y375249D01*
X508084D01*
Y375197D01*
X508058D01*
Y375118D01*
X508032D01*
Y375066D01*
X508005D01*
Y374987D01*
X507979D01*
Y374934D01*
X507953D01*
Y374856D01*
X507927D01*
Y374803D01*
X507900D01*
Y374751D01*
X507874D01*
Y374698D01*
X507848D01*
Y374646D01*
X507822D01*
Y374593D01*
X507795D01*
Y374541D01*
X507769D01*
Y374488D01*
X507743D01*
Y374410D01*
X507717D01*
Y374383D01*
X507690D01*
Y374331D01*
X507664D01*
Y374278D01*
X507638D01*
Y374226D01*
X507612D01*
Y374173D01*
X507585D01*
Y374121D01*
X507559D01*
Y374095D01*
X507533D01*
Y374042D01*
X507507D01*
Y373990D01*
X507480D01*
Y373937D01*
X507454D01*
Y373911D01*
X507428D01*
Y373858D01*
X507402D01*
Y373806D01*
X507375D01*
Y373780D01*
X507349D01*
Y373727D01*
X507323D01*
Y373675D01*
X507297D01*
Y373648D01*
X507270D01*
Y373596D01*
X507244D01*
Y373569D01*
X507218D01*
Y373517D01*
X507192D01*
Y373491D01*
X507165D01*
Y373438D01*
X507139D01*
Y373412D01*
X507113D01*
Y373360D01*
X507087D01*
Y373333D01*
X507060D01*
Y373307D01*
X507034D01*
Y373255D01*
X507008D01*
Y373228D01*
X506982D01*
Y373176D01*
X506955D01*
Y373150D01*
X506929D01*
Y373123D01*
X506903D01*
Y373071D01*
X506877D01*
Y373045D01*
X506850D01*
Y373018D01*
X506824D01*
Y372966D01*
X506798D01*
Y372940D01*
X506772D01*
Y372913D01*
X506745D01*
Y372887D01*
X506719D01*
Y372835D01*
X506693D01*
Y372808D01*
X506667D01*
Y372782D01*
X506640D01*
Y372756D01*
X506614D01*
Y372703D01*
X506588D01*
Y372677D01*
X506562D01*
Y372651D01*
X506535D01*
Y372625D01*
X506509D01*
Y372598D01*
X506483D01*
Y372572D01*
X506457D01*
Y372520D01*
X506430D01*
Y372493D01*
X506404D01*
Y372467D01*
X506378D01*
Y372441D01*
X506352D01*
Y372415D01*
X506325D01*
Y372389D01*
X506299D01*
Y372362D01*
X506273D01*
Y372336D01*
X506247D01*
Y372310D01*
X506220D01*
Y372284D01*
X506194D01*
Y372257D01*
X506168D01*
Y372231D01*
X506142D01*
Y372205D01*
X506115D01*
Y372152D01*
X506089D01*
Y372126D01*
X506037D01*
Y372074D01*
X505984D01*
Y372047D01*
X505958D01*
Y372021D01*
X505932D01*
Y371995D01*
X505905D01*
Y371969D01*
X505879D01*
Y371942D01*
X505853D01*
Y371916D01*
X505827D01*
Y371890D01*
X505800D01*
Y371864D01*
X505774D01*
Y371837D01*
X505748D01*
Y371811D01*
X505722D01*
Y371785D01*
X505695D01*
Y371759D01*
X505669D01*
Y371732D01*
X505643D01*
Y371706D01*
X505591D01*
Y371680D01*
X505564D01*
Y371654D01*
X505538D01*
Y371627D01*
X505512D01*
Y371601D01*
X505486D01*
Y371575D01*
X505459D01*
Y371549D01*
X505407D01*
Y371522D01*
X505381D01*
Y371496D01*
X505354D01*
Y371470D01*
X505328D01*
Y371444D01*
X505302D01*
Y371417D01*
X505249D01*
Y371391D01*
X505223D01*
Y371365D01*
X505197D01*
Y371339D01*
X505171D01*
Y371312D01*
X505118D01*
Y371286D01*
X505092D01*
Y371260D01*
X505066D01*
Y371234D01*
X505013D01*
Y371207D01*
X504987D01*
Y371181D01*
X504961D01*
Y371155D01*
X504908D01*
Y371129D01*
X504882D01*
Y371102D01*
X504829D01*
Y371076D01*
X504803D01*
Y371050D01*
X504777D01*
Y371024D01*
X504724D01*
Y370997D01*
X504698D01*
Y370971D01*
X504646D01*
Y370945D01*
X504619D01*
Y370919D01*
X504567D01*
Y370892D01*
X504541D01*
Y370866D01*
X504488D01*
Y370840D01*
X504462D01*
Y370814D01*
X504410D01*
Y370787D01*
X504357D01*
Y370761D01*
X504331D01*
Y370735D01*
X504278D01*
Y370709D01*
X504226D01*
Y370682D01*
X504200D01*
Y370656D01*
X504147D01*
Y370630D01*
X504095D01*
Y370604D01*
X504042D01*
Y370577D01*
X504016D01*
Y370551D01*
X503963D01*
Y370525D01*
X503911D01*
Y370499D01*
X503858D01*
Y370472D01*
X503806D01*
Y370446D01*
X503780D01*
Y370420D01*
X503727D01*
Y370394D01*
X503675D01*
Y370368D01*
X503622D01*
Y370341D01*
X503570D01*
Y370315D01*
X503517D01*
Y370289D01*
X503438D01*
Y370263D01*
X503386D01*
Y370236D01*
X503333D01*
Y370210D01*
X503281D01*
Y370184D01*
X503228D01*
Y370158D01*
X503176D01*
Y370131D01*
X503097D01*
Y370105D01*
X503045D01*
Y370079D01*
X502966D01*
Y370053D01*
X502913D01*
Y370026D01*
X502835D01*
Y370000D01*
X502782D01*
Y369974D01*
X502703D01*
Y369948D01*
X502625D01*
Y369921D01*
X502546D01*
Y369895D01*
X502467D01*
Y369869D01*
X502388D01*
Y369843D01*
X502310D01*
Y369816D01*
X502231D01*
Y369790D01*
X502126D01*
Y369764D01*
X502047D01*
Y369738D01*
X501942D01*
Y369711D01*
X501837D01*
Y369685D01*
X501732D01*
Y369659D01*
X501627D01*
Y369633D01*
X501496D01*
Y369606D01*
X501365D01*
Y369580D01*
X501207D01*
Y369554D01*
X501050D01*
Y369528D01*
X500866D01*
Y369501D01*
X500604D01*
Y369475D01*
X500210D01*
Y369449D01*
X499554D01*
Y369475D01*
X499160D01*
Y369501D01*
X498924D01*
Y369528D01*
X498714D01*
Y369554D01*
X498556D01*
Y369580D01*
X498399D01*
Y369606D01*
X498294D01*
Y369633D01*
X498163D01*
Y369659D01*
X498032D01*
Y369685D01*
X497953D01*
Y369711D01*
X497848D01*
Y369738D01*
X497743D01*
Y369764D01*
X497664D01*
Y369790D01*
X497559D01*
Y369816D01*
X497480D01*
Y369843D01*
X497402D01*
Y369869D01*
X497323D01*
Y369895D01*
X497244D01*
Y369921D01*
X497165D01*
Y369948D01*
X497087D01*
Y369974D01*
X497034D01*
Y370000D01*
X496955D01*
Y370026D01*
X496903D01*
Y370053D01*
X496824D01*
Y370079D01*
X496772D01*
Y370105D01*
X496693D01*
Y370131D01*
X496640D01*
Y370158D01*
X496588D01*
Y370184D01*
X496535D01*
Y370210D01*
X496457D01*
Y370236D01*
X496404D01*
Y370263D01*
X496352D01*
Y370289D01*
X496299D01*
Y370315D01*
X496247D01*
Y370341D01*
X496194D01*
Y370368D01*
X496142D01*
Y370394D01*
X496089D01*
Y370420D01*
X496063D01*
Y370446D01*
X496010D01*
Y370472D01*
X495958D01*
Y370499D01*
X495905D01*
Y370525D01*
X495853D01*
Y370551D01*
X495800D01*
Y370577D01*
X495774D01*
Y370604D01*
X495722D01*
Y370630D01*
X495669D01*
Y370656D01*
X495643D01*
Y370682D01*
X495591D01*
Y370709D01*
X495564D01*
Y370735D01*
X495512D01*
Y370761D01*
X495459D01*
Y370787D01*
X495433D01*
Y370814D01*
X495381D01*
Y370840D01*
X495354D01*
Y370866D01*
X495302D01*
Y370892D01*
X495276D01*
Y370919D01*
X495223D01*
Y370945D01*
X495197D01*
Y370971D01*
X495144D01*
Y370997D01*
X495118D01*
Y371024D01*
X495092D01*
Y371050D01*
X495039D01*
Y371076D01*
X495013D01*
Y371102D01*
X494961D01*
Y371129D01*
X494934D01*
Y371155D01*
X494908D01*
Y371181D01*
X494856D01*
Y371207D01*
X494829D01*
Y371234D01*
X494803D01*
Y371260D01*
X494777D01*
Y371286D01*
X494724D01*
Y371312D01*
X494698D01*
Y371339D01*
X494672D01*
Y371365D01*
X494646D01*
Y371391D01*
X494593D01*
Y371417D01*
X494567D01*
Y371444D01*
X494541D01*
Y371470D01*
X494514D01*
Y371496D01*
X494488D01*
Y371522D01*
X494436D01*
Y371549D01*
X494410D01*
Y371575D01*
X494383D01*
Y371601D01*
X494357D01*
Y371627D01*
X494331D01*
Y371654D01*
X494305D01*
Y371680D01*
X494278D01*
Y371706D01*
X494252D01*
Y371732D01*
X494200D01*
Y371759D01*
X494173D01*
Y371785D01*
X494147D01*
Y371811D01*
X494121D01*
Y371837D01*
X494095D01*
Y371864D01*
X494068D01*
Y371890D01*
X494042D01*
Y371916D01*
X494016D01*
Y371942D01*
X493990D01*
Y371969D01*
X493963D01*
Y371995D01*
X493937D01*
Y372021D01*
X493911D01*
Y372047D01*
X493885D01*
Y372074D01*
X493858D01*
Y372100D01*
X493832D01*
Y372126D01*
X493806D01*
Y372152D01*
X493780D01*
Y372179D01*
X493753D01*
Y372205D01*
X493727D01*
Y372257D01*
X493701D01*
Y372284D01*
X493675D01*
Y372310D01*
X493648D01*
Y372336D01*
X493622D01*
Y372362D01*
X493596D01*
Y372389D01*
X493570D01*
Y372415D01*
X493543D01*
Y372441D01*
X493517D01*
Y372467D01*
X493491D01*
Y372520D01*
X493465D01*
Y372546D01*
X493438D01*
Y372572D01*
X493412D01*
Y372598D01*
X493386D01*
Y372625D01*
X493360D01*
Y372677D01*
X493333D01*
Y372703D01*
X493307D01*
Y372730D01*
X493281D01*
Y372756D01*
X493255D01*
Y372808D01*
X493228D01*
Y372835D01*
X493202D01*
Y372861D01*
X493176D01*
Y372913D01*
X493150D01*
Y372940D01*
X493123D01*
Y372966D01*
X493097D01*
Y373018D01*
X493071D01*
Y373045D01*
X493045D01*
Y373071D01*
X493018D01*
Y373123D01*
X492992D01*
Y373150D01*
X492966D01*
Y373202D01*
X492940D01*
Y373228D01*
X492913D01*
Y373255D01*
X492887D01*
Y373307D01*
X492861D01*
Y373333D01*
X492835D01*
Y373386D01*
X492808D01*
Y373412D01*
X492782D01*
Y373465D01*
X492756D01*
Y373491D01*
X492730D01*
Y373543D01*
X492703D01*
Y373596D01*
X492677D01*
Y373622D01*
X492651D01*
Y373675D01*
X492625D01*
Y373701D01*
X492598D01*
Y373753D01*
X492572D01*
Y373806D01*
X492546D01*
Y373858D01*
X492520D01*
Y373885D01*
X492493D01*
Y373937D01*
X492467D01*
Y373990D01*
X492441D01*
Y374042D01*
X492415D01*
Y374095D01*
X492388D01*
Y374121D01*
X492362D01*
Y374173D01*
X492336D01*
Y374226D01*
X492310D01*
Y374278D01*
X492283D01*
Y374331D01*
X492257D01*
Y374383D01*
X492231D01*
Y374436D01*
X492205D01*
Y374488D01*
X492178D01*
Y374567D01*
X492152D01*
Y374619D01*
X492126D01*
Y374672D01*
X492100D01*
Y374724D01*
X492073D01*
Y374803D01*
X492047D01*
Y374856D01*
X492021D01*
Y374908D01*
X491995D01*
Y374987D01*
X491968D01*
Y375039D01*
X491942D01*
Y375118D01*
X491916D01*
Y375197D01*
X491890D01*
Y375249D01*
X491863D01*
Y375328D01*
X491837D01*
Y375407D01*
X491811D01*
Y375486D01*
X491785D01*
Y375564D01*
X491758D01*
Y375669D01*
X491732D01*
Y375748D01*
X491706D01*
Y375827D01*
X491680D01*
Y375932D01*
X491653D01*
Y376037D01*
X491627D01*
Y376142D01*
X491601D01*
Y376247D01*
X491575D01*
Y376352D01*
X491549D01*
Y376483D01*
X491522D01*
Y376640D01*
X491496D01*
Y376772D01*
X491470D01*
Y376955D01*
X491444D01*
Y377165D01*
X491417D01*
Y377428D01*
X491391D01*
Y378688D01*
X491417D01*
Y378976D01*
X491444D01*
Y379186D01*
X491470D01*
Y379370D01*
X491496D01*
Y379528D01*
X491522D01*
Y379659D01*
X491549D01*
Y379790D01*
X491575D01*
Y379895D01*
X491601D01*
Y380026D01*
X491627D01*
Y380131D01*
X491653D01*
Y380210D01*
X491680D01*
Y380315D01*
X491706D01*
Y380420D01*
X491732D01*
Y380499D01*
X491758D01*
Y380577D01*
X491785D01*
Y380656D01*
X491811D01*
Y380735D01*
X491837D01*
Y380814D01*
X491863D01*
Y380892D01*
X491890D01*
Y380971D01*
X491916D01*
Y381024D01*
X491942D01*
Y381102D01*
X491968D01*
Y381155D01*
X491995D01*
Y381234D01*
X492021D01*
Y381286D01*
X492047D01*
Y381365D01*
X492073D01*
Y381417D01*
X492100D01*
Y381470D01*
X492126D01*
Y381549D01*
X492152D01*
Y381601D01*
X492178D01*
Y381653D01*
X492205D01*
Y381706D01*
X492231D01*
Y381758D01*
X492257D01*
Y381811D01*
X492283D01*
Y381863D01*
X492310D01*
Y381916D01*
X492336D01*
Y381968D01*
X492362D01*
Y382021D01*
X492388D01*
Y382073D01*
X492415D01*
Y382126D01*
X492441D01*
Y382152D01*
X492467D01*
Y382205D01*
X492493D01*
Y382257D01*
X492520D01*
Y382310D01*
X492546D01*
Y382362D01*
X492572D01*
Y382388D01*
X492598D01*
Y382441D01*
X492625D01*
Y382493D01*
X492651D01*
Y382520D01*
X492677D01*
Y382572D01*
X492703D01*
Y382598D01*
X492730D01*
Y382651D01*
X492756D01*
Y382677D01*
X492782D01*
Y382730D01*
X492808D01*
Y382756D01*
X492835D01*
Y382808D01*
X492861D01*
Y382835D01*
X492887D01*
Y382887D01*
X492913D01*
Y382913D01*
X492940D01*
Y382966D01*
X492966D01*
Y382992D01*
X492992D01*
Y383045D01*
X493018D01*
Y383071D01*
X493045D01*
Y383097D01*
X493071D01*
Y383150D01*
X493097D01*
Y383176D01*
X493123D01*
Y383202D01*
X493150D01*
Y383255D01*
X493176D01*
Y383281D01*
X493202D01*
Y383307D01*
X493228D01*
Y383360D01*
X493255D01*
Y383386D01*
X493281D01*
Y383412D01*
X493307D01*
Y383438D01*
X493333D01*
Y383491D01*
X493360D01*
Y383517D01*
X493386D01*
Y383543D01*
X493412D01*
Y383570D01*
X493438D01*
Y383596D01*
X493465D01*
Y383648D01*
X493491D01*
Y383675D01*
X493517D01*
Y383701D01*
X493543D01*
Y383727D01*
X493570D01*
Y383753D01*
X493596D01*
Y383780D01*
X493622D01*
Y383832D01*
X493648D01*
Y383858D01*
X493675D01*
Y383885D01*
X493701D01*
Y383911D01*
X493727D01*
Y383937D01*
X493753D01*
Y383963D01*
X493780D01*
Y383990D01*
X493806D01*
Y384016D01*
X493832D01*
Y384042D01*
X493858D01*
Y384068D01*
X493885D01*
Y384095D01*
X493911D01*
Y384121D01*
X493937D01*
Y384147D01*
X493963D01*
Y384173D01*
X493990D01*
Y384200D01*
X494016D01*
Y384226D01*
X494042D01*
Y384252D01*
X494068D01*
Y384278D01*
X494095D01*
Y384304D01*
X494121D01*
Y384331D01*
X494147D01*
Y384357D01*
X494173D01*
Y384383D01*
X494200D01*
Y384409D01*
X494226D01*
Y384436D01*
X494252D01*
Y384462D01*
X494278D01*
Y384488D01*
X494331D01*
Y384514D01*
X494357D01*
Y384541D01*
X494383D01*
Y384567D01*
X494410D01*
Y384593D01*
X494436D01*
Y384619D01*
X494462D01*
Y384646D01*
X494488D01*
Y384672D01*
X494541D01*
Y384698D01*
X494567D01*
Y384724D01*
X494593D01*
Y384751D01*
X494619D01*
Y384777D01*
X494646D01*
Y384803D01*
X494698D01*
Y384829D01*
X494724D01*
Y384856D01*
X494751D01*
Y384882D01*
X494777D01*
Y384908D01*
X494829D01*
Y384934D01*
X494856D01*
Y384961D01*
X494882D01*
Y384987D01*
X494934D01*
Y385013D01*
X494961D01*
Y385039D01*
X494987D01*
Y385066D01*
X495039D01*
Y385092D01*
X495066D01*
Y385118D01*
X495118D01*
Y385144D01*
X495144D01*
Y385171D01*
X495171D01*
Y385197D01*
X495223D01*
Y385223D01*
X495249D01*
Y385249D01*
X495302D01*
Y385276D01*
X495328D01*
Y385302D01*
X495381D01*
Y385328D01*
X495407D01*
Y385354D01*
X495459D01*
Y385381D01*
X495486D01*
Y385407D01*
X495538D01*
Y385433D01*
X495591D01*
Y385459D01*
X495617D01*
Y385486D01*
X495669D01*
Y385512D01*
X495695D01*
Y385538D01*
X495748D01*
Y385564D01*
X495800D01*
Y385591D01*
X495853D01*
Y385617D01*
X495879D01*
Y385643D01*
X495932D01*
Y385669D01*
X495984D01*
Y385696D01*
X496037D01*
Y385722D01*
X496089D01*
Y385748D01*
X496142D01*
Y385774D01*
X496194D01*
Y385801D01*
X496247D01*
Y385827D01*
X496273D01*
Y385853D01*
X496352D01*
Y385879D01*
X496404D01*
Y385906D01*
X496457D01*
Y385932D01*
X496509D01*
Y385958D01*
X496562D01*
Y385984D01*
X496614D01*
Y386011D01*
X496693D01*
Y386037D01*
X496745D01*
Y386063D01*
X496798D01*
Y386089D01*
X496877D01*
Y386116D01*
X496929D01*
Y386142D01*
X497008D01*
Y386168D01*
X497060D01*
Y386194D01*
X497139D01*
Y386221D01*
X497218D01*
Y386247D01*
X497297D01*
Y386273D01*
X497375D01*
Y386299D01*
X497454D01*
Y386326D01*
X497533D01*
Y386352D01*
X497612D01*
Y386378D01*
X497717D01*
Y386404D01*
X497795D01*
Y386431D01*
X497900D01*
Y386457D01*
X498005D01*
Y386483D01*
X498110D01*
Y386509D01*
X498242D01*
Y386535D01*
X498373D01*
Y386562D01*
X498530D01*
Y386588D01*
X498688D01*
Y386614D01*
X498845D01*
Y386640D01*
X499081D01*
Y386667D01*
X499396D01*
Y386693D01*
X500367D01*
Y386667D01*
D02*
G37*
G36*
X500184Y368950D02*
X500236D01*
Y368924D01*
X500289D01*
Y368898D01*
X500315D01*
Y368845D01*
X500341D01*
Y368661D01*
X500367D01*
Y368635D01*
X500341D01*
Y368215D01*
Y368189D01*
Y368163D01*
X500315D01*
Y368110D01*
X500289D01*
Y368084D01*
X500236D01*
Y368058D01*
X500184D01*
Y368032D01*
X500052D01*
Y368058D01*
X500000D01*
Y368084D01*
X499948D01*
Y368110D01*
X499921D01*
Y368163D01*
X499895D01*
Y368845D01*
X499921D01*
Y368898D01*
X499948D01*
Y368924D01*
X500000D01*
Y368950D01*
X500052D01*
Y368976D01*
X500184D01*
Y368950D01*
D02*
G37*
G36*
X500236Y367769D02*
X500315D01*
Y367743D01*
X500367D01*
Y367717D01*
X500394D01*
Y367690D01*
X500420D01*
Y367664D01*
X500446D01*
Y367638D01*
X500472D01*
Y367612D01*
X500499D01*
Y367585D01*
X500525D01*
Y367533D01*
X500551D01*
Y367480D01*
X500577D01*
Y367165D01*
X500551D01*
Y367113D01*
X500525D01*
Y367060D01*
X500499D01*
Y367034D01*
X500472D01*
Y367008D01*
X500446D01*
Y366982D01*
X500420D01*
Y366955D01*
X500394D01*
Y366929D01*
X500367D01*
Y366903D01*
X500289D01*
Y366877D01*
X500210D01*
Y366850D01*
X500026D01*
Y366877D01*
X499921D01*
Y366903D01*
X499869D01*
Y366929D01*
X499843D01*
Y366955D01*
X499816D01*
Y366982D01*
X499790D01*
Y367008D01*
X499764D01*
Y367034D01*
X499738D01*
Y367060D01*
X499711D01*
Y367113D01*
X499685D01*
Y367165D01*
X499659D01*
Y367480D01*
X499685D01*
Y367533D01*
X499711D01*
Y367585D01*
X499738D01*
Y367612D01*
X499764D01*
Y367638D01*
X499790D01*
Y367664D01*
X499816D01*
Y367690D01*
X499843D01*
Y367717D01*
X499869D01*
Y367743D01*
X499921D01*
Y367769D01*
X500000D01*
Y367795D01*
X500236D01*
Y367769D01*
D02*
G37*
%LPC*%
G36*
X500394Y385984D02*
X499396D01*
Y385958D01*
X499055D01*
Y385932D01*
X498845D01*
Y385906D01*
X498688D01*
Y385879D01*
X498530D01*
Y385853D01*
X498399D01*
Y385827D01*
X498294D01*
Y385801D01*
X498163D01*
Y385774D01*
X498058D01*
Y385748D01*
X497953D01*
Y385722D01*
X497848D01*
Y385696D01*
X497769D01*
Y385669D01*
X497690D01*
Y385643D01*
X497585D01*
Y385617D01*
X497507D01*
Y385591D01*
X497454D01*
Y385564D01*
X497375D01*
Y385538D01*
X497297D01*
Y385512D01*
X497218D01*
Y385486D01*
X497139D01*
Y385459D01*
X497087D01*
Y385433D01*
X497034D01*
Y385407D01*
X496955D01*
Y385381D01*
X496903D01*
Y385354D01*
X496850D01*
Y385328D01*
X496772D01*
Y385302D01*
X496719D01*
Y385276D01*
X496667D01*
Y385249D01*
X496614D01*
Y385223D01*
X496562D01*
Y385197D01*
X496509D01*
Y385171D01*
X496457D01*
Y385144D01*
X496404D01*
Y385118D01*
X496352D01*
Y385092D01*
X496299D01*
Y385066D01*
X496247D01*
Y385039D01*
X496194D01*
Y385013D01*
X496168D01*
Y384987D01*
X496115D01*
Y384961D01*
X496063D01*
Y384934D01*
X496010D01*
Y384908D01*
X495984D01*
Y384882D01*
X495932D01*
Y384856D01*
X495905D01*
Y384829D01*
X495853D01*
Y384803D01*
X495800D01*
Y384777D01*
X495774D01*
Y384751D01*
X495722D01*
Y384724D01*
X495695D01*
Y384698D01*
X495643D01*
Y384672D01*
X495617D01*
Y384646D01*
X495564D01*
Y384619D01*
X495538D01*
Y384593D01*
X495486D01*
Y384567D01*
X495459D01*
Y384541D01*
X495433D01*
Y384514D01*
X495381D01*
Y384488D01*
X495354D01*
Y384462D01*
X495328D01*
Y384436D01*
X495276D01*
Y384409D01*
X495249D01*
Y384383D01*
X495197D01*
Y384357D01*
X495171D01*
Y384331D01*
X495144D01*
Y384304D01*
X495118D01*
Y384278D01*
X495066D01*
Y384252D01*
X495039D01*
Y384226D01*
X495013D01*
Y384200D01*
X494987D01*
Y384173D01*
X494961D01*
Y384147D01*
X494908D01*
Y384121D01*
X494882D01*
Y384095D01*
X494856D01*
Y384068D01*
X494829D01*
Y384042D01*
X494803D01*
Y384016D01*
X494777D01*
Y383990D01*
X494751D01*
Y383963D01*
X494698D01*
Y383937D01*
X494672D01*
Y383911D01*
X494646D01*
Y383885D01*
X494619D01*
Y383858D01*
X494593D01*
Y383832D01*
X494567D01*
Y383806D01*
X494541D01*
Y383780D01*
X494514D01*
Y383753D01*
X494488D01*
Y383727D01*
X494462D01*
Y383701D01*
X494436D01*
Y383675D01*
X494410D01*
Y383648D01*
X494383D01*
Y383622D01*
X494357D01*
Y383596D01*
X494331D01*
Y383570D01*
X494305D01*
Y383543D01*
X494278D01*
Y383517D01*
X494252D01*
Y383491D01*
X494226D01*
Y383465D01*
X494200D01*
Y383438D01*
X494173D01*
Y383386D01*
X494147D01*
Y383360D01*
X494121D01*
Y383333D01*
X494095D01*
Y383307D01*
X494068D01*
Y383281D01*
X494042D01*
Y383255D01*
X494016D01*
Y383228D01*
X493990D01*
Y383176D01*
X493963D01*
Y383150D01*
X493937D01*
Y383123D01*
X493911D01*
Y383097D01*
X493885D01*
Y383071D01*
X493858D01*
Y383018D01*
X493832D01*
Y382992D01*
X493806D01*
Y382966D01*
X493780D01*
Y382940D01*
X493753D01*
Y382887D01*
X493727D01*
Y382861D01*
X493701D01*
Y382835D01*
X493675D01*
Y382782D01*
X493648D01*
Y382756D01*
X493622D01*
Y382730D01*
X493596D01*
Y382677D01*
X493570D01*
Y382651D01*
X493543D01*
Y382598D01*
X493517D01*
Y382572D01*
X493491D01*
Y382520D01*
X493465D01*
Y382493D01*
X493438D01*
Y382467D01*
X493412D01*
Y382415D01*
X493386D01*
Y382362D01*
X493360D01*
Y382336D01*
X493333D01*
Y382283D01*
X493307D01*
Y382257D01*
X493281D01*
Y382205D01*
X493255D01*
Y382178D01*
X493228D01*
Y382126D01*
X493202D01*
Y382073D01*
X493176D01*
Y382021D01*
X493150D01*
Y381995D01*
X493123D01*
Y381942D01*
X493097D01*
Y381890D01*
X493071D01*
Y381837D01*
X493045D01*
Y381811D01*
X493018D01*
Y381758D01*
X492992D01*
Y381706D01*
X492966D01*
Y381653D01*
X492940D01*
Y381601D01*
X492913D01*
Y381549D01*
X492887D01*
Y381496D01*
X492861D01*
Y381444D01*
X492835D01*
Y381391D01*
X492808D01*
Y381339D01*
X492782D01*
Y381260D01*
X492756D01*
Y381207D01*
X492730D01*
Y381155D01*
X492703D01*
Y381076D01*
X492677D01*
Y381024D01*
X492651D01*
Y380945D01*
X492625D01*
Y380892D01*
X492598D01*
Y380814D01*
X492572D01*
Y380735D01*
X492546D01*
Y380682D01*
X492520D01*
Y380604D01*
X492493D01*
Y380525D01*
X492467D01*
Y380446D01*
X492441D01*
Y380367D01*
X492415D01*
Y380262D01*
X492388D01*
Y380184D01*
X492362D01*
Y380079D01*
X492336D01*
Y379974D01*
X492310D01*
Y379869D01*
X492283D01*
Y379764D01*
X492257D01*
Y379632D01*
X492231D01*
Y379501D01*
X492205D01*
Y379344D01*
X492178D01*
Y379186D01*
X492152D01*
Y378950D01*
X492126D01*
Y378714D01*
X492100D01*
Y378189D01*
X492073D01*
Y378163D01*
X492100D01*
Y378136D01*
X492073D01*
Y378058D01*
X492100D01*
Y378031D01*
X492073D01*
Y378005D01*
X492100D01*
Y377428D01*
X492126D01*
Y377192D01*
X492152D01*
Y376982D01*
X492178D01*
Y376798D01*
X492205D01*
Y376667D01*
X492231D01*
Y376509D01*
X492257D01*
Y376404D01*
X492283D01*
Y376273D01*
X492310D01*
Y376168D01*
X492336D01*
Y376063D01*
X492362D01*
Y375984D01*
X492388D01*
Y375879D01*
X492415D01*
Y375800D01*
X492441D01*
Y375722D01*
X492467D01*
Y375643D01*
X492493D01*
Y375538D01*
X492520D01*
Y375486D01*
X492546D01*
Y375407D01*
X492572D01*
Y375328D01*
X492598D01*
Y375276D01*
X492625D01*
Y375197D01*
X492651D01*
Y375118D01*
X492677D01*
Y375066D01*
X492703D01*
Y375013D01*
X492730D01*
Y374934D01*
X492756D01*
Y374882D01*
X492782D01*
Y374829D01*
X492808D01*
Y374777D01*
X492835D01*
Y374724D01*
X492861D01*
Y374646D01*
X492887D01*
Y374593D01*
X492913D01*
Y374541D01*
X492940D01*
Y374514D01*
Y374488D01*
X492966D01*
Y374436D01*
X492992D01*
Y374410D01*
X493018D01*
Y374357D01*
X493045D01*
Y374305D01*
X493071D01*
Y374252D01*
X493097D01*
Y374200D01*
X493123D01*
Y374173D01*
X493150D01*
Y374121D01*
X493176D01*
Y374068D01*
X493202D01*
Y374016D01*
X493228D01*
Y373990D01*
X493255D01*
Y373937D01*
X493281D01*
Y373911D01*
X493307D01*
Y373858D01*
X493333D01*
Y373806D01*
X493360D01*
Y373780D01*
X493386D01*
Y373727D01*
X493412D01*
Y373701D01*
X493438D01*
Y373648D01*
X493465D01*
Y373622D01*
X493491D01*
Y373569D01*
X493517D01*
Y373543D01*
X493543D01*
Y373491D01*
X493570D01*
Y373465D01*
X493596D01*
Y373438D01*
X493622D01*
Y373386D01*
X493648D01*
Y373360D01*
X493675D01*
Y373333D01*
X493701D01*
Y373281D01*
X493727D01*
Y373255D01*
X493753D01*
Y373228D01*
X493780D01*
Y373176D01*
X493806D01*
Y373150D01*
X493832D01*
Y373123D01*
X493858D01*
Y373097D01*
X493885D01*
Y373045D01*
X493911D01*
Y373018D01*
X493937D01*
Y372992D01*
X493963D01*
Y372966D01*
X493990D01*
Y372940D01*
X494016D01*
Y372913D01*
X494042D01*
Y372861D01*
X494068D01*
Y372835D01*
X494095D01*
Y372808D01*
X494121D01*
Y372782D01*
X494147D01*
Y372756D01*
X494173D01*
Y372730D01*
X494200D01*
Y372703D01*
X494226D01*
Y372677D01*
X494252D01*
Y372625D01*
X494278D01*
Y372598D01*
X494305D01*
Y372572D01*
X494331D01*
Y372546D01*
X494357D01*
Y372520D01*
X494383D01*
Y372493D01*
X494410D01*
Y372467D01*
X494436D01*
Y372441D01*
X494462D01*
Y372415D01*
X494488D01*
Y372389D01*
X494514D01*
Y372362D01*
X494541D01*
Y372336D01*
X494567D01*
Y372310D01*
X494593D01*
Y372284D01*
X494646D01*
Y372257D01*
X494672D01*
Y372231D01*
X494698D01*
Y372205D01*
X494724D01*
Y372179D01*
X494751D01*
Y372152D01*
X494777D01*
Y372126D01*
X494803D01*
Y372100D01*
X494829D01*
Y372074D01*
X494856D01*
Y372047D01*
X494908D01*
Y372021D01*
X494934D01*
Y371995D01*
X494961D01*
Y371969D01*
X494987D01*
Y371942D01*
X495013D01*
Y371916D01*
X495066D01*
Y371890D01*
X495092D01*
Y371864D01*
X495118D01*
Y371837D01*
X495144D01*
Y371811D01*
X495197D01*
Y371785D01*
X495223D01*
Y371759D01*
X495249D01*
Y371732D01*
X495302D01*
Y371706D01*
X495328D01*
Y371680D01*
X495354D01*
Y371654D01*
X495407D01*
Y371627D01*
X495433D01*
Y371601D01*
X495459D01*
Y371575D01*
X495512D01*
Y371549D01*
X495538D01*
Y371522D01*
X495591D01*
Y371496D01*
X495617D01*
Y371470D01*
X495669D01*
Y371444D01*
X495695D01*
Y371417D01*
X495748D01*
Y371391D01*
X495774D01*
Y371365D01*
X495827D01*
Y371339D01*
X495853D01*
Y371312D01*
X495905D01*
Y371286D01*
X495958D01*
Y371260D01*
X495984D01*
Y371234D01*
X496037D01*
Y371207D01*
X496089D01*
Y371181D01*
X496142D01*
Y371155D01*
X496168D01*
Y371129D01*
X496220D01*
Y371102D01*
X496273D01*
Y371076D01*
X496325D01*
Y371050D01*
X496378D01*
Y371024D01*
X496430D01*
Y370997D01*
X496457D01*
Y370971D01*
X496509D01*
Y370945D01*
X496562D01*
Y370919D01*
X496614D01*
Y370892D01*
X496693D01*
Y370866D01*
X496745D01*
Y370840D01*
X496798D01*
Y370814D01*
X496850D01*
Y370787D01*
X496903D01*
Y370761D01*
X496982D01*
Y370735D01*
X497034D01*
Y370709D01*
X497113D01*
Y370682D01*
X497165D01*
Y370656D01*
X497244D01*
Y370630D01*
X497323D01*
Y370604D01*
X497375D01*
Y370577D01*
X497454D01*
Y370551D01*
X497533D01*
Y370525D01*
X497612D01*
Y370499D01*
X497717D01*
Y370472D01*
X497795D01*
Y370446D01*
X497900D01*
Y370420D01*
X497979D01*
Y370394D01*
X498084D01*
Y370368D01*
X498189D01*
Y370341D01*
X498320D01*
Y370315D01*
X498452D01*
Y370289D01*
X498583D01*
Y370263D01*
X498740D01*
Y370236D01*
X498924D01*
Y370210D01*
X499134D01*
Y370184D01*
X499528D01*
Y370158D01*
X500236D01*
Y370184D01*
X500630D01*
Y370210D01*
X500840D01*
Y370236D01*
X501024D01*
Y370263D01*
X501207D01*
Y370289D01*
X501339D01*
Y370315D01*
X501470D01*
Y370341D01*
X501575D01*
Y370368D01*
X501680D01*
Y370394D01*
X501785D01*
Y370420D01*
X501890D01*
Y370446D01*
X501995D01*
Y370472D01*
X502073D01*
Y370499D01*
X502152D01*
Y370525D01*
X502257D01*
Y370551D01*
X502336D01*
Y370577D01*
X502415D01*
Y370604D01*
X502493D01*
Y370630D01*
X502546D01*
Y370656D01*
X502625D01*
Y370682D01*
X502703D01*
Y370709D01*
X502756D01*
Y370735D01*
X502808D01*
Y370761D01*
X502887D01*
Y370787D01*
X502940D01*
Y370814D01*
X502992D01*
Y370840D01*
X503071D01*
Y370866D01*
X503123D01*
Y370892D01*
X503176D01*
Y370919D01*
X503228D01*
Y370945D01*
X503281D01*
Y370971D01*
X503333D01*
Y370997D01*
X503386D01*
Y371024D01*
X503438D01*
Y371050D01*
X503491D01*
Y371076D01*
X503543D01*
Y371102D01*
X503596D01*
Y371129D01*
X503648D01*
Y371155D01*
X503701D01*
Y371181D01*
X503753D01*
Y371207D01*
X503780D01*
Y371234D01*
X503832D01*
Y371260D01*
X503885D01*
Y371286D01*
X503911D01*
Y371312D01*
X503963D01*
Y371339D01*
X504016D01*
Y371365D01*
X504042D01*
Y371391D01*
X504095D01*
Y371417D01*
X504147D01*
Y371444D01*
X504173D01*
Y371470D01*
X504226D01*
Y371496D01*
X504252D01*
Y371522D01*
X504305D01*
Y371549D01*
X504331D01*
Y371575D01*
X504383D01*
Y371601D01*
X504410D01*
Y371627D01*
X504436D01*
Y371654D01*
X504488D01*
Y371680D01*
X504514D01*
Y371706D01*
X504567D01*
Y371732D01*
X504593D01*
Y371759D01*
X504619D01*
Y371785D01*
X504672D01*
Y371811D01*
X504698D01*
Y371837D01*
X504724D01*
Y371864D01*
X504777D01*
Y371890D01*
X504803D01*
Y371916D01*
X504829D01*
Y371942D01*
X504856D01*
Y371969D01*
X504908D01*
Y371995D01*
X504934D01*
Y372021D01*
X504961D01*
Y372047D01*
X504987D01*
Y372074D01*
X505039D01*
Y372100D01*
X505066D01*
Y372126D01*
X505092D01*
Y372152D01*
X505118D01*
Y372179D01*
X505144D01*
Y372205D01*
X505171D01*
Y372231D01*
X505197D01*
Y372257D01*
X505249D01*
Y372284D01*
X505276D01*
Y372310D01*
X505302D01*
Y372336D01*
X505328D01*
Y372362D01*
X505354D01*
Y372389D01*
X505381D01*
Y372415D01*
X505407D01*
Y372441D01*
X505433D01*
Y372467D01*
X505459D01*
Y372493D01*
X505486D01*
Y372520D01*
X505512D01*
Y372546D01*
X505538D01*
Y372572D01*
X505564D01*
Y372598D01*
X505591D01*
Y372625D01*
X505617D01*
Y372651D01*
X505643D01*
Y372677D01*
X505669D01*
Y372703D01*
X505695D01*
Y372730D01*
X505722D01*
Y372756D01*
X505748D01*
Y372782D01*
X505774D01*
Y372808D01*
X505800D01*
Y372835D01*
X505827D01*
Y372861D01*
X505853D01*
Y372887D01*
X505879D01*
Y372913D01*
X505905D01*
Y372966D01*
X505932D01*
Y372992D01*
X505958D01*
Y373018D01*
X505984D01*
Y373045D01*
X506010D01*
Y373071D01*
X506037D01*
Y373097D01*
X506063D01*
Y373150D01*
X506089D01*
Y373176D01*
X506115D01*
Y373202D01*
X506142D01*
Y373228D01*
X506168D01*
Y373255D01*
X506194D01*
Y373307D01*
X506220D01*
Y373333D01*
X506247D01*
Y373360D01*
X506273D01*
Y373386D01*
X506299D01*
Y373438D01*
X506325D01*
Y373465D01*
X506352D01*
Y373517D01*
X506378D01*
Y373543D01*
X506404D01*
Y373569D01*
X506430D01*
Y373622D01*
X506457D01*
Y373648D01*
X506483D01*
Y373675D01*
X506509D01*
Y373727D01*
X506535D01*
Y373753D01*
X506562D01*
Y373806D01*
X506588D01*
Y373832D01*
X506614D01*
Y373885D01*
X506640D01*
Y373911D01*
X506667D01*
Y373963D01*
X506693D01*
Y373990D01*
X506719D01*
Y374042D01*
X506745D01*
Y374095D01*
X506772D01*
Y374121D01*
X506798D01*
Y374173D01*
X506824D01*
Y374226D01*
X506850D01*
Y374252D01*
X506877D01*
Y374305D01*
X506903D01*
Y374357D01*
X506929D01*
Y374383D01*
X506955D01*
Y374436D01*
X506982D01*
Y374488D01*
X507008D01*
Y374541D01*
X507034D01*
Y374593D01*
X507060D01*
Y374646D01*
X507087D01*
Y374698D01*
X507113D01*
Y374751D01*
X507139D01*
Y374803D01*
X507165D01*
Y374856D01*
X507192D01*
Y374908D01*
X507218D01*
Y374961D01*
X507244D01*
Y375013D01*
X507270D01*
Y375092D01*
X507297D01*
Y375144D01*
X507323D01*
Y375197D01*
X507349D01*
Y375276D01*
X507375D01*
Y375328D01*
X507402D01*
Y375407D01*
X507428D01*
Y375459D01*
X507454D01*
Y375538D01*
X507480D01*
Y375617D01*
X507507D01*
Y375695D01*
X507533D01*
Y375774D01*
X507559D01*
Y375853D01*
X507585D01*
Y375932D01*
X507612D01*
Y376037D01*
X507638D01*
Y376115D01*
X507664D01*
Y376220D01*
X507690D01*
Y376325D01*
X507717D01*
Y376431D01*
X507743D01*
Y376562D01*
X507769D01*
Y376693D01*
X507795D01*
Y376824D01*
X507822D01*
Y377008D01*
X507848D01*
Y377192D01*
X507874D01*
Y377428D01*
X507900D01*
Y377874D01*
X507927D01*
Y377953D01*
X507900D01*
Y377979D01*
X507927D01*
Y378189D01*
X507900D01*
Y378215D01*
X507927D01*
Y378241D01*
X507900D01*
Y378714D01*
X507874D01*
Y378976D01*
X507848D01*
Y379160D01*
X507822D01*
Y379318D01*
X507795D01*
Y379449D01*
X507769D01*
Y379606D01*
X507743D01*
Y379711D01*
X507717D01*
Y379816D01*
X507690D01*
Y379921D01*
X507664D01*
Y380026D01*
X507638D01*
Y380105D01*
X507612D01*
Y380210D01*
X507585D01*
Y380289D01*
X507559D01*
Y380367D01*
X507533D01*
Y380446D01*
X507507D01*
Y380525D01*
X507480D01*
Y380604D01*
X507454D01*
Y380682D01*
X507428D01*
Y380761D01*
X507402D01*
Y380814D01*
X507375D01*
Y380892D01*
X507349D01*
Y380945D01*
X507323D01*
Y380997D01*
X507297D01*
Y381076D01*
X507270D01*
Y381129D01*
X507244D01*
Y381181D01*
X507218D01*
Y381234D01*
X507192D01*
Y381286D01*
X507165D01*
Y381339D01*
X507139D01*
Y381391D01*
X507113D01*
Y381470D01*
X507087D01*
Y381496D01*
X507060D01*
Y381549D01*
X507034D01*
Y381601D01*
X507008D01*
Y381653D01*
X506982D01*
Y381706D01*
X506955D01*
Y381758D01*
X506929D01*
Y381811D01*
X506903D01*
Y381837D01*
X506877D01*
Y381890D01*
X506850D01*
Y381942D01*
X506824D01*
Y381995D01*
X506798D01*
Y382021D01*
X506772D01*
Y382073D01*
X506745D01*
Y382100D01*
X506719D01*
Y382152D01*
X506693D01*
Y382178D01*
X506667D01*
Y382231D01*
X506640D01*
Y382283D01*
X506614D01*
Y382310D01*
X506588D01*
Y382362D01*
X506562D01*
Y382388D01*
X506535D01*
Y382415D01*
X506509D01*
Y382467D01*
X506483D01*
Y382493D01*
X506457D01*
Y382546D01*
X506430D01*
Y382572D01*
X506404D01*
Y382598D01*
X506378D01*
Y382651D01*
X506352D01*
Y382677D01*
X506325D01*
Y382703D01*
X506299D01*
Y382756D01*
X506273D01*
Y382782D01*
X506247D01*
Y382808D01*
X506220D01*
Y382861D01*
X506194D01*
Y382887D01*
X506168D01*
Y382913D01*
X506142D01*
Y382940D01*
X506115D01*
Y382992D01*
X506089D01*
Y383018D01*
X506063D01*
Y383045D01*
X506037D01*
Y383071D01*
X506010D01*
Y383097D01*
X505984D01*
Y383123D01*
X505958D01*
Y383176D01*
X505932D01*
Y383202D01*
X505905D01*
Y383228D01*
X505879D01*
Y383255D01*
X505853D01*
Y383281D01*
X505827D01*
Y383307D01*
X505800D01*
Y383333D01*
X505774D01*
Y383360D01*
X505748D01*
Y383386D01*
X505722D01*
Y383412D01*
X505695D01*
Y383465D01*
X505669D01*
Y383491D01*
X505643D01*
Y383517D01*
X505617D01*
Y383543D01*
X505591D01*
Y383570D01*
X505564D01*
Y383596D01*
X505538D01*
Y383622D01*
X505512D01*
Y383648D01*
X505486D01*
Y383675D01*
X505459D01*
Y383701D01*
X505407D01*
Y383727D01*
X505381D01*
Y383753D01*
X505354D01*
Y383780D01*
X505328D01*
Y383806D01*
X505302D01*
Y383832D01*
X505276D01*
Y383858D01*
X505249D01*
Y383885D01*
X505223D01*
Y383911D01*
X505197D01*
Y383937D01*
X505171D01*
Y383963D01*
X505118D01*
Y383990D01*
X505092D01*
Y384016D01*
X505066D01*
Y384042D01*
X505039D01*
Y384068D01*
X505013D01*
Y384095D01*
X504987D01*
Y384121D01*
X504934D01*
Y384147D01*
X504908D01*
Y384173D01*
X504882D01*
Y384200D01*
X504856D01*
Y384226D01*
X504803D01*
Y384252D01*
X504777D01*
Y384278D01*
X504751D01*
Y384304D01*
X504724D01*
Y384331D01*
X504672D01*
Y384357D01*
X504646D01*
Y384383D01*
X504619D01*
Y384409D01*
X504567D01*
Y384436D01*
X504541D01*
Y384462D01*
X504488D01*
Y384488D01*
X504462D01*
Y384514D01*
X504436D01*
Y384541D01*
X504383D01*
Y384567D01*
X504357D01*
Y384593D01*
X504305D01*
Y384619D01*
X504278D01*
Y384646D01*
X504226D01*
Y384672D01*
X504200D01*
Y384698D01*
X504147D01*
Y384724D01*
X504121D01*
Y384751D01*
X504068D01*
Y384777D01*
X504016D01*
Y384803D01*
X503990D01*
Y384829D01*
X503937D01*
Y384856D01*
X503885D01*
Y384882D01*
X503858D01*
Y384908D01*
X503806D01*
Y384934D01*
X503753D01*
Y384961D01*
X503701D01*
Y384987D01*
X503675D01*
Y385013D01*
X503622D01*
Y385039D01*
X503570D01*
Y385066D01*
X503517D01*
Y385092D01*
X503465D01*
Y385118D01*
X503412D01*
Y385144D01*
X503360D01*
Y385171D01*
X503307D01*
Y385197D01*
X503255D01*
Y385223D01*
X503202D01*
Y385249D01*
X503150D01*
Y385276D01*
X503097D01*
Y385302D01*
X503018D01*
Y385328D01*
X502966D01*
Y385354D01*
X502913D01*
Y385381D01*
X502835D01*
Y385407D01*
X502782D01*
Y385433D01*
X502703D01*
Y385459D01*
X502651D01*
Y385486D01*
X502572D01*
Y385512D01*
X502493D01*
Y385538D01*
X502441D01*
Y385564D01*
X502336D01*
Y385591D01*
X502283D01*
Y385617D01*
X502178D01*
Y385643D01*
X502100D01*
Y385669D01*
X502021D01*
Y385696D01*
X501916D01*
Y385722D01*
X501837D01*
Y385748D01*
X501732D01*
Y385774D01*
X501627D01*
Y385801D01*
X501496D01*
Y385827D01*
X501391D01*
Y385853D01*
X501234D01*
Y385879D01*
X501076D01*
Y385906D01*
X500919D01*
Y385932D01*
X500709D01*
Y385958D01*
X500394D01*
Y385984D01*
D02*
G37*
%LPD*%
G36*
X500236Y385486D02*
X500315D01*
Y385459D01*
X500367D01*
Y385433D01*
X500420D01*
Y385407D01*
X500446D01*
Y385381D01*
X500472D01*
Y385354D01*
X500499D01*
Y385328D01*
X500551D01*
Y385276D01*
X500577D01*
Y385249D01*
X500604D01*
Y385223D01*
X500630D01*
Y385197D01*
X500656D01*
Y385171D01*
X500682D01*
Y385144D01*
X500709D01*
Y385092D01*
X500735D01*
Y385066D01*
X500761D01*
Y385039D01*
X500787D01*
Y384987D01*
X500814D01*
Y384934D01*
X500840D01*
Y384908D01*
X500866D01*
Y384856D01*
X500892D01*
Y384803D01*
X500919D01*
Y384751D01*
X500945D01*
Y384698D01*
X500971D01*
Y384646D01*
X500997D01*
Y384593D01*
X501024D01*
Y384541D01*
X501050D01*
Y384488D01*
X501076D01*
Y384409D01*
X501102D01*
Y384357D01*
X501129D01*
Y384304D01*
X501155D01*
Y384226D01*
X501181D01*
Y384147D01*
X501207D01*
Y384068D01*
X501234D01*
Y384016D01*
X501260D01*
Y383937D01*
X501286D01*
Y383832D01*
X501312D01*
Y383753D01*
X501339D01*
Y383675D01*
X501365D01*
Y383570D01*
X501391D01*
Y383491D01*
X501417D01*
Y383412D01*
X501444D01*
Y383307D01*
X501470D01*
Y383202D01*
X501496D01*
Y383097D01*
X501522D01*
Y382966D01*
X501549D01*
Y382861D01*
X501575D01*
Y382730D01*
X501601D01*
Y382598D01*
X501627D01*
Y382467D01*
X501653D01*
Y382336D01*
X501680D01*
Y382178D01*
X501706D01*
Y382021D01*
X501732D01*
Y381863D01*
X501758D01*
Y381680D01*
X501785D01*
Y381496D01*
X501811D01*
Y381312D01*
X501837D01*
Y381076D01*
X501863D01*
Y380814D01*
X501890D01*
Y380551D01*
X501207D01*
Y380682D01*
X501181D01*
Y380945D01*
X501155D01*
Y381207D01*
X501129D01*
Y381444D01*
X501102D01*
Y381653D01*
X501076D01*
Y381863D01*
X501050D01*
Y382047D01*
X501024D01*
Y382205D01*
X500997D01*
Y382388D01*
X500971D01*
Y382546D01*
X500945D01*
Y382677D01*
X500919D01*
Y382808D01*
X500892D01*
Y382940D01*
X500866D01*
Y383071D01*
X500840D01*
Y383202D01*
X500814D01*
Y383307D01*
X500787D01*
Y383412D01*
X500761D01*
Y383543D01*
X500735D01*
Y383648D01*
X500709D01*
Y383727D01*
X500682D01*
Y383832D01*
X500656D01*
Y383911D01*
X500630D01*
Y383990D01*
X500604D01*
Y384068D01*
X500577D01*
Y384147D01*
X500551D01*
Y384226D01*
X500525D01*
Y384278D01*
X500499D01*
Y384357D01*
X500472D01*
Y384409D01*
X500446D01*
Y384462D01*
X500420D01*
Y384514D01*
X500394D01*
Y384567D01*
X500367D01*
Y384619D01*
X500341D01*
Y384646D01*
X500315D01*
Y384672D01*
X500289D01*
Y384724D01*
X500262D01*
Y384751D01*
X500236D01*
Y384777D01*
X500184D01*
Y384803D01*
X500052D01*
Y384777D01*
X500000D01*
Y384751D01*
X499974D01*
Y384724D01*
X499948D01*
Y384672D01*
X499921D01*
Y384646D01*
X499895D01*
Y384593D01*
X499869D01*
Y384567D01*
X499843D01*
Y384514D01*
X499816D01*
Y384462D01*
X499790D01*
Y384409D01*
X499764D01*
Y384357D01*
X499738D01*
Y384278D01*
X499711D01*
Y384200D01*
X499685D01*
Y384147D01*
X499659D01*
Y384068D01*
X499633D01*
Y383990D01*
X499606D01*
Y383911D01*
X499580D01*
Y383806D01*
X499554D01*
Y383727D01*
X499528D01*
Y383622D01*
X499501D01*
Y383517D01*
X499475D01*
Y383412D01*
X499449D01*
Y383307D01*
X499423D01*
Y383202D01*
X499396D01*
Y383071D01*
X499370D01*
Y382940D01*
X499344D01*
Y382808D01*
X499318D01*
Y382677D01*
X499291D01*
Y382546D01*
X499265D01*
Y382388D01*
X499239D01*
Y382205D01*
X499213D01*
Y382047D01*
X499186D01*
Y381837D01*
X499160D01*
Y381653D01*
X499134D01*
Y381444D01*
X499108D01*
Y381207D01*
X499081D01*
Y380945D01*
X499055D01*
Y380682D01*
X499029D01*
Y380367D01*
X499003D01*
Y379921D01*
X498976D01*
Y379423D01*
X498950D01*
Y378346D01*
X498924D01*
Y378320D01*
X498950D01*
Y378294D01*
X498924D01*
Y378110D01*
X498950D01*
Y378084D01*
X498924D01*
Y378031D01*
X498950D01*
Y378005D01*
X498924D01*
Y377979D01*
X498950D01*
Y376955D01*
X498976D01*
Y376431D01*
X499003D01*
Y376037D01*
X499029D01*
Y375695D01*
X499055D01*
Y375433D01*
X499081D01*
Y375171D01*
X499108D01*
Y374934D01*
X499134D01*
Y374751D01*
X499160D01*
Y374541D01*
X499186D01*
Y374331D01*
X499213D01*
Y374173D01*
X499239D01*
Y374016D01*
X499265D01*
Y373858D01*
X499291D01*
Y373701D01*
X499318D01*
Y373569D01*
X499344D01*
Y373438D01*
X499370D01*
Y373307D01*
X499396D01*
Y373176D01*
X499423D01*
Y373071D01*
X499449D01*
Y372966D01*
X499475D01*
Y372861D01*
X499501D01*
Y372756D01*
X499528D01*
Y372677D01*
X499554D01*
Y372572D01*
X499580D01*
Y372493D01*
X499606D01*
Y372415D01*
X499633D01*
Y372310D01*
X499659D01*
Y372257D01*
X499685D01*
Y372179D01*
X499711D01*
Y372100D01*
X499738D01*
Y372047D01*
X499764D01*
Y371995D01*
X499790D01*
Y371916D01*
X499816D01*
Y371864D01*
X499843D01*
Y371837D01*
X499869D01*
Y371785D01*
X499895D01*
Y371732D01*
X499921D01*
Y371706D01*
X499948D01*
Y371680D01*
X499974D01*
Y371654D01*
X500000D01*
Y371627D01*
X500026D01*
Y371601D01*
X500079D01*
Y371575D01*
X500157D01*
Y371601D01*
X500210D01*
Y371627D01*
X500236D01*
Y371654D01*
X500262D01*
Y371680D01*
X500289D01*
Y371706D01*
X500315D01*
Y371732D01*
X500341D01*
Y371785D01*
X500367D01*
Y371811D01*
X500394D01*
Y371864D01*
X500420D01*
Y371916D01*
X500446D01*
Y371969D01*
X500472D01*
Y372047D01*
X500499D01*
Y372100D01*
X500525D01*
Y372179D01*
X500551D01*
Y372231D01*
X500577D01*
Y372310D01*
X500604D01*
Y372389D01*
X500630D01*
Y372467D01*
X500656D01*
Y372572D01*
X500682D01*
Y372651D01*
X500709D01*
Y372756D01*
X500735D01*
Y372861D01*
X500761D01*
Y372966D01*
X500787D01*
Y373071D01*
X500814D01*
Y373176D01*
X500840D01*
Y373307D01*
X500866D01*
Y373438D01*
X500892D01*
Y373569D01*
X500919D01*
Y373701D01*
X500945D01*
Y373858D01*
X500971D01*
Y373990D01*
X500997D01*
Y374173D01*
X501024D01*
Y374357D01*
X501050D01*
Y374514D01*
X501076D01*
Y374724D01*
X501102D01*
Y374934D01*
X501129D01*
Y375171D01*
X501155D01*
Y375433D01*
X501181D01*
Y375695D01*
X501207D01*
Y375827D01*
X501890D01*
Y375590D01*
X501863D01*
Y375354D01*
X501837D01*
Y375092D01*
X501811D01*
Y374908D01*
X501785D01*
Y374724D01*
X501758D01*
Y374541D01*
X501732D01*
Y374383D01*
X501706D01*
Y374226D01*
X501680D01*
Y374068D01*
X501653D01*
Y373937D01*
X501627D01*
Y373806D01*
X501601D01*
Y373675D01*
X501575D01*
Y373543D01*
X501549D01*
Y373438D01*
X501522D01*
Y373307D01*
X501496D01*
Y373202D01*
X501470D01*
Y373097D01*
X501444D01*
Y372992D01*
X501417D01*
Y372913D01*
X501391D01*
Y372808D01*
X501365D01*
Y372730D01*
X501339D01*
Y372625D01*
X501312D01*
Y372546D01*
X501286D01*
Y372467D01*
X501260D01*
Y372389D01*
X501234D01*
Y372310D01*
X501207D01*
Y372231D01*
X501181D01*
Y372179D01*
X501155D01*
Y372100D01*
X501129D01*
Y372021D01*
X501102D01*
Y371969D01*
X501076D01*
Y371916D01*
X501050D01*
Y371837D01*
X501024D01*
Y371785D01*
X500997D01*
Y371732D01*
X500971D01*
Y371680D01*
X500945D01*
Y371627D01*
X500919D01*
Y371575D01*
X500892D01*
Y371522D01*
X500866D01*
Y371496D01*
X500840D01*
Y371444D01*
X500814D01*
Y371391D01*
X500787D01*
Y371365D01*
X500761D01*
Y371312D01*
X500735D01*
Y371286D01*
X500709D01*
Y371260D01*
X500682D01*
Y371207D01*
X500656D01*
Y371181D01*
X500630D01*
Y371155D01*
X500604D01*
Y371129D01*
X500577D01*
Y371102D01*
X500551D01*
Y371076D01*
X500525D01*
Y371050D01*
X500499D01*
Y371024D01*
X500472D01*
Y370997D01*
X500420D01*
Y370971D01*
X500394D01*
Y370945D01*
X500341D01*
Y370919D01*
X500289D01*
Y370892D01*
X500210D01*
Y370866D01*
X500052D01*
Y370892D01*
X499948D01*
Y370919D01*
X499895D01*
Y370945D01*
X499843D01*
Y370971D01*
X499816D01*
Y370997D01*
X499764D01*
Y371024D01*
X499738D01*
Y371050D01*
X499711D01*
Y371076D01*
X499685D01*
Y371102D01*
X499659D01*
Y371129D01*
X499633D01*
Y371155D01*
X499606D01*
Y371181D01*
X499580D01*
Y371207D01*
X499554D01*
Y371260D01*
X499528D01*
Y371286D01*
X499501D01*
Y371339D01*
X499475D01*
Y371365D01*
X499449D01*
Y371391D01*
X499423D01*
Y371444D01*
X499396D01*
Y371496D01*
X499370D01*
Y371549D01*
X499344D01*
Y371575D01*
X499318D01*
Y371627D01*
X499291D01*
Y371680D01*
X499265D01*
Y371732D01*
X499239D01*
Y371785D01*
X499213D01*
Y371837D01*
X499186D01*
Y371916D01*
X499160D01*
Y371969D01*
X499134D01*
Y372047D01*
X499108D01*
Y372100D01*
X499081D01*
Y372179D01*
X499055D01*
Y372231D01*
X499029D01*
Y372310D01*
X499003D01*
Y372389D01*
X498976D01*
Y372467D01*
X498950D01*
Y372546D01*
X498924D01*
Y372625D01*
X498898D01*
Y372703D01*
X498871D01*
Y372808D01*
X498845D01*
Y372913D01*
X498819D01*
Y372992D01*
X498793D01*
Y373097D01*
X498766D01*
Y373202D01*
X498740D01*
Y373307D01*
X498714D01*
Y373412D01*
X498688D01*
Y373543D01*
X498661D01*
Y373648D01*
X498635D01*
Y373806D01*
X498609D01*
Y373937D01*
X498583D01*
Y374068D01*
X498556D01*
Y374200D01*
X498530D01*
Y374357D01*
X498504D01*
Y374541D01*
X498478D01*
Y374724D01*
X498452D01*
Y374908D01*
X498425D01*
Y375092D01*
X498399D01*
Y375328D01*
X498373D01*
Y375459D01*
Y375486D01*
Y375564D01*
X498347D01*
Y375827D01*
X498320D01*
Y376142D01*
X498294D01*
Y376562D01*
X498268D01*
Y377008D01*
X498242D01*
Y379370D01*
X498268D01*
Y379842D01*
X498294D01*
Y380236D01*
X498320D01*
Y380551D01*
X498347D01*
Y380814D01*
X498373D01*
Y381076D01*
X498399D01*
Y381286D01*
X498425D01*
Y381496D01*
X498452D01*
Y381680D01*
X498478D01*
Y381863D01*
X498504D01*
Y382021D01*
X498530D01*
Y382178D01*
X498556D01*
Y382336D01*
X498583D01*
Y382467D01*
X498609D01*
Y382598D01*
X498635D01*
Y382730D01*
X498661D01*
Y382861D01*
X498688D01*
Y382966D01*
X498714D01*
Y383071D01*
X498740D01*
Y383176D01*
X498766D01*
Y383281D01*
X498793D01*
Y383386D01*
X498819D01*
Y383491D01*
X498845D01*
Y383570D01*
X498871D01*
Y383675D01*
X498898D01*
Y383753D01*
X498924D01*
Y383832D01*
X498950D01*
Y383937D01*
X498976D01*
Y383990D01*
X499003D01*
Y384068D01*
X499029D01*
Y384147D01*
X499055D01*
Y384226D01*
X499081D01*
Y384278D01*
X499108D01*
Y384357D01*
X499134D01*
Y384409D01*
X499160D01*
Y384488D01*
X499186D01*
Y384541D01*
X499213D01*
Y384593D01*
X499239D01*
Y384646D01*
X499265D01*
Y384698D01*
X499291D01*
Y384751D01*
X499318D01*
Y384803D01*
X499344D01*
Y384856D01*
X499370D01*
Y384908D01*
X499396D01*
Y384934D01*
X499423D01*
Y384987D01*
X499449D01*
Y385013D01*
X499475D01*
Y385066D01*
X499501D01*
Y385092D01*
X499528D01*
Y385144D01*
X499554D01*
Y385171D01*
X499580D01*
Y385197D01*
X499606D01*
Y385223D01*
X499633D01*
Y385249D01*
X499659D01*
Y385276D01*
X499685D01*
Y385302D01*
X499711D01*
Y385328D01*
X499738D01*
Y385354D01*
X499764D01*
Y385381D01*
X499790D01*
Y385407D01*
X499843D01*
Y385433D01*
X499869D01*
Y385459D01*
X499921D01*
Y385486D01*
X500000D01*
Y385512D01*
X500236D01*
Y385486D01*
D02*
G37*
G36*
X498005Y378661D02*
X497979D01*
Y378346D01*
X498005D01*
Y378268D01*
X497979D01*
Y378241D01*
X498005D01*
Y378163D01*
X497979D01*
Y378136D01*
X498005D01*
Y378058D01*
X497979D01*
Y378031D01*
X498005D01*
Y377953D01*
X497979D01*
Y377743D01*
X498005D01*
Y377716D01*
X497979D01*
Y377690D01*
X497900D01*
Y377716D01*
X497795D01*
Y377743D01*
X497717D01*
Y377769D01*
X497612D01*
Y377795D01*
X497533D01*
Y377821D01*
X497480D01*
Y377848D01*
X497402D01*
Y377874D01*
X497349D01*
Y377900D01*
X497297D01*
Y377926D01*
X497244D01*
Y377953D01*
X497218D01*
Y377979D01*
X497165D01*
Y378005D01*
X497139D01*
Y378031D01*
X497113D01*
Y378058D01*
X497087D01*
Y378110D01*
X497060D01*
Y378294D01*
X497087D01*
Y378320D01*
X497113D01*
Y378346D01*
X497139D01*
Y378373D01*
X497165D01*
Y378399D01*
X497192D01*
Y378425D01*
X497244D01*
Y378451D01*
X497297D01*
Y378478D01*
X497323D01*
Y378504D01*
X497402D01*
Y378530D01*
X497454D01*
Y378556D01*
X497533D01*
Y378583D01*
X497585D01*
Y378609D01*
X497690D01*
Y378635D01*
X497769D01*
Y378661D01*
X497874D01*
Y378688D01*
X498005D01*
Y378661D01*
D02*
G37*
G36*
X500761Y378871D02*
X501181D01*
Y378845D01*
X501444D01*
Y378819D01*
X501653D01*
Y378793D01*
X501837D01*
Y378766D01*
X501995D01*
Y378740D01*
X502126D01*
Y378714D01*
X502257D01*
Y378688D01*
X502362D01*
Y378661D01*
X502467D01*
Y378635D01*
X502546D01*
Y378609D01*
X502651D01*
Y378583D01*
X502703D01*
Y378556D01*
X502782D01*
Y378530D01*
X502861D01*
Y378504D01*
X502913D01*
Y378478D01*
X502966D01*
Y378451D01*
X502992D01*
Y378425D01*
X503045D01*
Y378399D01*
X503071D01*
Y378373D01*
X503097D01*
Y378346D01*
X503123D01*
Y378320D01*
X503150D01*
Y378294D01*
X503176D01*
Y378110D01*
X503150D01*
Y378058D01*
X503123D01*
Y378031D01*
X503097D01*
Y378005D01*
X503071D01*
Y377979D01*
X503018D01*
Y377953D01*
X502992D01*
Y377926D01*
X502940D01*
Y377900D01*
X502887D01*
Y377874D01*
X502835D01*
Y377848D01*
X502756D01*
Y377821D01*
X502703D01*
Y377795D01*
X502625D01*
Y377769D01*
X502520D01*
Y377743D01*
X502441D01*
Y377716D01*
X502336D01*
Y377690D01*
X502231D01*
Y377664D01*
X502100D01*
Y377638D01*
X501942D01*
Y377611D01*
X501785D01*
Y377585D01*
X501575D01*
Y377559D01*
X501365D01*
Y377533D01*
X501076D01*
Y377507D01*
X500551D01*
Y377480D01*
X499738D01*
Y377507D01*
X499423D01*
Y378845D01*
X499396D01*
Y378871D01*
X499501D01*
Y378898D01*
X500761D01*
Y378871D01*
D02*
G37*
G36*
X501076Y380052D02*
X501706D01*
Y380026D01*
X502152D01*
Y380000D01*
X502467D01*
Y379974D01*
X502782D01*
Y379947D01*
X503045D01*
Y379921D01*
X503255D01*
Y379895D01*
X503465D01*
Y379869D01*
X503648D01*
Y379842D01*
X503832D01*
Y379816D01*
X504016D01*
Y379790D01*
X504173D01*
Y379764D01*
X504305D01*
Y379737D01*
X504436D01*
Y379711D01*
X504593D01*
Y379685D01*
X504724D01*
Y379659D01*
X504829D01*
Y379632D01*
X504961D01*
Y379606D01*
X505066D01*
Y379580D01*
X505171D01*
Y379554D01*
X505276D01*
Y379528D01*
X505381D01*
Y379501D01*
X505486D01*
Y379475D01*
X505564D01*
Y379449D01*
X505643D01*
Y379423D01*
X505748D01*
Y379396D01*
X505827D01*
Y379370D01*
X505905D01*
Y379344D01*
X505984D01*
Y379318D01*
X506063D01*
Y379291D01*
X506115D01*
Y379265D01*
X506194D01*
Y379239D01*
X506273D01*
Y379213D01*
X506325D01*
Y379186D01*
X506378D01*
Y379160D01*
X506430D01*
Y379134D01*
X506509D01*
Y379108D01*
X506562D01*
Y379081D01*
X506614D01*
Y379055D01*
X506667D01*
Y379029D01*
X506719D01*
Y379003D01*
X506745D01*
Y378976D01*
X506798D01*
Y378950D01*
X506850D01*
Y378924D01*
X506877D01*
Y378898D01*
X506929D01*
Y378871D01*
X506955D01*
Y378845D01*
X507008D01*
Y378819D01*
X507034D01*
Y378793D01*
X507087D01*
Y378766D01*
X507113D01*
Y378740D01*
X507139D01*
Y378714D01*
X507165D01*
Y378688D01*
X507192D01*
Y378661D01*
X507218D01*
Y378635D01*
X507244D01*
Y378609D01*
X507270D01*
Y378583D01*
X507297D01*
Y378556D01*
X507323D01*
Y378504D01*
X507349D01*
Y378451D01*
X507375D01*
Y378425D01*
X507402D01*
Y378346D01*
X507428D01*
Y378215D01*
X507454D01*
Y378189D01*
X507428D01*
Y378031D01*
X507402D01*
Y377979D01*
X507375D01*
Y377926D01*
X507349D01*
Y377874D01*
X507323D01*
Y377848D01*
X507297D01*
Y377821D01*
X507270D01*
Y377769D01*
X507244D01*
Y377743D01*
X507218D01*
Y377716D01*
X507192D01*
Y377690D01*
X507165D01*
Y377664D01*
X507139D01*
Y377638D01*
X507087D01*
Y377611D01*
X507060D01*
Y377585D01*
X507034D01*
Y377559D01*
X506982D01*
Y377533D01*
X506955D01*
Y377507D01*
X506929D01*
Y377480D01*
X506877D01*
Y377454D01*
X506824D01*
Y377428D01*
X506798D01*
Y377402D01*
X506745D01*
Y377375D01*
X506693D01*
Y377349D01*
X506640D01*
Y377323D01*
X506588D01*
Y377297D01*
X506535D01*
Y377270D01*
X506483D01*
Y377244D01*
X506430D01*
Y377218D01*
X506352D01*
Y377192D01*
X506299D01*
Y377165D01*
X506247D01*
Y377139D01*
X506168D01*
Y377113D01*
X506089D01*
Y377087D01*
X506037D01*
Y377060D01*
X505958D01*
Y377034D01*
X505879D01*
Y377008D01*
X505800D01*
Y376982D01*
X505722D01*
Y376955D01*
X505617D01*
Y376929D01*
X505538D01*
Y376903D01*
X505433D01*
Y376877D01*
X505354D01*
Y376850D01*
X505249D01*
Y376824D01*
X505144D01*
Y376798D01*
X505039D01*
Y376772D01*
X504934D01*
Y376745D01*
X504803D01*
Y376719D01*
X504672D01*
Y376693D01*
X504541D01*
Y376667D01*
X504410D01*
Y376640D01*
X504252D01*
Y376614D01*
X504121D01*
Y376588D01*
X503963D01*
Y376562D01*
X503780D01*
Y376535D01*
X503596D01*
Y376509D01*
X503386D01*
Y376483D01*
X503176D01*
Y376457D01*
X502940D01*
Y376431D01*
X502677D01*
Y376404D01*
X502362D01*
Y376378D01*
X502021D01*
Y376352D01*
X501549D01*
Y376325D01*
X500787D01*
Y376299D01*
X499528D01*
Y376325D01*
X499423D01*
Y377034D01*
X499449D01*
Y377008D01*
X500892D01*
Y377034D01*
X501601D01*
Y377060D01*
X502047D01*
Y377087D01*
X502415D01*
Y377113D01*
X502730D01*
Y377139D01*
X502992D01*
Y377165D01*
X503228D01*
Y377192D01*
X503438D01*
Y377218D01*
X503675D01*
Y377244D01*
X503858D01*
Y377270D01*
X504016D01*
Y377297D01*
X504200D01*
Y377323D01*
X504357D01*
Y377349D01*
X504514D01*
Y377375D01*
X504672D01*
Y377402D01*
X504777D01*
Y377428D01*
X504934D01*
Y377454D01*
X505039D01*
Y377480D01*
X505171D01*
Y377507D01*
X505276D01*
Y377533D01*
X505407D01*
Y377559D01*
X505486D01*
Y377585D01*
X505591D01*
Y377611D01*
X505695D01*
Y377638D01*
X505774D01*
Y377664D01*
X505853D01*
Y377690D01*
X505932D01*
Y377716D01*
X506010D01*
Y377743D01*
X506089D01*
Y377769D01*
X506168D01*
Y377795D01*
X506220D01*
Y377821D01*
X506299D01*
Y377848D01*
X506352D01*
Y377874D01*
X506404D01*
Y377900D01*
X506457D01*
Y377926D01*
X506509D01*
Y377953D01*
X506535D01*
Y377979D01*
X506588D01*
Y378005D01*
X506614D01*
Y378031D01*
X506640D01*
Y378058D01*
X506667D01*
Y378084D01*
X506693D01*
Y378110D01*
X506719D01*
Y378163D01*
X506745D01*
Y378215D01*
X506719D01*
Y378268D01*
X506693D01*
Y378320D01*
X506667D01*
Y378346D01*
X506640D01*
Y378373D01*
X506588D01*
Y378399D01*
X506562D01*
Y378425D01*
X506509D01*
Y378451D01*
X506483D01*
Y378478D01*
X506430D01*
Y378504D01*
X506378D01*
Y378530D01*
X506325D01*
Y378556D01*
X506247D01*
Y378583D01*
X506194D01*
Y378609D01*
X506115D01*
Y378635D01*
X506037D01*
Y378661D01*
X505958D01*
Y378688D01*
X505879D01*
Y378714D01*
X505800D01*
Y378740D01*
X505722D01*
Y378766D01*
X505617D01*
Y378793D01*
X505512D01*
Y378819D01*
X505433D01*
Y378845D01*
X505328D01*
Y378871D01*
X505197D01*
Y378898D01*
X505092D01*
Y378924D01*
X504961D01*
Y378950D01*
X504829D01*
Y378976D01*
X504698D01*
Y379003D01*
X504567D01*
Y379029D01*
X504410D01*
Y379055D01*
X504252D01*
Y379081D01*
X504095D01*
Y379108D01*
X503911D01*
Y379134D01*
X503727D01*
Y379160D01*
X503517D01*
Y379186D01*
X503307D01*
Y379213D01*
X503071D01*
Y379239D01*
X502808D01*
Y379265D01*
X502493D01*
Y379291D01*
X502152D01*
Y379318D01*
X501758D01*
Y379344D01*
X501155D01*
Y379370D01*
X499423D01*
Y380079D01*
X501076D01*
Y380052D01*
D02*
G37*
G36*
X497769Y379974D02*
X497743D01*
Y379921D01*
X497769D01*
Y379842D01*
X497743D01*
Y379816D01*
X497769D01*
Y379737D01*
X497743D01*
Y379711D01*
X497769D01*
Y379632D01*
X497743D01*
Y379606D01*
X497769D01*
Y379528D01*
X497743D01*
Y379318D01*
X497769D01*
Y379291D01*
X497638D01*
Y379265D01*
X497323D01*
Y379239D01*
X497034D01*
Y379213D01*
X496798D01*
Y379186D01*
X496562D01*
Y379160D01*
X496352D01*
Y379134D01*
X496168D01*
Y379108D01*
X495984D01*
Y379081D01*
X495800D01*
Y379055D01*
X495643D01*
Y379029D01*
X495486D01*
Y379003D01*
X495354D01*
Y378976D01*
X495197D01*
Y378950D01*
X495066D01*
Y378924D01*
X494934D01*
Y378898D01*
X494829D01*
Y378871D01*
X494724D01*
Y378845D01*
X494593D01*
Y378819D01*
X494514D01*
Y378793D01*
X494383D01*
Y378766D01*
X494305D01*
Y378740D01*
X494226D01*
Y378714D01*
X494121D01*
Y378688D01*
X494042D01*
Y378661D01*
X493963D01*
Y378635D01*
X493885D01*
Y378609D01*
X493832D01*
Y378583D01*
X493753D01*
Y378556D01*
X493701D01*
Y378530D01*
X493648D01*
Y378504D01*
X493596D01*
Y378478D01*
X493543D01*
Y378451D01*
X493491D01*
Y378425D01*
X493438D01*
Y378399D01*
X493412D01*
Y378373D01*
X493386D01*
Y378346D01*
X493333D01*
Y378320D01*
X493307D01*
Y378268D01*
X493281D01*
Y378110D01*
X493307D01*
Y378084D01*
X493333D01*
Y378058D01*
X493360D01*
Y378031D01*
X493386D01*
Y378005D01*
X493412D01*
Y377979D01*
X493465D01*
Y377953D01*
X493491D01*
Y377926D01*
X493543D01*
Y377900D01*
X493596D01*
Y377874D01*
X493648D01*
Y377848D01*
X493701D01*
Y377821D01*
X493780D01*
Y377795D01*
X493832D01*
Y377769D01*
X493911D01*
Y377743D01*
X493990D01*
Y377716D01*
X494068D01*
Y377690D01*
X494147D01*
Y377664D01*
X494252D01*
Y377638D01*
X494331D01*
Y377611D01*
X494436D01*
Y377585D01*
X494541D01*
Y377559D01*
X494646D01*
Y377533D01*
X494751D01*
Y377507D01*
X494882D01*
Y377480D01*
X494987D01*
Y377454D01*
X495118D01*
Y377428D01*
X495249D01*
Y377402D01*
X495381D01*
Y377375D01*
X495538D01*
Y377349D01*
X495695D01*
Y377323D01*
X495853D01*
Y377297D01*
X496037D01*
Y377270D01*
X496220D01*
Y377244D01*
X496430D01*
Y377218D01*
X496640D01*
Y377192D01*
X496877D01*
Y377165D01*
X497113D01*
Y377139D01*
X497428D01*
Y377113D01*
X497743D01*
Y377087D01*
X497769D01*
Y377060D01*
X497743D01*
Y376772D01*
X497769D01*
Y376693D01*
X497743D01*
Y376667D01*
X497769D01*
Y376588D01*
X497743D01*
Y376562D01*
X497769D01*
Y376483D01*
X497743D01*
Y376457D01*
X497769D01*
Y376404D01*
X497743D01*
Y376378D01*
X497690D01*
Y376404D01*
X497375D01*
Y376431D01*
X497087D01*
Y376457D01*
X496850D01*
Y376483D01*
X496614D01*
Y376509D01*
X496404D01*
Y376535D01*
X496220D01*
Y376562D01*
X496037D01*
Y376588D01*
X495853D01*
Y376614D01*
X495722D01*
Y376640D01*
X495564D01*
Y376667D01*
X495407D01*
Y376693D01*
X495276D01*
Y376719D01*
X495171D01*
Y376745D01*
X495039D01*
Y376772D01*
X494908D01*
Y376798D01*
X494803D01*
Y376824D01*
X494698D01*
Y376850D01*
X494619D01*
Y376877D01*
X494514D01*
Y376903D01*
X494410D01*
Y376929D01*
X494331D01*
Y376955D01*
X494226D01*
Y376982D01*
X494147D01*
Y377008D01*
X494068D01*
Y377034D01*
X493990D01*
Y377060D01*
X493911D01*
Y377087D01*
X493858D01*
Y377113D01*
X493780D01*
Y377139D01*
X493727D01*
Y377165D01*
X493648D01*
Y377192D01*
X493596D01*
Y377218D01*
X493543D01*
Y377244D01*
X493491D01*
Y377270D01*
X493412D01*
Y377297D01*
X493360D01*
Y377323D01*
X493333D01*
Y377349D01*
X493281D01*
Y377375D01*
X493228D01*
Y377402D01*
X493176D01*
Y377428D01*
X493123D01*
Y377454D01*
X493097D01*
Y377480D01*
X493045D01*
Y377507D01*
X493018D01*
Y377533D01*
X492992D01*
Y377559D01*
X492940D01*
Y377585D01*
X492913D01*
Y377611D01*
X492887D01*
Y377638D01*
X492861D01*
Y377664D01*
X492835D01*
Y377690D01*
X492808D01*
Y377716D01*
X492782D01*
Y377743D01*
X492756D01*
Y377769D01*
X492730D01*
Y377795D01*
X492703D01*
Y377821D01*
X492677D01*
Y377874D01*
X492651D01*
Y377900D01*
X492625D01*
Y377979D01*
X492598D01*
Y378031D01*
X492572D01*
Y378346D01*
X492598D01*
Y378425D01*
X492625D01*
Y378478D01*
X492651D01*
Y378504D01*
X492677D01*
Y378556D01*
X492703D01*
Y378583D01*
X492730D01*
Y378635D01*
X492756D01*
Y378661D01*
X492782D01*
Y378688D01*
X492808D01*
Y378714D01*
X492835D01*
Y378740D01*
X492887D01*
Y378766D01*
X492913D01*
Y378793D01*
X492940D01*
Y378819D01*
X492966D01*
Y378845D01*
X493018D01*
Y378871D01*
X493045D01*
Y378898D01*
X493071D01*
Y378924D01*
X493123D01*
Y378950D01*
X493176D01*
Y378976D01*
X493202D01*
Y379003D01*
X493255D01*
Y379029D01*
X493307D01*
Y379055D01*
X493360D01*
Y379081D01*
X493412D01*
Y379108D01*
X493465D01*
Y379134D01*
X493517D01*
Y379160D01*
X493570D01*
Y379186D01*
X493648D01*
Y379213D01*
X493701D01*
Y379239D01*
X493780D01*
Y379265D01*
X493832D01*
Y379291D01*
X493911D01*
Y379318D01*
X493990D01*
Y379344D01*
X494042D01*
Y379370D01*
X494121D01*
Y379396D01*
X494200D01*
Y379423D01*
X494305D01*
Y379449D01*
X494383D01*
Y379475D01*
X494488D01*
Y379501D01*
X494567D01*
Y379528D01*
X494672D01*
Y379554D01*
X494777D01*
Y379580D01*
X494882D01*
Y379606D01*
X494987D01*
Y379632D01*
X495118D01*
Y379659D01*
X495249D01*
Y379685D01*
X495381D01*
Y379711D01*
X495512D01*
Y379737D01*
X495669D01*
Y379764D01*
X495827D01*
Y379790D01*
X495984D01*
Y379816D01*
X496168D01*
Y379842D01*
X496325D01*
Y379869D01*
X496562D01*
Y379895D01*
X496772D01*
Y379921D01*
X497008D01*
Y379947D01*
X497270D01*
Y379974D01*
X497585D01*
Y380000D01*
X497769D01*
Y379974D01*
D02*
G37*
%LPC*%
G36*
X500236Y378661D02*
X500000D01*
Y378635D01*
X499921D01*
Y378609D01*
X499869D01*
Y378583D01*
X499843D01*
Y378556D01*
X499790D01*
Y378530D01*
X499764D01*
Y378478D01*
X499738D01*
Y378451D01*
X499711D01*
Y378399D01*
X499685D01*
Y378346D01*
X499659D01*
Y378215D01*
X499633D01*
Y378163D01*
X499659D01*
Y378031D01*
X499685D01*
Y377979D01*
X499711D01*
Y377926D01*
X499738D01*
Y377900D01*
X499764D01*
Y377874D01*
X499790D01*
Y377848D01*
X499816D01*
Y377821D01*
X499843D01*
Y377795D01*
X499895D01*
Y377769D01*
X499948D01*
Y377743D01*
X500026D01*
Y377716D01*
X500210D01*
Y377743D01*
X500315D01*
Y377769D01*
X500367D01*
Y377795D01*
X500394D01*
Y377821D01*
X500420D01*
Y377848D01*
X500446D01*
Y377874D01*
X500472D01*
Y377900D01*
X500499D01*
Y377926D01*
X500525D01*
Y377979D01*
X500551D01*
Y378031D01*
X500577D01*
Y378136D01*
X500604D01*
Y378241D01*
X500577D01*
Y378346D01*
X500551D01*
Y378425D01*
X500525D01*
Y378451D01*
X500499D01*
Y378504D01*
X500472D01*
Y378530D01*
X500446D01*
Y378556D01*
X500394D01*
Y378583D01*
X500367D01*
Y378609D01*
X500315D01*
Y378635D01*
X500236D01*
Y378661D01*
D02*
G37*
%LPD*%
D10*
X375591Y320866D02*
G03*
X375591Y320866I-492J0D01*
G01*
X388681Y240689D02*
G03*
X388681Y240689I-492J0D01*
G01*
X372146Y254921D02*
G03*
X372146Y254921I-492J0D01*
G01*
X330413Y370079D02*
G03*
X330413Y370079I-492J0D01*
G01*
X457028Y382874D02*
G03*
X457028Y382874I-492J0D01*
G01*
X330413Y338583D02*
G03*
X330413Y338583I-492J0D01*
G01*
Y354331D02*
G03*
X330413Y354331I-492J0D01*
G01*
X488647Y291831D02*
G03*
X488647Y291831I-492J0D01*
G01*
X525492Y339370D02*
G03*
X525492Y339370I-492J0D01*
G01*
D11*
X477362Y267717D02*
G03*
X476968Y267717I-197J0D01*
G01*
D02*
G03*
X477362Y267717I197J0D01*
G01*
X491142Y283465D02*
X545079D01*
Y248031D02*
Y283465D01*
X491142Y248031D02*
X545079D01*
D12*
X521945Y339012D02*
G03*
X521945Y339012I-1000J0D01*
G01*
X526083Y311732D02*
Y321260D01*
X531004Y314567D02*
Y321260D01*
X381299Y294685D02*
Y319488D01*
Y294685D02*
X406102D01*
Y319488D01*
X381299D02*
X406102D01*
X383169Y242717D02*
Y262244D01*
Y242717D02*
X413681D01*
Y262244D01*
X383169D02*
X413681D01*
X362205Y258957D02*
Y268602D01*
X339272Y275591D02*
X361516D01*
X338583Y258957D02*
Y268602D01*
X339272Y251969D02*
X361516D01*
X332087Y366732D02*
X341142D01*
X332087Y373425D02*
X341142D01*
X453051Y376181D02*
X453563D01*
X479508D02*
X480020D01*
Y362008D02*
Y376181D01*
X453051Y362008D02*
X453563D01*
X479508D02*
X480020D01*
X453051D02*
Y376181D01*
X408071Y370000D02*
Y375000D01*
Y370000D02*
X448071D01*
Y380000D01*
X413071D02*
X448071D01*
X364921Y370000D02*
Y375000D01*
Y370000D02*
X404921D01*
Y380000D01*
X369921D02*
X404921D01*
X332087Y335236D02*
X341142D01*
X332087Y341929D02*
X341142D01*
X332087Y350984D02*
X341142D01*
X332087Y357677D02*
X341142D01*
X532874Y291988D02*
X537205D01*
X531496Y292323D02*
Y303740D01*
X530315D02*
X531496D01*
X530315Y292323D02*
Y303740D01*
Y292323D02*
X531496D01*
X514980Y309547D02*
X520177D01*
X511394Y303921D02*
Y315174D01*
X504078Y303921D02*
Y315174D01*
X482146Y292815D02*
Y318406D01*
X470335D02*
X482146D01*
X470335Y292815D02*
Y318406D01*
Y292815D02*
X482146D01*
X519445Y336512D02*
Y349512D01*
X502445Y336512D02*
X519445D01*
X502445D02*
Y349512D01*
X519445D01*
X529429Y359055D02*
X535236D01*
X529429Y329921D02*
X535236D01*
X529429D02*
Y331496D01*
Y357480D02*
Y359055D01*
X352559Y293307D02*
Y320866D01*
X336417Y293307D02*
Y320866D01*
X348425Y293307D02*
X352559D01*
X348425Y320866D02*
X352559D01*
X336417D02*
X340551D01*
X336417Y293307D02*
X340551D01*
D13*
X392717Y275978D02*
X395571D01*
X336614Y360827D02*
Y363681D01*
X362205Y307579D02*
Y310433D01*
X336614Y345079D02*
Y347933D01*
X394193Y336614D02*
X397047D01*
X400098D02*
X402953D01*
X386817Y337106D02*
Y339961D01*
X336614Y329331D02*
Y332185D01*
D14*
X429421Y277862D02*
X431269D01*
X429421Y260720D02*
X431269D01*
X446563D02*
Y262568D01*
X444716Y277862D02*
X446563D01*
X429421Y276015D02*
Y277862D01*
Y260720D02*
Y262568D01*
X444716Y260720D02*
X446563D01*
Y276015D02*
Y277862D01*
D15*
X378264Y254937D02*
X379733D01*
X378998D01*
Y259345D01*
X378264Y258610D01*
X377378Y248374D02*
X378113Y249109D01*
X379582D01*
X380317Y248374D01*
Y245436D01*
X379582Y244701D01*
X378113D01*
X377378Y245436D01*
Y248374D01*
D16*
X351482Y234769D02*
X350688Y235562D01*
X349101D01*
X348307Y234769D01*
Y233975D01*
X349101Y233181D01*
X350688D01*
X351482Y232387D01*
Y231594D01*
X350688Y230800D01*
X349101D01*
X348307Y231594D01*
X353069Y235562D02*
X356244D01*
X354657D01*
Y230800D01*
X357832D02*
Y235562D01*
X359419Y233975D01*
X361006Y235562D01*
Y230800D01*
X362594Y234769D02*
X363387Y235562D01*
X364975D01*
X365769Y234769D01*
Y233975D01*
X364975Y233181D01*
X364181D01*
X364975D01*
X365769Y232387D01*
Y231594D01*
X364975Y230800D01*
X363387D01*
X362594Y231594D01*
X370531Y230800D02*
X367356D01*
X370531Y233975D01*
Y234769D01*
X369737Y235562D01*
X368150D01*
X367356Y234769D01*
X376881Y235562D02*
Y230800D01*
X379262D01*
X380055Y231594D01*
Y234769D01*
X379262Y235562D01*
X376881D01*
X384818D02*
X381643D01*
Y230800D01*
X384818D01*
X381643Y233181D02*
X383230D01*
X386405Y235562D02*
Y232387D01*
X387992Y230800D01*
X389580Y232387D01*
Y235562D01*
X395930D02*
Y230800D01*
X398311D01*
X399104Y231594D01*
Y232387D01*
X398311Y233181D01*
X395930D01*
X398311D01*
X399104Y233975D01*
Y234769D01*
X398311Y235562D01*
X395930D01*
X403073D02*
X401485D01*
X400692Y234769D01*
Y231594D01*
X401485Y230800D01*
X403073D01*
X403867Y231594D01*
Y234769D01*
X403073Y235562D01*
X405454Y230800D02*
Y233975D01*
X407041Y235562D01*
X408629Y233975D01*
Y230800D01*
Y233181D01*
X405454D01*
X410216Y230800D02*
Y235562D01*
X412597D01*
X413391Y234769D01*
Y233181D01*
X412597Y232387D01*
X410216D01*
X411804D02*
X413391Y230800D01*
X414978Y235562D02*
Y230800D01*
X417360D01*
X418153Y231594D01*
Y234769D01*
X417360Y235562D01*
X414978D01*
X424503D02*
Y230800D01*
X426884D01*
X427678Y231594D01*
Y232387D01*
Y233181D01*
X426884Y233975D01*
X424503D01*
X429265D02*
Y231594D01*
X430059Y230800D01*
X432440D01*
Y230006D01*
X431646Y229213D01*
X430853D01*
X432440Y230800D02*
Y233975D01*
X438790Y235562D02*
Y230800D01*
Y233181D01*
X441964D01*
Y235562D01*
Y230800D01*
X444346Y233975D02*
X445933D01*
X446727Y233181D01*
Y230800D01*
X444346D01*
X443552Y231594D01*
X444346Y232387D01*
X446727D01*
X448314Y233975D02*
Y230800D01*
Y232387D01*
X449108Y233181D01*
X449901Y233975D01*
X450695D01*
X453076Y230800D02*
X455457D01*
X456251Y231594D01*
X455457Y232387D01*
X453870D01*
X453076Y233181D01*
X453870Y233975D01*
X456251D01*
X457839Y235562D02*
Y230800D01*
Y233181D01*
X458632Y233975D01*
X460220D01*
X461013Y233181D01*
Y230800D01*
X463394Y233975D02*
X464982D01*
X465776Y233181D01*
Y230800D01*
X463394D01*
X462601Y231594D01*
X463394Y232387D01*
X465776D01*
X475300Y234769D02*
X474506Y235562D01*
X472919D01*
X472125Y234769D01*
Y233975D01*
X472919Y233181D01*
X474506D01*
X475300Y232387D01*
Y231594D01*
X474506Y230800D01*
X472919D01*
X472125Y231594D01*
X477681Y233975D02*
X479269D01*
X480062Y233181D01*
Y230800D01*
X477681D01*
X476888Y231594D01*
X477681Y232387D01*
X480062D01*
X481650Y230800D02*
Y233975D01*
X484031D01*
X484825Y233181D01*
Y230800D01*
X489587Y235562D02*
Y230800D01*
X487206D01*
X486412Y231594D01*
Y233181D01*
X487206Y233975D01*
X489587D01*
X491174Y230800D02*
X492762D01*
X491968D01*
Y233975D01*
X491174D01*
X495143D02*
Y230800D01*
Y232387D01*
X495936Y233181D01*
X496730Y233975D01*
X497524D01*
X499905Y230800D02*
X501493D01*
X500699D01*
Y233975D01*
X499905D01*
X505461Y229213D02*
X506255D01*
X507048Y230006D01*
Y233975D01*
X504667D01*
X503874Y233181D01*
Y231594D01*
X504667Y230800D01*
X507048D01*
X509430Y233975D02*
X511017D01*
X511811Y233181D01*
Y230800D01*
X509430D01*
X508636Y231594D01*
X509430Y232387D01*
X511811D01*
X513398Y230800D02*
Y233975D01*
X514192D01*
X514986Y233181D01*
Y230800D01*
Y233181D01*
X515779Y233975D01*
X516573Y233181D01*
Y230800D01*
X518954Y233975D02*
X520541D01*
X521335Y233181D01*
Y230800D01*
X518954D01*
X518160Y231594D01*
X518954Y232387D01*
X521335D01*
D17*
X424213Y275819D02*
X427545Y272487D01*
X424213D02*
X427545Y275819D01*
X424213Y274153D02*
X427545D01*
X425879Y272487D02*
Y275819D01*
D18*
X432312Y281949D02*
Y284888D01*
X433781Y286357D01*
X435250Y284888D01*
Y281949D01*
Y284154D01*
X432312D01*
X439658Y285623D02*
X438924Y286357D01*
X437454D01*
X436720Y285623D01*
Y282684D01*
X437454Y281949D01*
X438924D01*
X439658Y282684D01*
X444066Y285623D02*
X443332Y286357D01*
X441862D01*
X441128Y285623D01*
Y282684D01*
X441862Y281949D01*
X443332D01*
X444066Y282684D01*
X342312Y279292D02*
Y283700D01*
X345251Y279292D01*
Y283700D01*
X346720Y279292D02*
Y283700D01*
X348924D01*
X349659Y282965D01*
Y281496D01*
X348924Y280761D01*
X346720D01*
X348190D02*
X349659Y279292D01*
X354067Y282965D02*
X353332Y283700D01*
X351863D01*
X351128Y282965D01*
Y282231D01*
X351863Y281496D01*
X353332D01*
X354067Y280761D01*
Y280027D01*
X353332Y279292D01*
X351863D01*
X351128Y280027D01*
X355536Y283700D02*
X358475D01*
X357006D01*
Y279292D01*
X391131Y268739D02*
Y264331D01*
X393335D01*
X394070Y265066D01*
Y265801D01*
X393335Y266535D01*
X391131D01*
X393335D01*
X394070Y267270D01*
Y268005D01*
X393335Y268739D01*
X391131D01*
X397743D02*
X396274D01*
X395539Y268005D01*
Y265066D01*
X396274Y264331D01*
X397743D01*
X398478Y265066D01*
Y268005D01*
X397743Y268739D01*
X402151D02*
X400682D01*
X399947Y268005D01*
Y265066D01*
X400682Y264331D01*
X402151D01*
X402886Y265066D01*
Y268005D01*
X402151Y268739D01*
X404355D02*
X407294D01*
X405825D01*
Y264331D01*
X463597Y390052D02*
X462862Y390787D01*
X461393D01*
X460658Y390052D01*
Y389317D01*
X461393Y388583D01*
X462862D01*
X463597Y387848D01*
Y387113D01*
X462862Y386379D01*
X461393D01*
X460658Y387113D01*
X465066Y390787D02*
Y386379D01*
X466535Y387848D01*
X468005Y386379D01*
Y390787D01*
X469474D02*
Y386379D01*
X471678D01*
X472413Y387113D01*
Y390052D01*
X471678Y390787D01*
X469474D01*
X418887D02*
Y387113D01*
X419622Y386379D01*
X421091D01*
X421826Y387113D01*
Y390787D01*
X423295Y386379D02*
Y389317D01*
X424764Y390787D01*
X426234Y389317D01*
Y386379D01*
Y388583D01*
X423295D01*
X427703Y386379D02*
Y390787D01*
X429907D01*
X430642Y390052D01*
Y388583D01*
X429907Y387848D01*
X427703D01*
X429173D02*
X430642Y386379D01*
X432111Y390787D02*
X435050D01*
X433580D01*
Y386379D01*
X380461Y390052D02*
X379726Y390787D01*
X378257D01*
X377522Y390052D01*
Y387113D01*
X378257Y386379D01*
X379726D01*
X380461Y387113D01*
Y388583D01*
X378992D01*
X381930Y386379D02*
Y390787D01*
X384134D01*
X384869Y390052D01*
Y388583D01*
X384134Y387848D01*
X381930D01*
X386338Y390787D02*
X387808D01*
X387073D01*
Y386379D01*
X386338D01*
X387808D01*
X392216Y390787D02*
X390746D01*
X390012Y390052D01*
Y387113D01*
X390746Y386379D01*
X392216D01*
X392950Y387113D01*
Y390052D01*
X392216Y390787D01*
X344281Y340787D02*
Y336379D01*
X347219D01*
X351627Y340787D02*
X348689D01*
Y336379D01*
X351627D01*
X348689Y338583D02*
X350158D01*
X353097Y340787D02*
Y336379D01*
X355301D01*
X356036Y337113D01*
Y340052D01*
X355301Y340787D01*
X353097D01*
X360444Y336379D02*
X357505D01*
X360444Y339317D01*
Y340052D01*
X359709Y340787D01*
X358240D01*
X357505Y340052D01*
X344516Y371548D02*
X345251Y372283D01*
X346720D01*
X347455Y371548D01*
Y370813D01*
X346720Y370079D01*
X345986D01*
X346720D01*
X347455Y369344D01*
Y368609D01*
X346720Y367875D01*
X345251D01*
X344516Y368609D01*
X348924Y372283D02*
Y369344D01*
X350394Y367875D01*
X351863Y369344D01*
Y372283D01*
X353332Y371548D02*
X354067Y372283D01*
X355536D01*
X356271Y371548D01*
Y370813D01*
X355536Y370079D01*
X354802D01*
X355536D01*
X356271Y369344D01*
Y368609D01*
X355536Y367875D01*
X354067D01*
X353332Y368609D01*
M02*
